<svg xmlns="http://www.w3.org/2000/svg" viewBox="0 0 140.29 87.32"><defs><style>.cls-1{fill:#333232;}</style></defs><title>Asset 2</title><g id="Layer_2" data-name="Layer 2"><g id="Layer_1-2" data-name="Layer 1"><path class="cls-1" d="M83.93,43.31c0-1.34,0-1.34-1.36-1.34H59.39C57,42,57.07,42,57,44.28c0,.79.24,1,1,1,4.09,0,8.19,0,12.28,0H81.92C83.91,45.27,83.91,45.28,83.93,43.31Z"/><path class="cls-1" d="M140.29,20.74a15.27,15.27,0,0,0-1.47-6.81A18.43,18.43,0,0,0,135,8.28h0A16.88,16.88,0,0,0,131.68,5a4.94,4.94,0,0,0-2.15-1.61,13.34,13.34,0,0,0-4.35-1.91l-.17,0h0c-.12-.11-.22-.27-.35-.31a23.23,23.23,0,0,0-6-1H81.49c-.3,0-.67-.16-.88.24s-.15.52,0,.77h0a.2.2,0,0,0,0,.13c.23,1,.45,2.08.71,3.12.53,2.18,1,4.37,1.65,6.51.31,1,.2,2.23,1.12,3h0c2.91.84,26.48,5.8,28.51,6.26h0c1,.25,2,.52,3,.74a6.34,6.34,0,0,1,4.88,6.24c0,11,0,21.93,0,32.9a7.41,7.41,0,0,1-1,3.91h0a15,15,0,0,1-2.69,2.43s-5.12,1.43-5.44,1.5c-3.07.65-6.12,1.44-9.22,2a1.65,1.65,0,0,0-.31,0,4.93,4.93,0,0,1-1.65.36c-1,.25-1.92.46-2.89.64a21.21,21.21,0,0,1-4.3,1c-2.62.61-5.24,1.19-7.88,1.73-.61.13-1.14.29-1.25,1a1.21,1.21,0,0,0,.09.2s0,.09,0,.13a.29.29,0,0,0-.16,0,.12.12,0,0,0-.05,0h0a.11.11,0,0,0-.18,0q-1.38,5.4-2.75,10.8h0c-.69,1.33-.55,1.57.94,1.57,11.56,0,23.12,0,34.68,0A25.59,25.59,0,0,0,126,85.73a2,2,0,0,0,.76-.44l.45-.32h0c1.46-.24,2.53-1.21,3.71-2h0a18.45,18.45,0,0,0,3.95-3.48h0c.31-.32.76-.53.75-1.07h0l.6-.77a23.33,23.33,0,0,0,2-3.16,12.78,12.78,0,0,0,1-2.28.09.09,0,0,0,.12,0,15.71,15.71,0,0,0,.78-2.56h0a3.4,3.4,0,0,0,.12-1.27C140.25,52.48,140.22,36.61,140.29,20.74ZM82,82.76v0h0ZM81,.63h0l0,0a.08.08,0,0,0,0,0Zm2.35,76.86,0,0v0A.13.13,0,0,1,83.32,77.49Zm44,7.39-.08.09A.12.12,0,0,1,127.27,84.88Z"/><path class="cls-1" d="M60,85.48c.07-.74-.37-1.37-.44-2.08h0c0-.38.23-.84-.34-1h0L59.13,82a4.1,4.1,0,0,0-.55-2.4,1.1,1.1,0,0,1,0-.18h0a13.87,13.87,0,0,0-.8-3.35c0-.41,0-.87-.42-1.14h0c-.35-.42.1-1.24-.72-1.42h0a1.2,1.2,0,0,0-.34-.17L41.67,70.2l-.1,0a14.91,14.91,0,0,0-2.85-.73h0c-3.07-.66-6.14-1.36-9.21-2a32.08,32.08,0,0,0-5-1,6.26,6.26,0,0,1-4.12-4.72h0c0-.13,0-.26,0-.39q0-17.29,0-34.57a6,6,0,0,1,2-4.59c1.37-1.3,3.13-1.52,4.83-1.93h0c2.33-.35,4.63-.91,6.92-1.47a.61.61,0,0,0,.36-.09L42.68,17c1.46-.29,2.94-.5,4.37-.9.7-.19,1.53,0,2.09-.67h0l.75,0h0l1.21-.18h0a2.06,2.06,0,0,0,1.38-.38h0l1.76-.4a3.37,3.37,0,0,0,2-.39h0l.58-.2c.38,0,.39-.29.44-.55h0a12.09,12.09,0,0,0,.92-4C58.7,7.12,59.24,5,59.77,2.8l.18-1L60.32,1h0c.53-1-.22-1-.87-1H22.53a13,13,0,0,0-2.24.19,18.05,18.05,0,0,0-6,1.76.59.59,0,0,0,.27.14C13.37,2.67,12.19,3.3,11,3.94l0,0a.39.39,0,0,0-.39,0c-.55.41-1.11.81-1.63,1.25A16,16,0,0,0,5.08,9.26h0A12.53,12.53,0,0,0,3.13,12.2h0a1,1,0,0,0-.28.25A22.71,22.71,0,0,0,0,23.25C0,36,0,48.67,0,61.38A28.53,28.53,0,0,0,.4,67.84s0,.07.08.07a3.65,3.65,0,0,0,.38,1.74c.22.14.59.25.09.52,0,0,0,0,0,.08A.16.16,0,0,0,1,70.4H1a31.93,31.93,0,0,0,1.67,4,18.49,18.49,0,0,0,1.2,2.13A24.54,24.54,0,0,0,10.2,83a20.14,20.14,0,0,0,6.61,3.11.24.24,0,0,0-.11.26,20.34,20.34,0,0,0,5.67.94c12.35,0,24.71,0,37.06,0,.35,0,.75.08.89-.4h0a1.76,1.76,0,0,0-.35-1.4ZM.77,19.08h0ZM57.09,74.66a1.86,1.86,0,0,1,.2.45A.81.81,0,0,1,57.09,74.66ZM34,18.68h0Z"/></g></g></svg>