<?xml version="1.0" encoding="UTF-8"?>
<svg width="195px" height="118px" viewBox="0 0 195 118" version="1.1" xmlns="http://www.w3.org/2000/svg" xmlns:xlink="http://www.w3.org/1999/xlink">
    <!-- Generator: Sketch 50.2 (55047) - http://www.bohemiancoding.com/sketch -->
    <title>Alibaba Cloud</title>
    <desc>Created with Sketch.</desc>
    <defs></defs>
    <g id="Project-Kitsune-" stroke="none" stroke-width="1" fill="none" fill-rule="evenodd">
        <g id="Live-sites--Alicloud" transform="translate(-924.000000, -658.000000)" fill-rule="nonzero">
            <g id="All-live-sites" transform="translate(-0.200000, -0.400000)">
                <g id="Alicloud-Tab" transform="translate(258.600000, 375.800000)">
                    <g id="Alicloud-Zeroth" transform="translate(0.008373, 124.390414)">
                        <g id="Alibaba-Cloud" transform="translate(666.000000, 159.000000)">
                            <path d="M156.27215,45.2186909 C150.660768,20.5686909 126.611988,0.603306258 96.951825,0.603306258 C73.7046705,0.603306258 53.6640201,12.2033063 44.0445079,29.6033063 C19.1941014,32.5033063 0.756703061,50.6283063 0.756703061,73.1033063 C0.756703061,97.0283063 22.4006055,116.603306 48.854264,116.603306 L153.065646,116.603306 C175.511175,116.603306 193.146947,100.653306 193.146947,80.3533063 C193.146947,61.5033063 176.312801,46.6686909 156.27215,45.2186909 Z" id="Shape" stroke="#DEDEDE" stroke-width="0.900000036" fill="#FBFBFB" stroke-dasharray="5.400000214576721,5.400000214576721"></path>
                            <g id="Group-22" transform="translate(75.000000, 55.000000)" fill="#333232">
                                <path d="M26.6142868,13.1680817 C26.6142868,12.7006584 26.6142868,12.7006584 26.2052262,12.7006584 L19.2331502,12.7006584 C18.5142864,12.7111231 18.535341,12.7111231 18.5142864,13.5064404 C18.5142864,13.7820108 18.5864736,13.8552637 18.8150663,13.8552637 C20.0452557,13.8552637 21.2784529,13.8552637 22.5086423,13.8552637 L26.0097194,13.8552637 C26.6082712,13.8517755 26.6082712,13.8552637 26.6142868,13.1680817 Z" id="Shape"></path>
                                <path d="M43.9707032,6.54540369 C43.9834709,5.79784137 43.8279485,5.05736168 43.516278,4.38177618 C43.2347391,3.71312065 42.8342541,3.10433875 42.3353907,2.58669609 C42.0418825,2.19216508 41.6964751,1.8414473 41.3090699,1.5445965 C41.1377449,1.31427327 40.9076953,1.13722196 40.6444344,1.0330781 C40.2351312,0.749736145 39.7796672,0.544199884 39.2997067,0.426245719 L39.2471542,0.426245719 C39.2100582,0.391297257 39.1791449,0.340463131 39.1389577,0.327754599 C38.5369139,0.13875529 37.9133035,0.0319353275 37.2841609,0.0100413089 L25.7936952,0.0100413089 C25.7009554,0.0100413089 25.5865762,-0.0407928175 25.5216583,0.0862924985 C25.4567405,0.213377815 25.4752884,0.251503409 25.5216583,0.330931732 C25.5171833,0.344315188 25.5171833,0.358851003 25.5216583,0.37223446 C25.5927589,0.68994775 25.6607681,1.0330781 25.7411426,1.36349992 C25.904983,2.0561149 26.0502754,2.751907 26.2512117,3.43181344 C26.3470429,3.74952673 26.3130383,4.14031408 26.5974405,4.38495331 C27.4970169,4.65183248 34.7832767,6.2276904 35.4108162,6.37383851 C35.719949,6.45326683 36.0290818,6.53904942 36.3382146,6.60894634 C37.2303228,6.82585707 37.8569484,7.64935623 37.8467826,8.59147727 C37.8467826,12.0863235 37.8467826,15.5589297 37.8467826,19.0442445 C37.8575569,19.4797509 37.7505431,19.9097889 37.5376498,20.2865035 C37.2918481,20.5774554 37.0126205,20.8366958 36.7060826,21.0585468 C36.7060826,21.0585468 35.1233228,21.5128768 35.0244003,21.5351167 C34.0753626,21.7416304 33.1325076,21.9926239 32.174196,22.1705433 C32.142323,22.1674524 32.1102377,22.1674524 32.0783648,22.1705433 C31.9160084,22.2385377 31.7434542,22.2772309 31.5682957,22.2849201 C31.2591629,22.3643484 30.9747607,22.4310682 30.6749019,22.4882566 C30.2437712,22.6413951 29.7982682,22.7478762 29.3456309,22.8059699 C28.535703,22.999775 27.7257751,23.1840487 26.9096646,23.3556139 C26.7210936,23.3969166 26.5572532,23.4477507 26.5232486,23.6733272 C26.5306319,23.69533 26.5399441,23.7165982 26.5510705,23.7368698 C26.5510705,23.7368698 26.5510705,23.765464 26.5510705,23.7781725 C26.5349097,23.7734057 26.5177702,23.7734057 26.5016093,23.7781725 C26.4965142,23.7770571 26.4912477,23.7770571 26.4861526,23.7781725 C26.4797854,23.7688603 26.4694049,23.763318 26.4583307,23.763318 C26.4472565,23.763318 26.436876,23.7688603 26.4305087,23.7781725 C26.1461066,24.9219404 25.8627349,26.0657082 25.5803936,27.2094761 C25.367092,27.6320348 25.4103705,27.7082859 25.8709784,27.7082859 C29.4445534,27.7082859 33.0181285,27.7082859 36.5917035,27.7082859 C37.6017905,27.7326672 38.6070708,27.5579535 39.5531956,27.1935904 C39.6406191,27.1654567 39.720867,27.1177079 39.7881365,27.0537966 L39.9272463,26.9521283 C40.3785802,26.8758771 40.7093522,26.5676952 41.0741289,26.3167017 C41.5304829,26.0100353 41.9416925,25.6376987 42.2952034,25.2110595 C42.3910346,25.1093912 42.5301444,25.0426714 42.527053,24.8711063 L42.7125327,24.626467 C42.9444292,24.3093517 43.1511818,23.9736154 43.3307983,23.622493 C43.4565358,23.3919465 43.5600712,23.1493335 43.6399311,22.8981067 C43.6504923,22.9078152 43.6664658,22.9078152 43.677027,22.8981067 C43.7797647,22.6345336 43.8604318,22.3624312 43.9181506,22.0847607 C43.9551751,21.9538721 43.9677619,21.8169643 43.9552465,21.6812648 C43.9583379,16.6296235 43.9490639,11.5875136 43.9707032,6.54540369 Z M26.3686822,24.5756329 C26.3656012,24.5760007 26.3624892,24.5760007 26.3594082,24.5756329 L26.3686822,24.5756329 Z M39.9705249,26.9235341 L39.9457943,26.9521283 C39.9421848,26.9429579 39.9421848,26.9327046 39.9457943,26.9235341 L39.9705249,26.9235341 Z" id="Shape"></path>
                                <path d="M19.5091157,27.128167 C19.5318618,26.8933186 19.3888862,26.6933801 19.3661401,26.4680527 C19.3661401,26.3474548 19.4408773,26.201468 19.255659,26.15069 L19.226414,26.0237449 C19.2481483,25.7579679 19.1857612,25.4920851 19.0476946,25.2620746 C19.0460968,25.2430648 19.0460968,25.2239591 19.0476946,25.2049493 C19.0066063,24.841389 18.9192814,24.4842478 18.7877391,24.1417844 C18.7877391,24.0116658 18.7877391,23.8656789 18.6512625,23.779991 C18.5375319,23.6466987 18.6837569,23.3864613 18.4173025,23.3293361 C18.3836444,23.3057334 18.3463495,23.287521 18.3068214,23.2753844 L13.5528849,22.2788657 L13.5203904,22.2788657 C13.2202681,22.1720118 12.9100612,22.0944092 12.5942989,22.047191 C11.5967196,21.8377316 10.5991403,21.6155778 9.60156098,21.4124657 C9.06946664,21.2647426 8.52617692,21.1586199 7.97683899,21.095103 C7.28844445,20.8654968 6.77798472,20.2943431 6.63806807,19.5971513 C6.63806807,19.5558942 6.63806807,19.514637 6.63806807,19.4733799 C6.63806807,15.8152465 6.63806807,12.1581709 6.63806807,8.50215319 C6.62700227,7.94729417 6.86433263,7.41532956 7.28795687,7.04545863 C7.73313069,6.63288719 8.30503284,6.56306741 8.85743831,6.43294873 C9.61455876,6.3218718 10.3619309,6.14414872 11.1060535,5.96642563 C11.1471377,5.96900047 11.1880234,5.95901754 11.2230335,5.937863 L13.8810787,5.39517287 C14.3554975,5.3031377 14.8364152,5.23649154 15.3010857,5.10954649 C15.5285468,5.04924758 15.7982506,5.10954649 15.9802195,4.89691351 L16.2239278,4.89691351 L16.6171105,4.83978824 C16.7765392,4.85323009 16.9356237,4.81044633 17.0655338,4.71919043 L17.6374359,4.59224537 C17.8619525,4.61747357 18.0889622,4.57423954 18.2873247,4.46847394 L18.4757925,4.40500141 C18.5992714,4.40500141 18.6025208,4.31296624 18.618768,4.23045195 C18.7917705,3.82703569 18.8928768,3.39769985 18.9177169,2.96100136 C19.086688,2.25962991 19.2621579,1.5868211 19.4343785,0.888623276 L19.4928685,0.571260629 L19.6130979,0.317370511 C19.7853184,7.86359477e-06 19.5416101,7.86359477e-06 19.3303963,7.86359477e-06 L7.33344909,7.86359477e-06 C7.08949636,-0.000457324203 6.84596089,0.0197177236 6.60557363,0.0603067666 C5.92736291,0.134298409 5.26757642,0.323320077 4.65590725,0.618865026 C4.68067409,0.640909145 4.71092416,0.656228392 4.74364223,0.663295797 C4.3569584,0.847366132 3.97352401,1.0473046 3.58684018,1.25041669 C3.5476303,1.22830706 3.49932174,1.22830706 3.46011186,1.25041669 C3.28139244,1.38053538 3.09942358,1.50748044 2.9304525,1.64712 C2.4330858,2.00103368 2.00400038,2.4383748 1.66316934,2.93878598 C1.40795792,3.21905907 1.19463009,3.53318732 1.02952777,3.87183216 C0.994343732,3.89243284 0.963471813,3.91935392 0.938543336,3.95117282 C0.34249607,5.00056165 0.0241709579,6.1787007 0.0124518026,7.37868941 C0.0124518026,11.4250632 0.0124518026,15.4460479 0.0124518026,19.4797272 C-0.0239887081,20.1657176 0.0196177477,20.8535301 0.142429562,21.5298899 C0.142429562,21.5298899 0.142429562,21.5521052 0.168425114,21.5521052 C0.162266666,21.7433098 0.204689142,21.9330278 0.291903985,22.1043163 C0.363391752,22.148747 0.483621179,22.1836569 0.321148981,22.2693448 C0.321148981,22.2693448 0.321148981,22.2693448 0.321148981,22.2947338 C0.317597691,22.3122895 0.323770129,22.3303748 0.3373962,22.3423382 C0.48863086,22.7770052 0.669934232,23.2011325 0.880053345,23.6117888 C0.994619659,23.8452712 1.12488208,24.0710921 1.26998662,24.2877713 C1.81932657,25.0908606 2.51682174,25.787148 3.32688466,26.3411076 C3.97525686,26.7952317 4.70318956,27.1297324 5.47476713,27.3281054 C5.44579758,27.3451342 5.43136337,27.3784554 5.43902325,27.4106197 C6.0356151,27.5947296 6.6559514,27.6951724 7.28145798,27.7089406 C11.2945213,27.7089406 15.3108341,27.7089406 19.3238974,27.7089406 C19.4376279,27.7089406 19.5676057,27.7343296 19.6130979,27.5819955 C19.6419562,27.4248242 19.6005605,27.2631049 19.4993673,27.1376878 L19.5091157,27.128167 Z M18.5635275,23.6943031 C18.5915755,23.738884 18.6134299,23.7869092 18.6285164,23.8371163 C18.592203,23.7972528 18.5694901,23.7473411 18.5635275,23.6943031 Z" id="Shape"></path>
                            </g>
                        </g>
                    </g>
                </g>
            </g>
        </g>
    </g>
</svg>