<svg xmlns="http://www.w3.org/2000/svg" viewBox="0 0 88.5 88.5">
	<defs>
		<style>.cls-1{fill:#fff;}</style>
	</defs>
	<title>Asset 1</title>
	<g id="Layer_2" data-name="Layer 2">
		<g id="Layer_1-2" data-name="Layer 1">
			<g id="Layer_2-2" data-name="Layer 2">
				<g id="Layer_1-2-2" data-name="Layer 1-2">
					<path class="cls-1" d="M44.25,0A44.25,44.25,0,1,0,88.5,44.25,44.25,44.25,0,0,0,44.25,0ZM23,64.88a8.89,8.89,0,0,1-5.13-5,8.51,8.51,0,0,1,.33-7.1,9.4,9.4,0,0,1,4.51-4.42,24.83,24.83,0,0,1,5.59-1.74c4.31-1,7.71-1.77,8.21-6.72V31.81a1,1,0,1,1,2,0V40h0v0c-.63,6.4-5.47,7.51-9.74,8.49a24.55,24.55,0,0,0-5.17,1.59A7.42,7.42,0,0,0,20,53.64a6.53,6.53,0,0,0-.28,5.48A7,7,0,0,0,23.61,63a4.61,4.61,0,0,0,1.51.26,4.5,4.5,0,0,0,4.24-3A3.4,3.4,0,0,0,27.3,56a2.49,2.49,0,0,0-1.93.09,2.55,2.55,0,0,0-1.29,1.43,1,1,0,0,1-.51.56,1,1,0,0,1-.76,0,1,1,0,0,1-.56-.51,1,1,0,0,1,0-.76A4.52,4.52,0,0,1,28,54.08,5.37,5.37,0,0,1,31.24,61v0A6.5,6.5,0,0,1,23,64.88Zm13.34-42.1A2.25,2.25,0,1,1,38.62,25h-.09a2.24,2.24,0,0,1-2.24-2.22Zm6.52,45.6A8.86,8.86,0,0,1,34,77.23,7.29,7.29,0,0,1,26.67,70a6,6,0,0,1,6-6,5,5,0,0,1,5,5,4.23,4.23,0,0,1-4.21,4.21,1,1,0,1,1,0-2A2.22,2.22,0,0,0,35.73,69v0a3,3,0,0,0-3-3,4,4,0,0,0-4,4A5.3,5.3,0,0,0,34,75.25a6.89,6.89,0,0,0,6.87-6.87V57a6,6,0,0,1-4.07,1.59,5.05,5.05,0,0,1-5-5A4.25,4.25,0,0,1,36,49.36a3.59,3.59,0,0,1,3.59,3.58A3.08,3.08,0,0,1,36.52,56h-.06a1,1,0,0,1,0-2,1.08,1.08,0,0,0,1.08-1.08h0a1.6,1.6,0,0,0-1.6-1.6,2.25,2.25,0,0,0-2.25,2.25,3.06,3.06,0,0,0,3.06,3.06h0a4.07,4.07,0,0,0,4.07-4.07V35.05a1,1,0,0,1,2,0ZM54.6,77.23a8.86,8.86,0,0,1-8.86-8.85V35.05a1,1,0,0,1,2,0V52.56a4.07,4.07,0,0,0,4.07,4.07,3.06,3.06,0,0,0,3.06-3.06h0a2.25,2.25,0,0,0-2.25-2.25,1.6,1.6,0,0,0-1.6,1.6A1.09,1.09,0,0,0,52,54a1,1,0,0,1,0,2,3.08,3.08,0,0,1-3-3.08,3.59,3.59,0,0,1,3.59-3.58,4.25,4.25,0,0,1,4.23,4.23,5.05,5.05,0,0,1-5,5A6,6,0,0,1,47.68,57V68.38a6.89,6.89,0,0,0,6.87,6.87A5.31,5.31,0,0,0,59.84,70a4,4,0,0,0-4-4,3,3,0,0,0-3,3A2.23,2.23,0,0,0,55,71.17a1,1,0,0,1,0,2A4.22,4.22,0,0,1,50.79,69a5,5,0,0,1,5-5,6,6,0,0,1,6,6,7.27,7.27,0,0,1-7.24,7.23ZM46.14,22.78A2.25,2.25,0,1,1,48.42,25h0A2.25,2.25,0,0,1,46.14,22.78ZM70.68,59.91a8.89,8.89,0,0,1-5.13,5A6.49,6.49,0,0,1,57.27,61a5.37,5.37,0,0,1,3.26-6.87A4.42,4.42,0,0,1,64,54.3a4.48,4.48,0,0,1,2.32,2.55,1,1,0,0,1,0,.76,1,1,0,0,1-.56.51,1,1,0,0,1-.76,0,1,1,0,0,1-.51-.56A2.53,2.53,0,0,0,63.12,56a2.46,2.46,0,0,0-1.92,0,3.39,3.39,0,0,0-2.06,4.34A4.5,4.5,0,0,0,64.88,63a7,7,0,0,0,4-3.85,6.53,6.53,0,0,0-.28-5.48,7.38,7.38,0,0,0-3.6-3.5,24.64,24.64,0,0,0-5.16-1.59c-4.28-1-9.12-2.09-9.75-8.49V40h0V31.81a1,1,0,0,1,2,0v8.12c.5,5,3.9,5.73,8.2,6.71a25.46,25.46,0,0,1,5.6,1.75,9.4,9.4,0,0,1,4.51,4.42A8.48,8.48,0,0,1,70.68,59.91ZM64.81,45.18A10.58,10.58,0,0,1,54.24,34.62V21.92a10,10,0,0,0-20,0v12.7A10.59,10.59,0,0,1,23.69,45.18,8.66,8.66,0,0,1,15,36.55v0a7.14,7.14,0,0,1,7.12-7.12A5.91,5.91,0,0,1,28,35.31a4.91,4.91,0,0,1-4.91,4.91,1,1,0,0,1,0-2A2.94,2.94,0,0,0,26,35.29a3.92,3.92,0,0,0-3.91-3.91A5.14,5.14,0,0,0,17,36.53a6.67,6.67,0,0,0,6.67,6.67,8.59,8.59,0,0,0,8.58-8.58V21.92a12,12,0,1,1,24,0v12.7a8.59,8.59,0,0,0,8.58,8.58,6.67,6.67,0,0,0,6.67-6.67,5.15,5.15,0,0,0-5.14-5.13,3.92,3.92,0,0,0-3.91,3.91,2.94,2.94,0,0,0,2.93,2.93,1,1,0,0,1,0,2,4.91,4.91,0,0,1-4.91-4.91,5.91,5.91,0,0,1,5.89-5.9,7.14,7.14,0,0,1,7.12,7.12A8.67,8.67,0,0,1,64.81,45.18Z"/>
				</g>
			</g>
		</g>
	</g>
</svg>
