<?xml version="1.0" encoding="UTF-8"?>
<svg width="195px" height="118px" viewBox="0 0 195 118" version="1.1" xmlns="http://www.w3.org/2000/svg" xmlns:xlink="http://www.w3.org/1999/xlink">
    <!-- Generator: Sketch 50.2 (55047) - http://www.bohemiancoding.com/sketch -->
    <title>Alibaba Cloud</title>
    <desc>Created with Sketch.</desc>
    <defs></defs>
    <g id="Project-Kitsune-" stroke="none" stroke-width="1" fill="none" fill-rule="evenodd">
        <g id="Live-sites--Alicloud" transform="translate(-924.000000, -658.000000)" fill-rule="nonzero">
            <g id="All-live-sites" transform="translate(-0.200000, -0.400000)">
                <g id="Alicloud-Tab" transform="translate(258.600000, 375.800000)">
                    <g id="Alicloud-Zeroth" transform="translate(0.008373, 124.390414)">
                        <g id="Alibaba-Cloud" transform="translate(666.000000, 159.000000)">
                            <path d="M156.27215,45.2186909 C150.660768,20.5686909 126.611988,0.603306258 96.951825,0.603306258 C73.7046705,0.603306258 53.6640201,12.2033063 44.0445079,29.6033063 C19.1941014,32.5033063 0.756703061,50.6283063 0.756703061,73.1033063 C0.756703061,97.0283063 22.4006055,116.603306 48.854264,116.603306 L153.065646,116.603306 C175.511175,116.603306 193.146947,100.653306 193.146947,80.3533063 C193.146947,61.5033063 176.312801,46.6686909 156.27215,45.2186909 Z" id="Shape" stroke="#DEDEDE" stroke-width="0.900000036" fill="#FBFBFB" stroke-dasharray="5.400000214576721,5.400000214576721"></path>
                            <g id="AWS" transform="translate(67.000000, 51.000000)">
                                <path d="M29.395205,4.59562753 C28.712246,7.40900231 28.0606416,10.0911593 27.4102396,12.7734989 C27.1278624,13.9380224 26.850387,15.1038243 26.56616,16.2679826 C26.3661003,17.0874316 26.1417152,17.2608363 25.2864441,17.2685066 C24.8857698,17.2720678 24.4850031,17.270059 24.0843288,17.2688718 C23.1657932,17.2657672 22.9775726,17.1294358 22.7069417,16.2509981 C21.6530907,12.8308439 20.6001646,9.41032443 19.5494583,5.98925706 C19.1353728,4.64110175 18.718235,3.29376827 18.3209829,1.94068201 C18.1066796,1.21062907 18.2497643,1.04754282 19.0284523,1.04672099 C19.4907261,1.04626443 19.9531849,1.04279451 20.4154586,1.04781676 C21.1750933,1.0561263 21.3965186,1.20533287 21.5909362,1.9385818 C22.1235038,3.9470264 22.6379428,5.9602193 23.1586714,7.97185989 C23.6641388,9.92460313 24.1684038,11.8776204 24.6784958,13.8511831 C24.8938166,13.7418806 24.8507155,13.5259237 24.8874347,13.3738864 C25.7960736,9.61386265 26.6917637,5.8507342 27.5900436,2.08833625 C27.8031446,1.19583625 27.9870181,1.05128668 28.9196125,1.04708625 C29.3665326,1.04516866 29.8140077,1.0347589 30.2602804,1.05256507 C30.9251111,1.07895473 31.1368247,1.23847974 31.2951706,1.8719228 C31.6150995,3.15232335 31.9156052,4.43756354 32.2224928,5.72106875 C32.8820515,8.47938137 33.5405003,11.2378766 34.2031112,14.0121692 C34.4092753,13.9251472 34.3732035,13.7241657 34.4099227,13.5851863 C35.4135507,9.78735866 36.4071895,5.98697422 37.4009209,2.18668109 C37.6647999,1.17729957 37.8325799,1.04736019 38.9012296,1.04672099 C39.3327036,1.04644705 39.7642701,1.05028223 40.1957441,1.0460818 C40.6149167,1.04197268 40.7904661,1.24724586 40.729144,1.64783901 C40.7017665,1.82663122 40.6571854,2.0046016 40.6023378,2.17736709 C39.1070237,6.88970135 37.6096748,11.6013964 36.1119558,16.3130002 C35.8503892,17.1358278 35.6707702,17.2648541 34.7860866,17.2687806 C34.3545202,17.2706069 33.9229537,17.2743507 33.4915722,17.2675022 C32.7126991,17.2551748 32.4936787,17.0863358 32.3070303,16.330989 C31.3822978,12.5908715 30.4618199,8.84956706 29.5390297,5.10899309 C29.5067501,4.97795795 29.4665162,4.8489317 29.395205,4.59562753" id="Fill-4" fill="#253140"></path>
                                <path d="M10.182079,9.83158187 C9.79842321,9.85267534 9.41319508,9.85924992 9.03129665,9.89732773 C6.96974805,10.1025096 5.90516802,11.60672 6.40897058,13.5887749 C6.62863848,14.4532416 7.18386646,15.004959 8.05652611,15.1764461 C9.49690011,15.4596098 10.8368281,15.1653058 12.0271969,14.313897 C12.7669459,13.7848254 13.2170108,13.055503 13.3418746,12.1516801 C13.4125383,11.6399582 13.4240073,11.1240359 13.4422282,10.6078395 C13.4529572,10.3025779 13.3188442,10.2186606 13.063382,10.1709036 C12.1109944,9.99293316 11.1544448,9.85651051 10.182079,9.83158187 M13.6039962,15.1561744 C12.5435784,16.3604194 11.3007667,17.186717 9.7493101,17.5064062 C8.60231992,17.7428173 7.44941027,17.7660109 6.32323072,17.4291548 C3.88292842,16.6993758 2.86024715,14.5585263 3.12551348,12.1840964 C3.41704748,9.5736207 5.55083213,8.11552371 7.83898551,7.78505947 C9.55729723,7.53686886 11.246289,7.74826006 12.9220546,8.11543239 C13.2887844,8.19578845 13.4842194,8.20437193 13.4418582,7.72944943 C13.3892304,7.14065876 13.4347363,6.5465719 13.3676798,5.95376343 C13.1617007,4.13196401 12.2291064,3.26311425 10.3660451,3.12842657 C8.63691183,3.00332681 7.00757718,3.36675529 5.42152867,4.00275515 C4.31893452,4.44489603 4.24669846,4.35513467 4.17584978,3.17481392 C4.12442437,2.31719575 4.46988105,1.87432436 5.24671926,1.56367519 C7.58925779,0.626979358 9.98433163,0.273960636 12.46829,0.836270334 C14.8616066,1.37803445 16.236219,3.00643148 16.4072362,5.4345538 C16.5656745,7.68333602 16.4754025,9.93540554 16.4671708,12.1853748 C16.4630087,13.3256089 16.6702827,14.378821 17.2392919,15.3716747 C17.5327682,15.8836705 17.4615496,16.1203557 16.9857721,16.4445192 C16.6314362,16.6858613 16.2730306,16.9221812 15.9069483,17.145991 C15.4741794,17.4104354 15.1542505,17.3646873 14.7921452,17.0078334 C14.2722491,16.4954723 13.9759055,15.83984 13.6039962,15.1561744" id="Fill-6" fill="#253040"></path>
                                <path d="M47.6473788,17.7420777 C46.0826959,17.7118528 44.562409,17.4585487 43.100022,16.8841855 C42.343347,16.5870508 41.9585813,16.1229947 42.0044573,15.259441 C42.069109,14.0416817 42.1313559,13.9701831 43.2690045,14.4287604 C45.1896881,15.2030092 47.1670692,15.5296383 49.2231608,15.0846667 C49.8837369,14.9417607 50.4695796,14.6352207 50.8608197,14.0609489 C51.4923533,13.1339323 51.2124734,11.9334313 50.2299335,11.3278388 C49.4373717,10.8393106 48.5331723,10.6328504 47.6594953,10.3504171 C46.6982285,10.0395854 45.7081968,9.80892695 44.8015927,9.34624049 C42.187036,8.01169091 41.3914219,4.93798082 43.1052016,2.76416712 C43.9880352,1.64429604 45.1840461,1.03779052 46.5682776,0.753987569 C48.4810995,0.361886587 50.335929,0.630348834 52.1446052,1.27456691 C53.2660677,1.67397299 53.6508333,2.50949325 53.2908554,3.64479635 C53.171541,4.02100874 52.8851866,4.00621593 52.5795014,3.88632106 C51.837625,3.59530433 51.0993559,3.2929647 50.302447,3.17480479 C49.0912676,2.99528208 47.8843427,2.92414871 46.693049,3.30492679 C45.8904056,3.56142695 45.3674573,4.06063889 45.2730232,4.91633947 C45.1745194,5.80838291 45.582963,6.44438275 46.3573039,6.85912952 C47.500132,7.47111387 48.7707836,7.74158503 49.98927,8.15067035 C50.5705806,8.34589901 51.1521687,8.53473573 51.7100789,8.7933361 C54.8265884,10.23801 54.8358376,13.9133859 52.964637,15.8484143 C51.9032017,16.9460962 50.5566144,17.4412903 49.0761914,17.6473854 C48.6041136,17.7131312 48.1282435,17.7706588 47.6473788,17.7420777" id="Fill-8" fill="#253040"></path>
                                <path d="M29.7717667,33.5860712 C18.5853521,33.5887192 9.88816796,30.3563059 2.3031046,24.1148326 C1.88911153,23.7742326 1.49454172,23.4102562 1.09664222,23.0509368 C0.847654431,22.8262138 0.615685124,22.5670657 0.87086986,22.2279266 C1.12411227,21.8913443 1.43738182,22.0290453 1.73215303,22.199802 C3.92115526,23.4679665 6.18637068,24.5828153 8.53797341,25.5288251 C12.5054995,27.1247145 16.6046413,28.2381023 20.8363238,28.9029572 C24.4250962,29.4668193 28.0346792,29.6709967 31.6561011,29.4957658 C37.4683752,29.2146109 43.0923359,28.008631 48.5178095,25.9212 C49.0752572,25.7067042 49.6246582,25.4721193 50.176834,25.2445657 C50.4075083,25.1494167 50.6429923,25.0961809 50.8954024,25.1213835 C51.213944,25.152978 51.4423061,25.3068416 51.5778065,25.5927447 C51.718394,25.8895142 51.6431057,26.1581591 51.4474856,26.3980401 C51.202475,26.6986448 50.8668224,26.8954258 50.5529055,27.113209 C46.8209559,29.7017694 42.6787129,31.3752754 38.2708336,32.4419106 C35.0609074,33.2186248 31.8135221,33.7015829 29.7717667,33.5860712 Z M51.1226454,23.3581344 C49.6508241,23.3904594 48.3935838,23.4856996 47.1420779,23.6549039 C47.0204513,23.6713403 46.8966048,23.6759973 46.7735908,23.6781889 C46.563727,23.6818414 46.30549,23.7527921 46.2129058,23.4917263 C46.1144946,23.2144066 46.316959,23.0313227 46.5218282,22.8901517 C47.6370937,22.1214731 48.889247,21.6828021 50.2158562,21.4419166 C51.9577533,21.1254233 53.7014078,21.0910894 55.4374779,21.4856559 C56.5644899,21.7417907 56.782308,21.9639569 56.7208934,23.1083001 C56.5669871,25.9745455 55.5675213,28.5154403 53.5807986,30.6442363 C53.3941502,30.8442132 53.1774421,31.0204486 52.9577741,31.1859091 C52.7726982,31.3252537 52.5546951,31.4455139 52.3275354,31.2739354 C52.101763,31.1035442 52.2169152,30.8858523 52.2964581,30.692176 C52.8269908,29.4016396 53.3409675,28.1053505 53.7238833,26.7627653 C53.9029474,26.1347097 54.0617556,25.502819 54.0753519,24.844356 C54.0932028,23.9838158 53.8384806,23.6684183 52.9822844,23.4959268 C52.2986779,23.3581344 51.6054523,23.3679963 51.1226454,23.3581344 Z" id="Combined-Shape" fill="#F79A1E"></path>
                            </g>
                        </g>
                    </g>
                </g>
            </g>
        </g>
    </g>
</svg>