<?xml version="1.0" encoding="UTF-8"?>
<svg width="60px" height="36px" viewBox="0 0 60 36" version="1.1" xmlns="http://www.w3.org/2000/svg" xmlns:xlink="http://www.w3.org/1999/xlink">
    <!-- Generator: Sketch 50.2 (55047) - http://www.bohemiancoding.com/sketch -->
    <title>Group</title>
    <desc>Created with Sketch.</desc>
    <defs></defs>
    <g id="Project-Kitsune-" stroke="none" stroke-width="1" fill="none" fill-rule="evenodd">
        <g id="List-view-of-Projects---live-site-info-modal--context" transform="translate(-691.000000, -663.000000)">
            <g id="All-live-sites" transform="translate(-0.200000, -0.400000)">
                <g id="Customer-info-modal">
                    <g id="Hosting-card" transform="translate(664.000000, 630.000000)">
                        <g id="Group" transform="translate(28.000000, 34.000000)">
                            <path d="M30.1423211,4.26595856 C29.4234168,7.24482597 28.7375175,10.0847569 28.0528838,12.9248812 C27.7556446,14.1579061 27.4635653,15.3922845 27.1643789,16.6249227 C26.9537898,17.4925746 26.717595,17.6761796 25.8173096,17.6843011 C25.3955472,17.6880718 24.9736875,17.6859448 24.5519251,17.6846878 C23.5850455,17.6814006 23.3869185,17.5370497 23.1020439,16.6069392 C21.9927271,12.9855994 20.8843838,9.36387293 19.7783772,5.7415663 C19.3424977,4.31410773 18.9034053,2.88751934 18.4852452,1.45483978 C18.2596627,0.681842541 18.4102782,0.509162983 19.2299498,0.508292818 C19.7165538,0.507809392 20.2033525,0.504135359 20.6899564,0.509453039 C21.4895719,0.518251381 21.7226512,0.676234807 21.9273013,1.45261602 C22.4878987,3.57920442 23.0294135,5.71082044 23.5775488,7.84079282 C24.1096198,9.90840331 24.6404251,11.9763039 25.177364,14.0659586 C25.4040175,13.9502265 25.3586479,13.7215663 25.3972997,13.5605856 C26.3537617,9.57938398 27.2965934,5.59489503 28.2421512,1.61117956 C28.466468,0.666179558 28.6600191,0.513127072 29.6416974,0.508679558 C30.1121396,0.506649171 30.583166,0.495627072 31.0529267,0.514480663 C31.7527485,0.542422652 31.975605,0.711331492 32.1422848,1.38203591 C32.4790521,2.73775414 32.7953739,4.09859669 33.1184135,5.45760221 C33.8126858,8.37816851 34.5057898,11.2989282 35.2032749,14.2364144 C35.4202898,14.1442735 35.3823195,13.9314696 35.4209713,13.7843149 C36.4774218,9.76308564 37.5233574,5.73914917 38.5693904,1.71530939 C38.8471578,0.646552486 39.0237683,0.508969613 40.1486627,0.508292818 C40.6028459,0.508002762 41.0571264,0.512063536 41.5113096,0.507616022 C41.9525439,0.503265193 42.1373327,0.72061326 42.0727832,1.14477072 C42.0439647,1.33408011 41.9970373,1.52251934 41.939303,1.70544751 C40.3652881,6.6949779 38.7891314,11.6838315 37.2125851,16.6725884 C36.9372518,17.5438177 36.7481792,17.6804337 35.8169333,17.6845912 C35.3626528,17.6865249 34.9083723,17.690489 34.4542865,17.6832376 C33.6344201,17.6701851 33.4038723,17.4914144 33.2074003,16.6916354 C32.2339977,12.731511 31.2650736,8.77012983 30.2937155,4.8095221 C30.259737,4.67077901 30.2173855,4.53416298 30.1423211,4.26595856" id="Fill-4" fill="#253140"></path>
                            <path d="M9.91797789,9.80991022 C9.5141297,9.83224448 9.1086264,9.8392058 8.70662805,9.87952348 C6.5365769,10.0967749 5.41596634,11.6894682 5.94628482,13.7881146 C6.17751419,14.7034323 6.76196469,15.2876036 7.6805538,15.4691782 C9.19673696,15.7689986 10.6071875,15.4573826 11.8602073,14.5558909 C12.6388904,13.9956975 13.1126429,13.2234738 13.2440785,12.2664848 C13.3184614,11.7246616 13.330534,11.1783909 13.3497139,10.6318301 C13.3610076,10.3086119 13.219836,10.2197583 12.9509284,10.169192 C11.9484152,9.98075276 10.9415208,9.83630525 9.91797789,9.80991022 M13.519996,15.4477141 C12.4037667,16.722797 11.0955439,17.5977003 9.46243168,17.9361948 C8.2550736,18.1865124 7.04148449,18.2110704 5.85603234,17.8543992 C3.28729307,17.081692 2.21078647,14.8149102 2.49001419,12.300808 C2.79689208,9.53677486 5.04298119,7.99290746 7.4515637,7.64300414 C9.26031287,7.38021409 11.038199,7.60404006 12.8021627,7.99281077 C13.1881941,8.07789365 13.3939152,8.08698204 13.3493244,7.58412293 C13.2939267,6.96069751 13.3418277,6.33166436 13.2712419,5.70398481 C13.0544218,3.77502072 12.0727436,2.85506215 10.1116264,2.71245166 C8.29148614,2.57999309 6.57639703,2.96479972 4.90687228,3.63821133 C3.74624686,4.1063605 3.67020891,4.01131906 3.59563135,2.76156768 C3.54149934,1.85350138 3.90513795,1.38457873 4.72286238,1.05565608 C7.18869241,0.0638604972 9.70982277,-0.309924033 12.3245158,0.285462707 C14.8437964,0.859095304 16.2907568,2.58328039 16.4707749,5.15423343 C16.6375521,7.53529696 16.542529,9.91984116 16.533864,12.3021616 C16.5294828,13.5094682 16.747666,14.624634 17.3466231,15.6758909 C17.6555455,16.2180041 17.5805785,16.4686119 17.0797601,16.8118439 C16.7067749,17.0673826 16.3295059,17.3176036 15.9441561,17.5545787 C15.4886099,17.8345787 15.1518426,17.7861395 14.7706792,17.4082942 C14.2234201,16.8657942 13.9114795,16.1715953 13.519996,15.4477141" id="Fill-6" fill="#253040"></path>
                            <path d="M49.3551356,18.1857293 C47.708101,18.1537265 46.107799,17.8855221 44.5684442,17.2773729 C43.7719442,16.9627597 43.3669277,16.4714061 43.4152182,15.5570552 C43.4832726,14.267663 43.5487957,14.1919586 44.7463205,14.677511 C46.7680927,15.4973039 48.8495465,15.8431464 51.0138535,15.372 C51.7091967,15.2206878 52.3258733,14.896116 52.737705,14.2880635 C53.4024772,13.3065166 53.1078667,12.0353978 52.0736142,11.3941823 C51.2393386,10.8769171 50.2875498,10.6583122 49.3678898,10.3592652 C48.35603,10.0301492 47.3138914,9.78592265 46.3595713,9.29601934 C43.6074063,7.88296685 42.7699178,4.62845028 44.5738964,2.32676519 C45.503195,1.14101934 46.7621538,0.498837017 48.2192396,0.198339779 C50.2327363,-0.216825967 52.1851884,0.0674281768 54.0890581,0.749541436 C55.2695449,1.17244199 55.6745614,2.0571105 55.2956373,3.25919613 C55.1700432,3.65753867 54.8686175,3.64187569 54.5468436,3.51492818 C53.7659211,3.20679282 52.9887957,2.88666851 52.1499442,2.76155801 C50.8750185,2.57147514 49.6045713,2.49615746 48.3505779,2.89933425 C47.5056901,3.17092265 46.9552182,3.6995 46.8558139,4.60553591 C46.7521257,5.55005249 47.1820663,6.22346409 47.997162,6.66260773 C49.2001389,7.31059116 50.537667,7.59697238 51.8202842,8.03012155 C52.4321901,8.23683425 53.0443881,8.43677901 53.631662,8.71059116 C56.9121983,10.2402459 56.9219343,14.1318204 54.9522495,16.180674 C53.8349492,17.3429254 52.4174888,17.8672486 50.8591488,18.0854669 C50.3622248,18.1550801 49.8613089,18.2159917 49.3551356,18.1857293" id="Fill-8" fill="#253040"></path>
                            <path d="M30.5387018,34.9617224 C18.7635285,34.9645262 9.60859785,31.541971 1.62432063,24.9333522 C1.18853845,24.5727169 0.773201815,24.1873301 0.354360231,23.8068743 C0.0922678218,23.5689323 -0.151910396,23.2945401 0.116705116,22.9354517 C0.383276073,22.5790704 0.713033498,22.7248715 1.02331898,22.9056727 C3.32753185,24.2484351 5.71196914,25.4288633 8.18734043,26.4305207 C12.3636837,28.1202859 16.6785698,29.2991671 21.1329724,30.0031312 C24.9106276,30.6001616 28.7101886,30.8163494 32.5222117,30.6308108 C38.6403949,30.3331174 44.5603536,29.0561975 50.2713784,26.8459765 C50.8581655,26.6188633 51.4364823,26.3704793 52.01772,26.1295401 C52.2605351,26.0287942 52.508413,25.9724268 52.7741078,25.9991119 C53.1094147,26.0325649 53.3497959,26.1954793 53.4924279,26.4982003 C53.6404147,26.8124268 53.5611639,27.0968743 53.355248,27.350866 C53.0973421,27.6691533 52.7440236,27.8775097 52.4135847,28.1081036 C48.4852167,30.8489323 44.1249609,32.6208798 39.485088,33.7502583 C36.1062183,34.5726616 32.687918,35.084029 30.5387018,34.9617224 Z M53.0133109,24.1321423 C51.4640254,24.1663688 50.1406145,24.2672113 48.8232399,24.4463688 C48.6952119,24.4637721 48.5648472,24.468703 48.4353587,24.4710235 C48.2144495,24.4748909 47.9426211,24.5500152 47.845164,24.2735925 C47.7415733,23.9799599 47.9546937,23.7861064 48.1703455,23.6366312 C49.3443092,22.8227362 50.6623653,22.358261 52.058796,22.1032058 C53.8923719,21.7680953 55.7277977,21.7317417 57.5552399,22.149518 C58.7415683,22.4207196 58.9708505,22.6559544 58.9062036,23.8676119 C58.744197,26.9024599 57.6921277,29.5928191 55.6008406,31.8468384 C55.4043686,32.0585787 55.1762548,32.2451809 54.9450254,32.4203743 C54.7502086,32.5679157 54.5207317,32.69525 54.2816162,32.5135787 C54.0439611,32.3331644 54.1651739,32.1026671 54.2489033,31.8975981 C54.8073587,30.5311478 55.3483868,29.1586064 55.7514561,27.7370456 C55.9399446,27.0720456 56.1071112,26.4029848 56.1214231,25.7057887 C56.1402135,24.7946285 55.8720848,24.4606782 54.9708257,24.2780401 C54.2512399,24.1321423 53.5215287,24.1425843 53.0133109,24.1321423 Z" id="Combined-Shape" fill="#F79A1E"></path>
                        </g>
                    </g>
                </g>
            </g>
        </g>
    </g>
</svg>