<svg xmlns="http://www.w3.org/2000/svg" viewBox="0 0 455 352.07"><defs><style>.cls-1{fill:#1a74bb;}</style></defs><title>Asset 3</title><g id="Layer_2" data-name="Layer 2"><g id="Layer_1-2" data-name="Layer 1"><path class="cls-1" d="M121.82,274.78q43.56-93.4,87-186.84c13.06-28.17,26.78-56,39-84.62C249,2.54,250,1.34,249,.21c-.66-.73-1.59.62-2.22,1.33h0l-2,1.82L191.88,47.8c-.07,0-.13.06-.2.15-3.47,2.64-7.05,5.15-9.91,8.5h0a27.11,27.11,0,0,0-7.28,6h0q-21.28,17.73-42.56,35.48c-5.74,4.8-12.9,8.77-16.73,14.82C104,130.43,94.13,149,83.74,167.15a23,23,0,0,0-4.28,7.32h0a28.43,28.43,0,0,0-1.72,2.4q-24.09,41.67-48.13,83.36C20.25,276.5,11,292.85,1.73,309.16c-.9.94-2.22,2-1.54,3.32s2.42.68,3.68.68q47.87,0,95.73,0c1.46,0,3.39.91,4.42-1.13a9.12,9.12,0,0,0,2.23-4.31h0C111.44,296.71,116.7,285.78,121.82,274.78Z"/><path class="cls-1" d="M452.07,346.39l.07,0a19.8,19.8,0,0,0-4.15-7.21h0q-12.25-22.73-25.7-44.75a23.07,23.07,0,0,0-4.32-7.2h0c-8.35-15.93-17.6-31.34-26.82-46.77a12.31,12.31,0,0,0-3.16-5.26h0c-9.49-16.69-18.93-33.42-28.49-50.07-9.65-16.83-19.43-33.59-29.13-50.39q-25.08-43.41-50.14-86.85Q273.34,36,266.48,24.15c-1.39.62-1.41,1.51-1.69,2.28q-15,41.26-30,82.52-12.51,34.45-25,68.93c-.72,2-1.79,3.86.08,6,8.29,9.55,16.45,19.2,24.66,28.81a19.72,19.72,0,0,0,5.24,6.18h0a10.53,10.53,0,0,0,.95,1.71q32.06,38.24,64.1,76.49c4.6,5.52,9.7,10.69,13.76,17.05-7,1.21-13.38,2.28-19.75,3.44q-18.6,3.4-37.17,6.89a139.93,139.93,0,0,0-22.15,4h0a154.66,154.66,0,0,0-22.73,3.88l-21.91,3.48c-4.08,1.09-8.43,1-12.38,2.65h0a41.08,41.08,0,0,0-11.68,2c-7.44.86-14.85,1.84-22.05,4h0l.06-.07c-3.69-.1-7.21.93-10.77,1.64h0l-12.44,2.38-8.73,1.31h0l-6.9.91c1.35,1.77,3.16.85,4.81.85.16.45.9.65,1.51.59H449c1.5,0,3,0,4.5,0,1,0,1.55-.46,1.52-1.5Z"/></g></g></svg>