<?xml version="1.0" encoding="UTF-8"?>
<svg width="195px" height="118px" viewBox="0 0 195 118" version="1.1" xmlns="http://www.w3.org/2000/svg" xmlns:xlink="http://www.w3.org/1999/xlink">
    <!-- Generator: Sketch 50.2 (55047) - http://www.bohemiancoding.com/sketch -->
    <title>Alibaba Cloud</title>
    <desc>Created with Sketch.</desc>
    <defs></defs>
    <g id="Project-Kitsune-" stroke="none" stroke-width="1" fill="none" fill-rule="evenodd">
        <g id="Live-sites--Alicloud" transform="translate(-924.000000, -658.000000)" fill-rule="nonzero">
            <g id="All-live-sites" transform="translate(-0.200000, -0.400000)">
                <g id="Alicloud-Tab" transform="translate(258.600000, 375.800000)">
                    <g id="Alicloud-Zeroth" transform="translate(0.008373, 124.390414)">
                        <g id="Alibaba-Cloud" transform="translate(666.000000, 159.000000)">
                            <path d="M156.27215,45.2186909 C150.660768,20.5686909 126.611988,0.603306258 96.951825,0.603306258 C73.7046705,0.603306258 53.6640201,12.2033063 44.0445079,29.6033063 C19.1941014,32.5033063 0.756703061,50.6283063 0.756703061,73.1033063 C0.756703061,97.0283063 22.4006055,116.603306 48.854264,116.603306 L153.065646,116.603306 C175.511175,116.603306 193.146947,100.653306 193.146947,80.3533063 C193.146947,61.5033063 176.312801,46.6686909 156.27215,45.2186909 Z" id="Shape" stroke="#DEDEDE" stroke-width="0.900000036" fill="#FBFBFB" stroke-dasharray="5.400000214576721,5.400000214576721"></path>
                            <g id="Azure" transform="translate(74.000000, 47.000000)" fill="#1A74BB">
                                <path d="M12.0217105,27.2444759 C14.8875,21.0707271 17.7493421,14.8956563 20.6072368,8.71926346 C21.8960526,5.92620397 23.25,3.16685552 24.4559211,0.32917847 C24.5723684,0.25184136 24.6710526,0.13286119 24.5723684,0.0208215297 C24.5072368,-0.0515580737 24.4154605,0.0822946176 24.3532895,0.152691218 L24.1559211,0.333144476 L18.9355263,4.73937677 C18.9286184,4.73937677 18.9226974,4.74532578 18.9157895,4.75424929 C18.5733553,5.01600567 18.2200658,5.26487252 17.9378289,5.5970255 C17.665591,5.75161663 17.4224366,5.95296485 17.2194079,6.19192635 C15.8194079,7.36388102 14.4194079,8.53649669 13.0194079,9.70977337 C12.4529605,10.1856941 11.7463816,10.5793201 11.3684211,11.1791785 C10.2631579,12.932153 9.28914474,14.7733711 8.26381579,16.5729462 C8.07947342,16.7864813 7.93625044,17.0325893 7.84144737,17.2987252 C7.78080418,17.3750378 7.72414884,17.454465 7.67171053,17.5366856 C6.08684211,20.2910765 4.50361842,23.0461284 2.92203947,25.8018414 C1.99835526,27.4150142 1.08552632,29.036119 0.170723684,30.6532578 C0.0819078947,30.7464589 -0.0483552632,30.8515581 0.01875,30.9824363 C0.0858552632,31.1133144 0.257565789,31.0498584 0.381907895,31.0498584 C3.53125,31.0498584 6.68026316,31.0498584 9.82894737,31.0498584 C9.97302632,31.0498584 10.1634868,31.140085 10.2651316,30.9378187 C10.3755523,30.8179551 10.4515999,30.6702813 10.4851974,30.5104816 C10.9973684,29.4188385 11.5164474,28.3351275 12.0217105,27.2444759 Z" id="Shape"></path>
                                <path d="M44.6121711,34.3446176 L44.6190789,34.3446176 C44.5344925,34.0798767 44.3948987,33.8362083 44.2095395,33.629745 C43.4036184,32.1272899 42.5582237,30.6483003 41.6733553,29.1927762 C41.5759099,28.9306181 41.4314118,28.6886509 41.2470395,28.4788952 C40.4230263,26.8994334 39.5101974,25.3715297 38.6003289,23.8416431 C38.541864,23.6441396 38.4345837,23.4647224 38.2884868,23.3201133 C37.3519737,21.6652975 36.4203947,20.0065156 35.4769737,18.3556657 C34.5246711,16.6869688 33.5595395,15.0252125 32.6023026,13.3594901 C30.9523026,10.490085 29.3029605,7.61968839 27.6542763,4.74830028 C27.2009868,3.96237016 26.7486842,3.17776204 26.2973684,2.39447592 C26.1601974,2.45594901 26.1582237,2.54419263 26.1305921,2.62053824 C25.14375,5.34782814 24.1569079,8.07511804 23.1700658,10.8024079 C22.3470395,13.0795562 21.5246711,15.3576959 20.7029605,17.6368272 C20.6319079,17.8351275 20.5263158,18.0195467 20.7108553,18.231728 C21.5289474,19.1786119 22.3342105,20.1354108 23.1444079,21.0882436 C23.2727046,21.3262529 23.4487893,21.5349057 23.6615132,21.7009915 C23.6874593,21.7603073 23.7188447,21.8170678 23.7552632,21.8705382 C25.8644737,24.3982059 27.9730263,26.926204 30.0809211,29.4545326 C30.5348684,30.0018414 31.0381579,30.5144476 31.4388158,31.1450425 C30.7480263,31.2650142 30.1184211,31.3711048 29.4898026,31.486119 C28.2661184,31.7108593 27.0434211,31.9385741 25.8217105,32.1692635 C25.0836745,32.2422764 24.3526919,32.3749056 23.6358553,32.565864 C22.8796718,32.63784 22.1298911,32.7664315 21.3927632,32.9505666 L19.2305921,33.2956091 C18.8279605,33.4036827 18.3986842,33.3947592 18.0088816,33.5583569 C17.6171515,33.5681404 17.2289026,33.6349353 16.85625,33.7566572 C16.1220395,33.8419263 15.3907895,33.9390935 14.6802632,34.1532578 L14.6861842,34.1463173 C14.3220395,34.1364023 13.9746711,34.2385269 13.6233553,34.3089235 L12.3957237,34.5449008 L11.5342105,34.6747875 L10.8532895,34.7650142 C10.9865132,34.9405099 11.1651316,34.8492918 11.3279605,34.8492918 C11.34375,34.8939093 11.4167763,34.9137394 11.4769737,34.9077904 L44.3092105,34.9077904 C44.4572368,34.9077904 44.6052632,34.9077904 44.7532895,34.9077904 C44.8519737,34.9077904 44.90625,34.8621813 44.9032895,34.7590652 L44.6121711,34.3446176 Z" id="Shape"></path>
                            </g>
                        </g>
                    </g>
                </g>
            </g>
        </g>
    </g>
</svg>