<?xml version="1.0" encoding="UTF-8"?>
<svg width="24px" height="26px" viewBox="0 0 24 26" version="1.1" xmlns="http://www.w3.org/2000/svg" xmlns:xlink="http://www.w3.org/1999/xlink">
    <!-- Generator: Sketch 46 (44423) - http://www.bohemiancoding.com/sketch -->
    <title>tax</title>
    <desc>Created with Sketch.</desc>
    <defs></defs>
    <g id="Project-Kitsune-" stroke="none" stroke-width="1" fill="none" fill-rule="evenodd">
        <g id="Publish-project-6.-start" transform="translate(-46.000000, -539.000000)" fill="#FFFFFF">
            <g id="Project-Dashboard" transform="translate(-1.000000, -2.000000)">
                <g id="Side-menu">
                    <g id="Analytics" transform="translate(23.000000, 537.500000)">
                        <g id="tax" transform="translate(24.000000, 4.000000)">
                            <g id="Group">
                                <path d="M19.1253523,15.244562 C18.7883274,14.9133283 18.2422206,14.9133283 17.9051957,15.244562 L14.086121,19 C13.7491815,19.3313177 13.7491815,19.8684807 14.086121,20.1997984 C14.2546335,20.3654153 14.4754164,20.4482237 14.6961993,20.4482237 C14.9169822,20.4482237 15.1377651,20.3654153 15.3062776,20.1997984 L19.1253523,16.4443605 C19.4622918,16.1130427 19.4622918,15.5757958 19.1253523,15.244562 Z" id="Shape"></path>
                                <path d="M14.6841566,16.6815319 C14.9119431,16.6815319 15.1336655,16.5907449 15.2950036,16.4330226 C15.4554875,16.2752163 15.5469609,16.0562694 15.5469609,15.8332074 C15.5469609,15.6100613 15.455573,15.3911985 15.2950036,15.2333921 C15.1336655,15.0756698 14.911089,14.9848828 14.6841566,14.9848828 C14.4572242,14.9848828 14.2346477,15.0756698 14.0742491,15.2333921 C13.9137651,15.3911985 13.8214377,15.6101453 13.8214377,15.8332074 C13.8214377,16.0563534 13.9137651,16.2752163 14.0742491,16.4330226 C14.2346477,16.5907449 14.4573096,16.6815319 14.6841566,16.6815319 Z" id="Shape"></path>
                                <path d="M18.5269751,18.7626606 C18.3000427,18.7626606 18.0774662,18.8533636 17.9170676,19.0111699 C17.7557295,19.1689762 17.6642562,19.3878391 17.6642562,19.6109851 C17.6642562,19.834887 17.7557295,20.052994 17.9170676,20.2107164 C18.0774662,20.3685227 18.3001281,20.4593096 18.5269751,20.4593096 C18.7539075,20.4593096 18.976484,20.3685227 19.136968,20.2107164 C19.297452,20.052994 19.389694,19.834887 19.389694,19.6109851 C19.389694,19.3877551 19.297452,19.1689762 19.136968,19.0111699 C18.976484,18.8533636 18.7538221,18.7626606 18.5269751,18.7626606 Z" id="Shape"></path>
                                <path d="M17.0526406,10.5156631 C20.8944342,10.7437642 23.9493523,13.888133 23.9493523,17.7220962 C23.9493523,21.7039557 20.6549466,24.9433107 16.605694,24.9433107 C15.4659929,24.9433107 14.3860783,24.6866549 13.4225765,24.2291089 L0.913451957,24.2291089 C0.436953737,24.2291089 0.0506476868,23.8492483 0.0506476868,23.3807004 L0.0506476868,0.848408499 C0.0506476868,0.379860586 0.436953737,0 0.913451957,0 L16.1899217,0 C16.6663345,0 17.0526406,0.379860586 17.0526406,0.848408499 L17.0526406,10.5156631 Z M16.605694,23.2465776 C19.7034875,23.2465776 22.2238292,20.7682876 22.2238292,17.7220962 C22.2238292,14.6759889 19.7034875,12.1976988 16.605694,12.1976988 C13.5078149,12.1976988 10.9874733,14.6759889 10.9874733,17.7220962 C10.9874733,20.7682876 13.5078149,23.2465776 16.605694,23.2465776 Z M5.49634164,10.7097506 L11.6069466,10.7097506 C12.0834448,10.7097506 12.4697509,10.32989 12.4697509,9.86134207 C12.4697509,9.39279415 12.0834448,9.01293357 11.6069466,9.01293357 L5.49634164,9.01293357 C5.01984342,9.01293357 4.63353737,9.39279415 4.63353737,9.86134207 C4.63362278,10.329806 5.01992883,10.7097506 5.49634164,10.7097506 Z M7.02397153,13.5193584 L5.49634164,13.5193584 C5.01984342,13.5193584 4.63353737,13.8992189 4.63353737,14.3677669 C4.63353737,14.8363148 5.01984342,15.2161754 5.49634164,15.2161754 L7.02397153,15.2161754 C7.50046975,15.2161754 7.8867758,14.8363148 7.8867758,14.3677669 C7.8867758,13.8992189 7.50046975,13.5193584 7.02397153,13.5193584 Z M5.49634164,6.20324179 L11.6069466,6.20324179 C12.0834448,6.20324179 12.4697509,5.8233812 12.4697509,5.35483329 C12.4697509,4.88628538 12.0834448,4.50642479 11.6069466,4.50642479 L5.49634164,4.50642479 C5.01984342,4.50642479 4.63353737,4.88628538 4.63353737,5.35483329 C4.63362278,5.8233812 5.01992883,6.20324179 5.49634164,6.20324179 Z" id="Combined-Shape"></path>
                            </g>
                        </g>
                    </g>
                </g>
            </g>
        </g>
    </g>
</svg>