<?xml version="1.0" encoding="UTF-8"?>
<svg width="39px" height="22px" viewBox="0 0 39 22" version="1.1" xmlns="http://www.w3.org/2000/svg" xmlns:xlink="http://www.w3.org/1999/xlink">
  <!-- Generator: Sketch 41.1 (35376) - http://www.bohemiancoding.com/sketch -->
  <title>Chatbot</title>
  <desc>Created with Sketch.</desc>
  <defs></defs>
  <g id="Project-Kitsune-" stroke="none" stroke-width="1" fill="none" fill-rule="evenodd">
    <g id="Dashboard" transform="translate(-40.000000, -500.000000)" fill="#FFFFFF">
      <g id="Project-Dashboard" transform="translate(-1.000000, -2.000000)">
        <g id="Side-menu">
          <g id="Chat-bot" transform="translate(20.000000, 502.500000)">
            <g id="Chatbot" transform="translate(21.000000, 0.000000)">
              <g id="Bot">
                <path d="M19.3953314,3.7435 C17.4427686,1.6005 14.64229,0.248 11.5198943,0.248 C8.39749857,0.248 5.59702,1.6005 3.64445714,3.7435 C1.90951429,5.648 0.841972857,8.1745 0.841972857,10.9575 C0.842975714,16.0385 1.92656286,18.7065 3.69660571,20.11 C4.01852286,20.3655 4.3615,20.5815 4.72654,20.7595 C4.58463571,20.6445 4.44874857,20.5225 4.31837714,20.3945 C3.24883,19.348 2.57842,17.9015 2.56588429,16.3085 C2.49919429,14.664 2.46810571,13.5615 2.43150143,12.285 C2.41244714,11.6115 2.39188857,10.893 2.36380857,10.0105 C2.36380857,6.686 5.83469714,4.202 8.93803857,4.202 L11.0069329,4.202 L12.0333571,4.202 L14.1022514,4.202 C17.8649714,4.202 20.6764814,7.2685 20.6764814,10.0265 C20.6489029,10.8915 20.6283443,11.609 20.60929,12.2815 C20.5726857,13.559 20.5415971,14.6625 20.4754086,16.2925 C20.4623714,17.895 19.7904571,19.347 18.7184029,20.396 C18.5775014,20.534 18.4290786,20.6635 18.27514,20.787 C18.6767843,20.595 19.05436,20.3615 19.4043571,20.0765 C21.1393,18.6635 22.1978157,15.9965 22.1978157,10.958 C22.1978157,8.175 21.1302743,5.6475 19.3953314,3.7435 Z M16.948772,20.180548 C16.1936147,20.6429443 15.3082102,20.91375 14.3590677,20.91375 L12.3827265,20.91375 L8.6822252,20.91375 C7.73308264,20.91375 6.84721624,20.6429443 6.09205902,20.180548 C4.69213148,19.3234571 3.74806948,17.7971811 3.73375151,16.0401677 C3.63999193,13.7231205 3.62197901,12.5574584 3.5485417,10.2574517 C3.5485417,7.55676312 6.43430459,5.36775 9.14224758,5.36775 L11.3947869,5.36775 L11.646506,5.36775 L13.8990453,5.36775 C16.6074501,5.36775 19.4927512,7.55676312 19.4927512,10.2574517 C19.4193138,12.5574584 19.4008391,13.7231205 19.3070795,16.0401677 C19.2927615,17.7971811 18.3486995,19.3234571 16.948772,20.180548 Z M9.72066256,12.4375 C9.72066256,11.7195 9.41872843,11.0945 8.96879514,10.742 C8.72661469,10.552 8.44367511,10.4375 8.13778379,10.4375 C7.26363899,10.4375 6.55490502,11.333 6.55490502,12.4375 C6.55490502,13.542 7.26363899,14.4375 8.13778379,14.4375 C8.49670155,14.4375 8.82396174,14.2805 9.08948965,14.026 C9.47056771,13.661 9.72066256,13.0885 9.72066256,12.4375 Z M16.4858864,12.4375 C16.4858864,11.333 15.7771524,10.4375 14.9030076,10.4375 C14.5971163,10.4375 14.3141767,10.552 14.0719963,10.742 C13.622063,11.0945 13.3201289,11.7195 13.3201289,12.4375 C13.3201289,13.088 13.5702237,13.661 13.9513018,14.026 C14.2168297,14.2805 14.5440899,14.4375 14.9030076,14.4375 C15.7771524,14.4375 16.4858864,13.542 16.4858864,12.4375 Z" id="Shape"></path>
              </g>
              <g id="Voice" transform="translate(26.000000, 2.750000)">
                <path d="M4.3631039,3.99834094 C4.03329221,4.32499239 4.03312338,4.85506849 4.36268182,5.18213851 C6.58019481,7.38272451 6.57875974,10.964589 4.35955844,13.1666819 C4.03,13.4938356 4.03016883,14.0237443 4.3598961,14.3506469 C4.52475974,14.5139726 4.74069481,14.595761 4.95662987,14.595761 C5.17281818,14.595761 5.38883766,14.5138052 5.5537013,14.350312 C8.4305,11.4956697 8.43193506,6.8520624 5.55682468,3.99875951 C5.22743506,3.6716895 4.69283117,3.67135464 4.3631039,3.99834094 Z" id="Shape"></path>
                <path d="M0.278655844,6.39975647 C-0.0511558442,6.72640791 -0.0513246753,7.25648402 0.278233766,7.58355403 C1.16223377,8.46087519 1.16214935,9.88844749 0.278064935,10.7658524 C-0.0514935065,11.0928387 -0.0513246753,11.6229148 0.278487013,11.9498174 C0.443266234,12.1131431 0.659285714,12.1947641 0.875136364,12.1947641 C1.09132468,12.1947641 1.30742857,12.1130594 1.47220779,11.9493151 C3.01388961,10.4194444 3.01397403,7.93004566 1.47237662,6.40017504 C1.14298701,6.0729376 0.608383117,6.07277017 0.278655844,6.39975647 Z" id="Shape"></path>
                <path d="M9.2939026,0.290570776 C8.96434416,-0.0365829528 8.42990909,-0.0367503805 8.1000974,0.290068493 C7.77028571,0.616887367 7.77011688,1.14696347 8.09967532,1.47403349 C12.3770974,5.71857686 12.3752403,12.6268113 8.09528571,16.8732801 C7.76572727,17.2002664 7.7658961,17.7303425 8.09562338,18.0572451 C8.26048701,18.2205708 8.47642208,18.3023592 8.69235714,18.3023592 C8.90846104,18.3023592 9.12456494,18.2204033 9.28942857,18.0569102 C14.2270649,13.1577245 14.2290065,5.18774734 9.2939026,0.290570776 Z" id="Shape"></path>
              </g>
            </g>
          </g>
        </g>
      </g>
    </g>
  </g>
</svg>
