<?xml version="1.0" encoding="UTF-8"?>
<svg width="15px" height="12px" viewBox="0 0 15 12" version="1.1" xmlns="http://www.w3.org/2000/svg" xmlns:xlink="http://www.w3.org/1999/xlink">
    <!-- Generator: Sketch 46 (44423) - http://www.bohemiancoding.com/sketch -->
    <title>IDE -2</title>
    <desc>Created with Sketch.</desc>
    <defs></defs>
    <g id="Project-Kitsune-" stroke="none" stroke-width="1" fill="none" fill-rule="evenodd">
        <g id="Project-lavel-preview" transform="translate(-576.000000, -680.000000)" fill="#FFFFFF">
            <g id="Project-Dashboard" transform="translate(-1.000000, -2.000000)">
                <g id="Dashboard-with-projects" transform="translate(112.000000, 207.000000)">
                    <g id="Context-menu" transform="translate(446.000000, 374.000000)">
                        <g id="Contents" transform="translate(19.000000, 11.000000)">
                            <g id="IDE--2" transform="translate(0.278015, 90.639008)">
                                <g id="Capa_1">
                                    <g id="Group">
                                        <path d="M13.8422083,5.24880822 L10.3248542,1.61443836 C10.2154792,1.50142466 10.0219583,1.50142466 9.91258333,1.61443836 L9.15002083,2.40236986 C9.036125,2.52005479 9.036125,2.71082192 9.15002083,2.82850685 L11.69875,5.46172603 L9.15016667,8.09539726 C9.03627083,8.21308219 9.03627083,8.40384932 9.15016667,8.52153425 L9.91272917,9.30946575 C9.96741667,9.3659726 10.0416458,9.39791781 10.1189375,9.39791781 C10.1960833,9.39791781 10.2704583,9.3659726 10.3251458,9.30946575 L13.8422083,5.67524658 C13.9561042,5.55741096 13.9561042,5.36649315 13.8422083,5.24880822 Z" id="Shape"></path>
                                        <path d="M4.9231875,8.09539726 L2.37489583,5.4620274 L4.923625,2.82880822 C4.9783125,2.77230137 5.00908333,2.69575342 5.00908333,2.61573973 C5.00908333,2.53587671 4.97845833,2.45917808 4.923625,2.40267123 L4.1610625,1.61473973 C4.106375,1.55823288 4.03214583,1.52643836 3.95485417,1.52643836 C3.8775625,1.52643836 3.80333333,1.55823288 3.74864583,1.61473973 L0.231145833,5.24880822 C0.11725,5.36649315 0.11725,5.55726027 0.231145833,5.67509589 L3.7485,9.30931507 C3.8031875,9.36582192 3.87741667,9.39776712 3.95470833,9.39776712 C4.032,9.39776712 4.10622917,9.36582192 4.16091667,9.30931507 L4.92347917,8.52138356 C5.037375,8.40384932 5.037375,8.21308219 4.9231875,8.09539726 Z" id="Shape"></path>
                                        <path d="M9.03685417,0.391780822 C8.9998125,0.321561644 8.93739583,0.269424658 8.8633125,0.246821918 L8.245125,0.0583150685 C8.09083333,0.011 7.928375,0.102465753 7.882875,0.262041096 L5.01302083,10.304137 C4.99114583,10.3808356 4.99960417,10.4632603 5.0365,10.5333288 C5.07339583,10.6036986 5.13595833,10.6556849 5.21004167,10.6784384 L5.82822917,10.8669452 C5.85579167,10.8753836 5.88364583,10.8794521 5.91091667,10.8794521 C6.03677083,10.8794521 6.153,10.7944658 6.19047917,10.6632192 L9.06033333,0.620972603 C9.08220833,0.544273973 9.07389583,0.461849315 9.03685417,0.391780822 Z" id="Shape"></path>
                                    </g>
                                </g>
                            </g>
                        </g>
                    </g>
                </g>
            </g>
        </g>
    </g>
</svg>
