<?xml version="1.0" encoding="UTF-8"?>
<svg width="66px" height="67px" viewBox="0 0 66 67" version="1.1" xmlns="http://www.w3.org/2000/svg" xmlns:xlink="http://www.w3.org/1999/xlink">
    <!-- Generator: Sketch 41.1 (35376) - http://www.bohemiancoding.com/sketch -->
    <title>Create button</title>
    <desc>Created with Sketch.</desc>
    <defs></defs>
    <g id="Project-Kitsune-" stroke="none" stroke-width="1" fill="none" fill-rule="evenodd">
        <g id="V2" transform="translate(-1462.000000, -172.000000)">
            <g id="Header" transform="translate(18.000000, 62.000000)">
                <g id="Create-button" transform="translate(1444.000000, 110.500000)">
                    <g id="Group-2">
                        <circle id="Avatar-base" fill="#F06428" cx="33" cy="33" r="33"></circle>
                        <path d="M31.4892211,21 C31.4892211,20.4477153 31.9369363,20 32.4892211,20 L33.7523789,20 C34.3046637,20 34.7523789,20.4477153 34.7523789,21 L34.7523789,31.3684211 L45.1208,31.3684211 C45.6730847,31.3684211 46.1208,31.8161363 46.1208,32.3684211 L46.1208,33.6315789 C46.1208,34.1838637 45.6730847,34.6315789 45.1208,34.6315789 L34.7523789,34.6315789 L34.7523789,45 C34.7523789,45.5522847 34.3046637,46 33.7523789,46 L32.4892211,46 C31.9369363,46 31.4892211,45.5522847 31.4892211,45 L31.4892211,34.6315789 L21.1208,34.6315789 C20.5685153,34.6315789 20.1208,34.1838637 20.1208,33.6315789 L20.1208,32.3684211 C20.1208,31.8161363 20.5685153,31.3684211 21.1208,31.3684211 L31.4892211,31.3684211 L31.4892211,21 Z" id="Fill-131" fill="#FFFFFF"></path>
                    </g>
                </g>
            </g>
        </g>
    </g>
</svg>