<?xml version="1.0" encoding="UTF-8"?>
<svg width="46px" height="34px" viewBox="0 0 46 34" version="1.1" xmlns="http://www.w3.org/2000/svg" xmlns:xlink="http://www.w3.org/1999/xlink">
    <!-- Generator: Sketch 50.2 (55047) - http://www.bohemiancoding.com/sketch -->
    <title>Shape</title>
    <desc>Created with Sketch.</desc>
    <defs></defs>
    <g id="Project-Kitsune-" stroke="none" stroke-width="1" fill="none" fill-rule="evenodd">
        <g id="List-view-of-Projects---live-site-info-modal--context" transform="translate(-696.000000, -794.000000)" fill="#000000" opacity=".1" fill-rule="nonzero">
            <g id="All-live-sites" transform="translate(-0.200000, -0.400000)">
                <g id="Customer-info-modal">
                    <g id="Group-17" transform="translate(664.000000, 774.000000)">
                        <path d="M69.45,32.3333333 L69.45,30.8666667 L65.1,33.8 L60.75,30.8666667 L60.75,32.3333333 L65.1,35.2666667 L69.45,32.3333333 Z M74.9,21 L35.9,21 C34.29775,21 33,22.3126667 33,23.9333333 L33,51.4666667 C33,53.0873333 34.29775,54.4 35.9,54.4 L74.9,54.4 C76.50225,54.4 77.7855,53.0873333 77.7855,51.4666667 L77.8,23.9333333 C77.8,22.3126667 76.50225,21 74.9,21 Z M47.6,29.4 C49.99975,29.4 51.95,31.3726667 51.95,33.8 C51.95,36.2346667 49.99975,38.2 47.6,38.2 C45.20025,38.2 43.25,36.2346667 43.25,33.8 C43.25,31.3726667 45.20025,29.4 47.6,29.4 Z M56.3,47 L38.9,47 L38.9,45.5333333 C38.9,42.6 44.7,40.9866667 47.6,40.9866667 C50.5,40.9866667 56.3,42.6 56.3,45.5333333 L56.3,47 Z M70.9,38.2 L59.3,38.2 L59.3,29.4 L70.9,29.4 L70.9,38.2 Z" id="Shape"></path>
                    </g>
                </g>
            </g>
        </g>
    </g>
</svg>