<?xml version="1.0" encoding="UTF-8"?>
<svg width="16px" height="14px" viewBox="0 0 16 14" version="1.1" xmlns="http://www.w3.org/2000/svg" xmlns:xlink="http://www.w3.org/1999/xlink">
    <!-- Generator: Sketch 50.2 (55047) - http://www.bohemiancoding.com/sketch -->
    <title>equalization-control</title>
    <desc>Created with Sketch.</desc>
    <defs></defs>
    <g id="Project-Kitsune-" stroke="none" stroke-width="1" fill="none" fill-rule="evenodd">
        <g id="List-view-of-Projects---contaxt-menu" transform="translate(-1425.000000, -810.000000)" fill="#FFFFFF" fill-rule="nonzero">
            <g id="All-live-sites" transform="translate(-0.200000, -0.400000)">
                <g id="Dashboard-with-Sites" transform="translate(133.400000, 246.400000)">
                    <g id="Context-menu" transform="translate(1276.000000, 470.000000)">
                        <g id="Contents" transform="translate(15.800000, 15.200000)">
                            <g id="equalization-control" transform="translate(0.000000, 79.000000)">
                                <path d="M2.96969281,1.962375 L2.96969281,0.704525 C2.96969281,0.320175 2.68502614,0.009075 2.33333333,0.009075 C1.98164052,0.009075 1.69697386,0.320175 1.69697386,0.704525 L1.69697386,1.962375 C0.719101307,2.266075 0,3.248975 0,4.413625 C0,5.578275 0.719101307,6.561175 1.69697386,6.8649 L1.69697386,12.295475 C1.69697386,12.67935 1.98164052,12.990925 2.33333333,12.990925 C2.68502614,12.990925 2.96969281,12.67935 2.96969281,12.295475 L2.96969281,6.8649 C3.94756536,6.561175 4.66666667,5.57875 4.66666667,4.413625 C4.66666667,3.248975 3.94756536,2.266075 2.96969281,1.962375 Z M8.63635948,6.1351 L8.63635948,0.704525 C8.63635948,0.320175 8.35169281,0.009075 8,0.009075 C7.64830719,0.009075 7.36364052,0.320175 7.36364052,0.704525 L7.36364052,6.1351 C6.38576797,6.438775 5.66666667,7.421675 5.66666667,8.586325 C5.66666667,9.751025 6.38576797,10.733925 7.36364052,11.0376 L7.36364052,12.29545 C7.36364052,12.679325 7.64830719,12.9909 8,12.9909 C8.35169281,12.9909 8.63635948,12.679325 8.63635948,12.29545 L8.63635948,11.0376 C9.61423203,10.733925 10.3333333,9.751025 10.3333333,8.586325 C10.3333333,7.421675 9.61423203,6.438775 8.63635948,6.1351 Z M14.3030261,1.962375 L14.3030261,0.704525 C14.3030261,0.320175 14.0183595,0.009075 13.6666667,0.009075 C13.3149739,0.009075 13.0303072,0.320175 13.0303072,0.704525 L13.0303072,1.962375 C12.0524346,2.266075 11.3333333,3.2485 11.3333333,4.413625 C11.3333333,5.578275 12.0524346,6.561175 13.0303072,6.8649 L13.0303072,12.295475 C13.0303072,12.67935 13.3149739,12.990925 13.6666667,12.990925 C14.0183595,12.990925 14.3030261,12.67935 14.3030261,12.295475 L14.3030261,6.8649 C15.2808987,6.561175 16,5.57875 16,4.413625 C16,3.248975 15.2808987,2.266075 14.3030261,1.962375 Z" id="Shape"></path>
                            </g>
                        </g>
                    </g>
                </g>
            </g>
        </g>
    </g>
</svg>