<?xml version="1.0" encoding="UTF-8"?>
<svg width="16px" height="13px" viewBox="0 0 16 13" version="1.1" xmlns="http://www.w3.org/2000/svg" xmlns:xlink="http://www.w3.org/1999/xlink">
    <!-- Generator: Sketch 50.2 (55047) - http://www.bohemiancoding.com/sketch -->
    <title>unpublish 5</title>
    <desc>Created with Sketch.</desc>
    <defs></defs>
    <g id="Project-Kitsune-" stroke="none" stroke-width="1" fill="none" fill-rule="evenodd">
        <g id="publish-flow-5" transform="translate(-1576.000000, -905.000000)" fill="#FFFFFF">
            <g id="All-live-sites" transform="translate(-0.200000, -0.400000)">
                <g id="All-sites-Tab" transform="translate(258.600000, 323.800000)">
                    <g id="Context-menu" transform="translate(1300.800000, 428.600000)">
                        <g id="Contents" transform="translate(15.800000, 33.200000)">
                            <path d="M15.9695152,120 C16.5586667,120 17,120.468364 17,121.066242 L17,130.949333 C17,131.538485 16.5586667,132 15.9695152,132 L2.08642424,132 C1.48854545,132 1,131.538485 1,130.949333 L1,121.066242 C1,120.478303 1.49848485,120 2.08642424,120 L15.9695152,120 Z M14.0513996,122.871825 L4.03871459,122.871825 C3.10604651,122.871825 2.30232558,123.3103 2.30232558,123.849342 L2.30232558,123.888443 L2.30232558,129.636244 L2.30232558,129.675344 C2.30232558,130.193585 3.07438478,130.613761 3.97106131,130.613761 L4.03871459,130.613761 L13.9837463,130.613761 L14.0513996,130.613761 C14.9840677,130.613761 15.6976744,130.175286 15.6976744,129.636244 L15.6976744,123.849342 C15.6976744,123.3103 14.9840677,122.871825 14.0513996,122.871825 Z M4.65006061,120.607576 C4.43466667,120.607576 4.25951515,120.831893 4.25951515,121.107576 C4.25951515,121.383259 4.43472727,121.607576 4.65006061,121.607576 C4.86539394,121.607576 5.04060606,121.383259 5.04060606,121.107576 C5.04060606,120.831893 4.86545455,120.607576 4.65006061,120.607576 Z M3.52884848,120.607576 C3.31345455,120.607576 3.13830303,120.831893 3.13830303,121.107576 C3.13830303,121.383259 3.31351515,121.607576 3.52884848,121.607576 C3.74418182,121.607576 3.91939394,121.383259 3.91939394,121.107576 C3.91939394,120.831893 3.74424242,120.607576 3.52884848,120.607576 Z M2.40763636,120.607576 C2.19224242,120.607576 2.01709091,120.831893 2.01709091,121.107576 C2.01709091,121.383259 2.19230303,121.607576 2.40763636,121.607576 C2.6229697,121.607576 2.79818182,121.383259 2.79818182,121.107576 C2.79818182,120.831893 2.6230303,120.607576 2.40763636,120.607576 Z M15.6143739,121.607636 C16.0540308,121.607636 16.1553511,121.383342 16.1553511,121.107713 C16.1553511,120.832856 16.0541546,120.609332 15.6143739,120.609332 L6.43956545,120.607636 C5.99990858,120.607636 5.89858828,120.831931 5.89858828,121.107636 C5.89858828,121.383342 5.99978484,121.607636 6.43956545,121.607636 L15.6143739,121.607636 Z M10.9999558,128.000009 L10.0000354,129 L8.50017678,127.499991 L7.00027401,129 L6,128.000009 L7.49990277,126.5 L6,124.999991 L7.00027401,124 L8.50017678,125.500009 L10.0000796,124 L11,124.999991 L9.50009723,126.5 L10.9999558,128.000009 Z" id="unpublish-5"></path>
                        </g>
                    </g>
                </g>
            </g>
        </g>
    </g>
</svg>