<?xml version="1.0" encoding="UTF-8"?>
<svg width="14px" height="17px" viewBox="0 0 14 17" version="1.1" xmlns="http://www.w3.org/2000/svg" xmlns:xlink="http://www.w3.org/1999/xlink">
    <!-- Generator: Sketch 46 (44423) - http://www.bohemiancoding.com/sketch -->
    <title>job-search view documentation read</title>
    <desc>Created with Sketch.</desc>
    <defs></defs>
    <g id="Project-Kitsune-" stroke="none" stroke-width="1" fill="none" fill-rule="evenodd">
        <g id="Billing---Add-Hover-tooltip" transform="translate(-1305.000000, -425.000000)" fill="#5B5B5B">
            <g id="Profile-card" transform="translate(-2.000000, -2.000000)">
                <g id="Card" transform="translate(1263.000000, 134.000000)">
                    <g id="Contents" transform="translate(0.000000, 35.000000)">
                        <g id="job-search-view-documentation-read" transform="translate(44.566667, 258.000000)">
                            <g id="Capa_1">
                                <path d="M6.72444923,6.11872903 C5.6437,6.11872903 4.76485436,7.02295428 4.76485436,8.13491377 C4.76485436,9.24687326 5.6437,10.1510985 6.72444923,10.1510985 C7.80519847,10.1510985 8.68404411,9.24687326 8.68404411,8.13491377 C8.68404411,7.02295428 7.80519847,6.11872903 6.72444923,6.11872903 Z" id="Shape"></path>
                                <path d="M12.5354695,3.85892544 L11.2552678,2.54175365 C10.9988774,2.27795911 10.6576271,2.13240017 10.2951316,2.13240017 L2.522,2.13240017 C2.27179604,2.13240017 2.06933333,2.34070967 2.06933333,2.59813911 L2.06933333,15.7009277 C2.06933333,15.9583572 2.27179604,16.1666667 2.522,16.1666667 L12.4806667,16.1666667 C12.7308706,16.1666667 12.9333333,15.9583572 12.9333333,15.7009277 L12.9333333,4.84678877 C12.9333333,4.47382503 12.7918599,4.12271998 12.5354695,3.85892544 Z M11.4798961,13.0276901 C11.2885417,13.2245705 10.9785011,13.2245705 10.7871466,13.0276901 L8.42243819,10.5946928 C7.94191287,10.9470546 7.35824753,11.1591909 6.72444923,11.1591909 C5.10357033,11.1591909 3.78505692,9.80260098 3.78505692,8.13491377 C3.78505692,6.46722656 5.10357033,5.11063666 6.72444923,5.11063666 C8.34532813,5.11063666 9.66384154,6.46722656 9.66384154,8.13491377 C9.66384154,8.78701512 9.4576595,9.38753575 9.1152203,9.88197145 L11.4799288,12.3149688 C11.6712832,12.5118492 11.6712832,12.8308096 11.4798961,13.0276901 Z M12.028,4.92683377 L10.2173333,4.92683377 L10.2173333,3.06387804 L10.2951316,3.06387804 C10.4140321,3.06387804 10.5307597,3.11346371 10.615167,3.20033955 L11.8953687,4.51751134 C11.9798061,4.60438718 12.028,4.72445468 12.028,4.84678877 L12.028,4.92683377 Z" id="Shape"></path>
                                <path d="M10.4113333,0 L0.452666667,0 C0.202673956,0 0,0.208526845 0,0.465738932 L0,13.5374783 C0,13.7949077 0.202462711,14.0032172 0.452666667,14.0032172 L0.905333333,14.0032172 L0.905333333,2.32869466 C0.905333333,1.55702735 1.51332502,0.931477865 2.26333333,0.931477865 L10.864,0.931477865 L10.864,0.465738932 C10.864,0.2083095 10.6615373,0 10.4113333,0 Z" id="Shape"></path>
                            </g>
                        </g>
                    </g>
                </g>
            </g>
        </g>
    </g>
</svg>