<?xml version="1.0" encoding="UTF-8"?>
<svg width="12px" height="12px" viewBox="0 0 12 12" version="1.1" xmlns="http://www.w3.org/2000/svg" xmlns:xlink="http://www.w3.org/1999/xlink">
    <!-- Generator: Sketch 46 (44423) - http://www.bohemiancoding.com/sketch -->
    <title>download inbox local machine</title>
    <desc>Created with Sketch.</desc>
    <defs></defs>
    <g id="Project-Kitsune-" stroke="none" stroke-width="1" fill="none" fill-rule="evenodd">
        <g id="Project-lavel-preview" transform="translate(-577.000000, -742.000000)" fill="#FFFFFF">
            <g id="Project-Dashboard" transform="translate(-1.000000, -2.000000)">
                <g id="Dashboard-with-projects" transform="translate(112.000000, 207.000000)">
                    <g id="Context-menu" transform="translate(446.000000, 374.000000)">
                        <g id="Contents" transform="translate(19.000000, 11.000000)">
                            <g id="download-inbox-local-machine" transform="translate(1.778015, 152.879669)">
                                <g id="Capa_1">
                                    <g id="Group">
                                        <path d="M10.8785276,6.65522541 L9.31513292,4.23432377 C9.19366053,4.04723361 8.98895706,3.93452869 8.76625767,3.93452869 L8.07566462,3.93452869 C7.97443763,3.93452869 7.91370143,4.04723361 7.96993865,4.13063525 L9.65705521,6.74538934 C9.6795501,6.77920082 9.65480573,6.82428279 9.61431493,6.82428279 L8.87423313,6.82428279 L8.27137014,6.82428279 L7.69325153,6.82428279 C7.62351738,6.82428279 7.56952965,6.88063525 7.56503067,6.9482582 C7.4997955,8.0392418 6.59775051,8.90481557 5.49100204,8.90481557 C4.38425358,8.90481557 3.48220859,8.0392418 3.41697342,6.9482582 C3.41247444,6.87838115 3.35848671,6.82428279 3.28875256,6.82428279 L2.71063395,6.82428279 L2.19325153,6.82428279 L1.36993865,6.82428279 C1.32944785,6.82428279 1.30695297,6.77920082 1.32719836,6.74538934 L3.01431493,4.13063525 C3.06830266,4.04497951 3.00756646,3.93452869 2.90858896,3.93452869 L2.21799591,3.93452869 C1.99529652,3.93452869 1.79059305,4.04723361 1.66912065,4.23432377 L0.10797546,6.65522541 C0.0382413088,6.76342213 0,6.89190574 0,7.02264344 L0,10.3947746 C0,10.723873 0.267689162,10.9921107 0.596114519,10.9921107 L5.49325153,10.9921107 L10.3903885,10.9921107 C10.7188139,10.9921107 10.9865031,10.723873 10.9865031,10.3947746 L10.9865031,7.02264344 C10.9865031,6.89190574 10.9505112,6.76567623 10.8785276,6.65522541 Z" id="Shape"></path>
                                        <path d="M5.31329243,6.74989754 C5.40552147,6.86711066 5.58323108,6.86711066 5.67546012,6.74989754 L7.15787321,4.86096311 C7.27709611,4.70993852 7.16912065,4.48678279 6.97791411,4.48678279 L6.39304703,4.48678279 L6.39304703,0.918545082 C6.39304703,0.420389344 5.99038855,0.0169057377 5.49325153,0.0169057377 L5.49325153,0.0169057377 C4.99611452,0.0169057377 4.59345603,0.420389344 4.59345603,0.918545082 L4.59345603,4.48678279 L4.00858896,4.48678279 C3.81738241,4.48678279 3.70940695,4.70993852 3.82862986,4.86096311 L5.31329243,6.74989754 Z" id="Shape"></path>
                                    </g>
                                </g>
                            </g>
                        </g>
                    </g>
                </g>
            </g>
        </g>
    </g>
</svg>