<?xml version="1.0" encoding="UTF-8"?>
<svg width="13px" height="16px" viewBox="0 0 13 16" version="1.1" xmlns="http://www.w3.org/2000/svg" xmlns:xlink="http://www.w3.org/1999/xlink">
    <!-- Generator: Sketch 46 (44423) - http://www.bohemiancoding.com/sketch -->
    <title>human-head-with-a-question-mark-inside FAQ</title>
    <desc>Created with Sketch.</desc>
    <defs></defs>
    <g id="Project-Kitsune-" stroke="none" stroke-width="1" fill="none" fill-rule="evenodd">
        <g id="List-view-of-Projects-Context-menu" transform="translate(-1306.000000, -551.000000)" fill="#5B5B5B">
            <g id="Profile-card" transform="translate(-2.000000, -2.000000)">
                <g id="Card" transform="translate(1263.000000, 134.000000)">
                    <g id="Contents" transform="translate(0.000000, 37.000000)">
                        <g id="human-head-with-a-question-mark-inside-FAQ" transform="translate(45.500000, 382.666667)">
                            <g id="Capa_1">
                                <path d="M3.60276259,14.94 L11.9557986,14.94 C11.9557986,14.94 9.53188489,12.9946552 9.58290647,10.8618103 C9.61346763,9.67344828 11.9557986,8.16060345 11.9443165,4.85853448 C11.9369784,3.19793103 10.3241439,0.437327586 7.58538129,0.0932758621 C4.84627338,-0.25137931 2.79643165,0.350689655 1.90066187,2.03706897 C1.00376978,3.72258621 0.936,5.20267241 1.00489209,5.47715517 C1.07456115,5.75293103 1.36679137,6.26905172 1.36679137,6.26905172 C1.36679137,6.26905172 -0.0112230216,8.38474138 0.0741582734,8.72853448 C0.161438849,9.07344828 1.10658993,9.2587069 1.10658993,9.2587069 C1.10658993,9.2587069 1.19231655,9.49801724 1.01956835,9.96206897 C0.847165468,10.4272414 1.34020144,10.9662069 1.48851799,11.1547414 C1.63441727,11.3421552 1.28115108,11.927931 1.40123741,12.2555172 C1.52166906,12.5814655 2.09067626,12.9772414 2.74489209,12.8917241 C3.39988489,12.8051724 4.24014388,12.6512931 4.53194245,12.5988793 C5.19082014,14.1473276 3.60276259,14.94 3.60276259,14.94 Z M6.24860653,10.8350862 C5.62141229,10.8350862 5.19571444,10.3742241 5.19571444,9.76 C5.19571444,9.13318966 5.63254898,8.68491379 6.24860653,8.68491379 C6.88780077,8.68491379 7.3020166,9.1337931 7.31367128,9.76 C7.31367128,10.3736207 6.88780077,10.8350862 6.24860653,10.8350862 Z M6.41367128,2.60948276 C7.9765202,2.60948276 8.68616049,3.47224138 8.68616049,4.45275862 C8.68616049,5.35094828 8.1300166,5.94172414 7.68100941,6.43827586 C7.24262092,6.9225 7.06486552,7.3837069 7.07703818,7.91543103 L7.07703818,8.12853448 L5.5031389,8.12853448 L5.49182955,7.82146552 C5.45686552,7.21836207 5.65715329,6.60387931 6.1896425,5.96586207 C6.56820365,5.51698276 6.87571444,5.13862069 6.87571444,4.73706897 C6.87571444,4.32310345 6.60394466,4.05172414 6.01197344,4.02810345 C5.62184394,4.02810345 5.14823243,4.17008621 4.84046265,4.38293103 L4.43893747,3.095 C4.86420365,2.84594828 5.57306696,2.60948276 6.41367128,2.60948276 Z" id="Shape"></path>
                            </g>
                        </g>
                    </g>
                </g>
            </g>
        </g>
    </g>
</svg>