<?xml version="1.0" encoding="UTF-8"?>
<svg width="195px" height="118px" viewBox="0 0 195 118" version="1.1" xmlns="http://www.w3.org/2000/svg" xmlns:xlink="http://www.w3.org/1999/xlink">
    <!-- Generator: Sketch 50.2 (55047) - http://www.bohemiancoding.com/sketch -->
    <title>Alibaba Cloud</title>
    <desc>Created with Sketch.</desc>
    <defs></defs>
    <g id="Project-Kitsune-" stroke="none" stroke-width="1" fill="none" fill-rule="evenodd">
        <g id="Live-sites--Alicloud" transform="translate(-924.000000, -658.000000)" fill-rule="nonzero">
            <g id="All-live-sites" transform="translate(-0.200000, -0.400000)">
                <g id="Alicloud-Tab" transform="translate(258.600000, 375.800000)">
                    <g id="Alicloud-Zeroth" transform="translate(0.008373, 124.390414)">
                        <g id="Alibaba-Cloud" transform="translate(666.000000, 159.000000)">
                            <path d="M156.27215,45.2186909 C150.660768,20.5686909 126.611988,0.603306258 96.951825,0.603306258 C73.7046705,0.603306258 53.6640201,12.2033063 44.0445079,29.6033063 C19.1941014,32.5033063 0.756703061,50.6283063 0.756703061,73.1033063 C0.756703061,97.0283063 22.4006055,116.603306 48.854264,116.603306 L153.065646,116.603306 C175.511175,116.603306 193.146947,100.653306 193.146947,80.3533063 C193.146947,61.5033063 176.312801,46.6686909 156.27215,45.2186909 Z" id="Shape" stroke="#DEDEDE" stroke-width="0.900000036" fill="#FBFBFB" stroke-dasharray="5.400000214576721,5.400000214576721"></path>
                            <g id="GCP" transform="translate(76.000000, 50.000000)">
                                <path d="M32.0686347,17.1325364 C30.2482165,14.0225572 28.4361624,10.907727 26.6324723,7.78804574 C26.4848708,7.53627859 26.2509225,7.32016632 26.2405904,7 C22.2061501,6.9970894 18.1736777,6.99175329 14.1431734,6.98399168 C13.8789668,6.98399168 13.8081181,7.13825364 13.7129151,7.30197505 C12.4413284,9.48492723 11.1785978,11.6678794 9.89815498,13.8508316 C9.19704797,15.0412682 8.55129151,16.2637214 7.77269373,17.4090437 C9.77712177,20.8474359 11.7795818,24.2863132 13.7800738,27.7256757 C13.8922509,27.9192308 14.0273063,27.9577963 14.2228782,27.9570686 C15.2922509,27.9519751 16.3630996,27.9534304 17.4317343,27.9570686 L26.0664207,27.9672557 C26.2095941,27.8944906 26.2560886,27.7489605 26.3276753,27.6245322 C28.2464945,24.3437976 30.1630996,21.0628205 32.0774908,17.7816008 C32.2228782,17.5283784 32.2066421,17.3675676 32.0686347,17.1325364 Z M19.8605166,22.7027027 C16.9410895,22.6675476 14.6028659,20.3064396 14.6369004,17.4279626 C14.6701107,14.6548857 17.0236162,12.2143451 20.0863469,12.3045738 C22.8169742,12.385343 25.1845018,14.6461538 25.1837638,17.5247401 C25.1837638,20.3654886 22.7808118,22.7179834 19.8605166,22.7027027 Z" id="Shape" stroke="#E5E5E5" fill="#F0EFEF"></path>
                                <path d="M21.0553506,34.939605 L11.3055351,34.939605 C10.2892989,34.9068607 9.53431734,34.4389813 9.03099631,33.5796258 C6.19557196,28.7106722 3.36236162,23.840991 0.531365314,18.9705821 C0.270110701,18.5230769 0.089298893,18.0581081 0.073800738,17.5363825 C0.0339483395,16.7155925 0.504059041,16.0810811 0.885608856,15.4189189 C1.59409594,14.1884615 2.3195572,12.9689189 3.03763838,11.7442827 C3.23690037,11.4044699 3.43837638,11.0661123 3.62804428,10.7212058 C3.65601378,10.654009 3.72863813,10.6160644 3.80073801,10.6309771 C3.97343173,10.6404366 3.99926199,10.7939709 4.06199262,10.9016632 C5.29200492,12.9943867 6.51463715,15.0902633 7.7298893,17.1892931 C7.77269373,17.2620582 7.81918819,17.3348233 7.86789668,17.4039501 C9.3198032,19.8692308 10.7626076,22.3388773 12.19631,24.8128898 C12.698893,25.6744283 13.2147601,26.5286902 13.695941,27.4018711 C13.8767528,27.7300416 14.1062731,27.8544699 14.4885609,27.8530146 C18.1402214,27.8406445 21.7948339,27.8450104 25.4435424,27.8464657 C25.6391144,27.8464657 25.8376384,27.8217256 26.0280443,27.8930353 C26.2575646,28.0967775 26.101845,28.2961538 26.00369,28.4787942 C25.6789668,29.0609148 25.3520295,29.6430353 25.0081181,30.2171518 C24.19631,31.5713098 23.4250923,32.9480249 22.6132841,34.3014553 C22.4804428,34.5241164 22.3763838,34.7766112 22.1306273,34.9163202 L21.0553506,34.939605 Z" id="Shape" fill="#FFD239"></path>
                                <path d="M7.77269373,17.4054054 C7.2496925,16.5142758 6.72521525,15.6229037 6.19926199,14.731289 C5.399754,13.3657311 4.600246,11.9994456 3.80073801,10.6324324 C3.7202952,10.4476091 3.82730627,10.3064449 3.91291513,10.1601871 C5.63468635,7.2037422 7.34833948,4.23929314 9.08191882,1.28866944 C9.58081181,0.44022869 10.3579336,0 11.3653137,0 C17.1434194,0 22.9212792,0 28.698893,0 C29.6826568,0 30.4435424,0.423492723 30.9313653,1.23700624 C32.0243542,3.05613306 33.0760148,4.9043659 34.1372694,6.74459459 C34.1749077,6.80935551 34.3483395,6.8966736 34.1697417,7.00218295 C34.0479705,7.10769231 33.896679,7.10259875 33.7505535,7.10259875 C31.2678967,7.10259875 28.7859779,7.11496881 26.304059,7.09823285 C22.3188192,7.07858628 18.3335793,7.09823285 14.3535055,7.08731809 C14.0583026,7.08731809 13.8782288,7.20883576 13.7350554,7.45114345 C11.9151292,10.5720374 10.1062731,13.6994802 8.27380074,16.8152807 C8.14760148,17.0386694 8.07158672,17.3180873 7.77269373,17.4054054 Z" id="Shape" fill="#597EBF"></path>
                                <path d="M26.2405904,7 L34.1697417,7 C34.5476015,7.3514553 34.7343173,7.82515593 34.9852399,8.25519751 C36.5173432,10.8800762 38.0425584,13.5085932 39.5608856,16.1407484 C40.0922509,17.0590437 40.0656827,17.9678794 39.5276753,18.8847193 C38.3808118,20.8377339 37.2494465,22.8002079 36.1107011,24.758316 C34.400492,27.6980249 32.6892989,30.6377339 30.9771218,33.5774428 C30.4575646,34.4695426 29.6612546,34.9272349 28.6199262,34.9272349 C26.4568266,34.9316008 24.2937269,34.9192308 22.1306273,34.9126819 C22.8715867,33.6514207 23.6123001,32.388219 24.3527675,31.1230769 C24.8939729,30.196535 25.4305043,29.2680527 25.9623616,28.3376299 C26.0287823,28.2226611 26.0929889,28.1033264 26.0664207,27.9614345 C26.2590406,27.4739085 26.5616236,27.0453222 26.8236162,26.5963617 C28.5284133,23.6784823 30.2184502,20.7525988 31.9439114,17.8456341 C32.1210332,17.5465696 32.0811808,17.3195426 31.9188192,17.0452183 C30.9527675,15.4130977 29.9904059,13.7787942 29.0479705,12.1335759 C28.1298893,10.5327443 27.199508,8.93652114 26.2568266,7.34490644 C26.1948339,7.24012474 26.0774908,7.12151767 26.2405904,7 Z" id="Shape" fill="#DA4431"></path>
                            </g>
                        </g>
                    </g>
                </g>
            </g>
        </g>
    </g>
</svg>