<svg xmlns="http://www.w3.org/2000/svg" viewBox="0 0 540.27 480.17"><defs><style>.cls-1{fill:#ffd239;}.cls-2{fill:#597ebf;}.cls-3{fill:#da4431;}.cls-4{fill:#f0efef;}</style></defs><title>Asset 1</title><g id="Layer_2" data-name="Layer 2"><g id="Layer_1-2" data-name="Layer 1"><g id="glGbmn.tif"><path class="cls-1" d="M284.3,480.17l-132.11,0c-13.77-.45-24-6.88-30.82-18.69Q63.74,361.11,6.2,260.71C2.66,254.56.21,248.17,0,241c-.54-11.28,5.83-20,11-29.1,9.6-16.91,19.43-33.67,29.16-50.5,2.7-4.67,5.43-9.32,8-14.06a2.07,2.07,0,0,1,2.34-1.24c2.34.13,2.69,2.24,3.54,3.72q25,43.14,49.7,86.41c.58,1,1.21,2,1.87,2.95Q135.12,290,164.26,341c6.81,11.84,13.8,23.58,20.32,35.58,2.45,4.51,5.56,6.22,10.74,6.2,49.48-.17,99-.11,148.44-.09,2.65,0,5.34-.34,7.92.64,3.11,2.8,1,5.54-.33,8.05-4.4,8-8.83,16-13.49,23.89-11,18.61-21.45,37.53-32.45,56.13-1.8,3.06-3.21,6.53-6.54,8.45Z"/><path class="cls-2" d="M104.32,239.2Q93.69,220.83,83,202.45,66.75,174.3,50.5,146.12c-1.09-2.54.36-4.48,1.52-6.49C75.35,99,98.57,58.26,122.06,17.71,128.82,6.05,139.35,0,153,0Q270.44,0,387.87,0c13.33,0,23.64,5.82,30.25,17,14.81,25,29.06,50.4,43.44,75.69.51.89,2.86,2.09.44,3.54-1.65,1.45-3.7,1.38-5.68,1.38-33.64,0-67.27.17-100.9-.06-54-.27-108,0-161.93-.15-4,0-6.44,1.67-8.38,5-24.66,42.89-49.17,85.87-74,128.69C109.4,234.16,108.37,238,104.32,239.2Z"/><path class="cls-3" d="M354.56,96.2H462c5.12,4.83,7.65,11.34,11.05,17.25q31.14,54.11,62,108.37c7.2,12.62,6.84,25.11-.45,37.71-15.54,26.84-30.87,53.81-46.3,80.72q-34.76,60.6-69.56,121.2C411.7,473.71,400.91,480,386.8,480c-29.31.06-58.62-.11-87.93-.2q15.06-26,30.11-52.08,11-19.1,21.81-38.28c.9-1.58,1.77-3.22,1.41-5.17,2.61-6.7,6.71-12.59,10.26-18.76,23.1-40.1,46-80.31,69.38-120.26,2.4-4.11,1.86-7.23-.34-11-13.09-22.43-26.13-44.89-38.9-67.5q-18.66-33-37.82-65.81C353.94,99.5,352.35,97.87,354.56,96.2Z"/><path class="cls-4" d="M433.53,235.45q-37-64.11-73.66-128.42c-2-3.46-5.17-6.43-5.31-10.83q-82-.06-163.92-.22c-3.58,0-4.54,2.12-5.83,4.37-17.23,30-34.34,60-51.69,90-9.5,16.36-18.25,33.16-28.8,48.9q40.74,70.88,81.4,141.78c1.52,2.66,3.35,3.19,6,3.18,14.49-.07,29-.05,43.48,0l117,.14c1.94-1,2.57-3,3.54-4.71q39-67.63,77.91-135.27C435.62,240.89,435.4,238.68,433.53,235.45ZM268.11,312a71.66,71.66,0,0,1-70.78-72.49c.45-38.11,32.34-71.65,73.84-70.41,37,1.11,69.08,32.18,69.07,71.74C340.24,279.88,307.68,312.21,268.11,312Z"/></g></g></g></svg>