<svg xmlns="http://www.w3.org/2000/svg" viewBox="0 0 22.37 22.37"><defs><style>.cls-1{fill:#fbbb00;}.cls-2{fill:#518ef8;}.cls-3{fill:#28b446;}.cls-4{fill:#f14336;}</style></defs><title>Asset 5</title><g id="Layer_2" data-name="Layer 2"><g id="Layer_1-2" data-name="Layer 1"><path class="cls-1" d="M5,13.52l-.78,2.91-2.85.06A11.2,11.2,0,0,1,1.25,6h0l2.53.46L4.9,9A6.68,6.68,0,0,0,5,13.52Z"/><path class="cls-2" d="M22.18,9.1a11.18,11.18,0,0,1-4,10.81h0L15,19.74l-.45-2.82a6.67,6.67,0,0,0,2.87-3.4h-6V9.1H22.18Z"/><path class="cls-3" d="M18.19,19.91h0A11.19,11.19,0,0,1,1.33,16.49l3.62-3a6.65,6.65,0,0,0,9.59,3.41Z"/><path class="cls-4" d="M18.32,2.58l-3.62,3A6.65,6.65,0,0,0,4.9,9L1.25,6h0A11.19,11.19,0,0,1,18.32,2.58Z"/></g></g></svg>