<?xml version="1.0" encoding="UTF-8"?>
<svg width="24px" height="25px" viewBox="0 0 24 25" version="1.1" xmlns="http://www.w3.org/2000/svg" xmlns:xlink="http://www.w3.org/1999/xlink">
    <!-- Generator: Sketch 46 (44423) - http://www.bohemiancoding.com/sketch -->
    <title>007-graphic</title>
    <desc>Created with Sketch.</desc>
    <defs></defs>
    <g id="Project-Kitsune-" stroke="none" stroke-width="1" fill="none" fill-rule="evenodd">
        <g id="Publish-project-6.-start" transform="translate(-42.000000, -448.000000)" fill="#FFFFFF">
            <g id="Project-Dashboard" transform="translate(-1.000000, -2.000000)">
                <g id="Side-menu">
                    <g id="Analytics" transform="translate(30.000000, 450.000000)">
                        <g id="007-graphic" transform="translate(13.000000, 0.000000)">
                            <g id="line_24_">
                                <rect id="Rectangle-path" x="0.187684134" y="14" width="3.15026139" height="10.5498708"></rect>
                                <rect id="Rectangle-path" x="10.4254467" y="12" width="3.15026139" height="12.5498708"></rect>
                                <rect id="Rectangle-path" x="5.3071356" y="9.30960281" width="3.15032847" height="15.240268"></rect>
                                <rect id="Rectangle-path" x="15.5436908" y="15.1800114" width="3.15032847" height="9.36985938"></rect>
                                <rect id="Rectangle-path" x="20.6620019" y="7.58569336" width="3.15026139" height="16.9641774"></rect>
                                <path d="M20.9027366,4.6209526e-05 C19.710013,4.6209526e-05 18.7435785,0.948912616 18.7435785,2.11995442 C18.7435785,2.39097329 18.8005272,2.64780584 18.8949398,2.88624699 L15.9480532,5.41159759 C15.6345527,5.2375263 15.2777993,5.12999674 14.8915361,5.12999674 C14.3769734,5.12999674 13.9114055,5.31395686 13.5402502,5.60831154 L8.63310262,2.57701285 C8.66623645,2.42983551 8.68642737,2.27697439 8.68642737,2.11990821 C8.68642737,0.948866407 7.71999279,0 6.52726925,0 C5.3345457,0 4.36811112,0.948866407 4.36811112,2.11990821 C4.36811112,2.52253181 4.48916253,2.89544269 4.68735363,3.21595196 L2.93243758,5.27578779 C2.6917467,5.18452398 2.43302989,5.13004295 2.15915813,5.13004295 C0.966434584,5.13004295 0,6.07890935 0,7.24995116 C0,8.42099297 0.966434584,9.36985938 2.15915813,9.36985938 C3.35188167,9.36985938 4.31831625,8.42099297 4.31831625,7.24995116 C4.31831625,6.86571895 4.20587775,6.51050633 4.02430063,6.19988589 L5.80510249,4.1096904 C6.03209742,4.18893974 6.27212939,4.23986264 6.52722218,4.23986264 C7.03458386,4.23986264 7.49511578,4.06084693 7.86335306,3.77286917 L12.7798666,6.80980543 C12.7496038,6.95203835 12.7322838,7.09847634 12.7322838,7.24921181 C12.7322838,8.42025362 13.6987184,9.36912002 14.8914419,9.36912002 C16.0841655,9.36912002 17.0506001,8.42025362 17.0506001,7.24921181 C17.0506001,6.97537416 16.9936513,6.71567662 16.8970737,6.47510983 L19.8396303,3.9539643 C20.1545899,4.13016122 20.5142143,4.23912329 20.9026425,4.23912329 C22.095366,4.23912329 23.0618006,3.29025688 23.0618006,2.11921507 C23.0618947,0.948912616 22.0954601,4.6209526e-05 20.9027366,4.6209526e-05 Z" id="Shape"></path>
                            </g>
                        </g>
                    </g>
                </g>
            </g>
        </g>
    </g>
</svg>