<?xml version="1.0" encoding="UTF-8"?>
<svg width="17px" height="15px" viewBox="0 0 17 15" version="1.1" xmlns="http://www.w3.org/2000/svg" xmlns:xlink="http://www.w3.org/1999/xlink">
    <!-- Generator: Sketch 46 (44423) - http://www.bohemiancoding.com/sketch -->
    <title>video-player guided tour</title>
    <desc>Created with Sketch.</desc>
    <defs></defs>
    <g id="Project-Kitsune-" stroke="none" stroke-width="1" fill="none" fill-rule="evenodd">
        <g id="Grid-view-of-Projects" transform="translate(-1304.000000, -386.000000)" fill="#5B5B5B">
            <g id="Profile-card" transform="translate(-2.000000, -2.000000)">
                <g id="Card" transform="translate(1263.000000, 134.000000)">
                    <g id="Contents" transform="translate(0.000000, 37.000000)">
                        <g id="video-player-guided-tour" transform="translate(43.000000, 217.000000)">
                            <g id="Capa_1">
                                <g id="Group">
                                    <path d="M13.4978906,0.0126811594 L0.674892704,0.0126811594 C0.302133047,0.0126811594 0,0.312789855 0,0.682971014 L0,11.1712681 C0,11.5414855 0.302133047,11.841558 0.674892704,11.841558 L10.2569828,11.841558 L9.51547639,10.9875362 L7.74441202,10.9875362 L7.74441202,9.91496377 L8.67229828,9.91496377 L8.66562232,9.90684783 C8.42886266,9.63847826 8.27221459,9.36115942 8.19684549,9.0942029 L1.61974249,9.0942029 L1.61974249,2.75996377 L12.5530043,2.75996377 L12.5530043,9.0942029 L11.0860064,9.0942029 C11.3086845,9.32916667 11.5416867,9.56713768 11.7372961,9.75971014 C11.874427,9.63213768 12.0361094,9.49101449 12.2173455,9.34978261 C12.8347811,8.86833333 13.4353627,8.57391304 14.0024185,8.47474638 C14.0594013,8.46481884 14.1162747,8.4573913 14.1728562,8.45130435 L14.1728562,0.682971014 C14.1727833,0.312789855 13.8706502,0.0126811594 13.4978906,0.0126811594 Z M4.70739485,9.91496377 L6.42837124,9.91496377 L6.42837124,10.9874638 L4.70739485,10.9874638 L4.70739485,9.91496377 Z M1.6703412,9.91496377 L3.39135408,9.91496377 L3.39135408,10.9874638 L1.6703412,10.9874638 L1.6703412,9.91496377 Z M3.39135408,1.93916667 L1.6703412,1.93916667 L1.6703412,0.866702899 L3.39135408,0.866702899 L3.39135408,1.93916667 Z M6.42837124,1.93916667 L4.70739485,1.93916667 L4.70739485,0.866702899 L6.42837124,0.866702899 L6.42837124,1.93916667 L6.42837124,1.93916667 Z M9.46538841,1.93916667 L7.74441202,1.93916667 L7.74441202,0.866702899 L9.46538841,0.866702899 L9.46538841,1.93916667 Z M12.5024056,1.93916667 L10.7814292,1.93916667 L10.7814292,0.866702899 L12.5024056,0.866702899 L12.5024056,1.93916667 Z" id="Shape"></path>
                                    <path d="M16.9511888,11.8958333 C16.7835601,10.9985145 16.2085515,10.1689493 15.8806996,9.75416667 C15.4359635,9.19148551 14.8714249,8.96550725 14.2029528,9.0825 C13.7255665,9.16601449 13.2067747,9.42413043 12.6608777,9.84978261 C12.2752039,10.1506159 11.9838691,10.4516304 11.8550923,10.5917754 C11.5313627,10.3148188 10.6274807,9.38978261 10.1836931,8.86818841 C9.96083262,8.60626812 9.38604292,8.0492029 8.95717597,8.43373188 C8.49554936,8.87942029 9.17175536,9.6075 9.18926609,9.62862319 L11.9020429,12.9265942 C11.8910622,12.9411594 11.8788047,12.9538406 11.8647961,12.9648188 C11.6045794,13.1677536 10.8454163,12.7948913 10.5389421,12.5936232 C10.2587704,12.4097101 9.78711159,12.4111232 9.54896567,12.5967391 C9.45367811,12.6711232 9.40085408,12.7721739 9.40030687,12.8813043 C9.39954077,13.0384783 9.503,13.2008696 9.70754721,13.3636594 C9.70984549,13.3655072 9.71400429,13.369058 9.71991416,13.3741304 C10.0221931,13.6313768 10.842206,14.272029 11.9249893,14.6664493 C12.6191073,14.9193116 13.2953498,15.0234783 13.935221,14.9762681 C14.7288219,14.9175362 15.4682489,14.6250725 16.1330365,14.1067029 C16.846088,13.5503986 17.1213712,12.806558 16.9511888,11.8958333 Z" id="Shape"></path>
                                    <path d="M6.41972532,3.67474638 C6.31593777,3.58826087 6.17110944,3.56949275 6.04824249,3.62637681 C5.92548498,3.68326087 5.84697854,3.80565217 5.84697854,3.94021739 L5.84697854,7.59358696 C5.84697854,7.72818841 5.9254485,7.85054348 6.04824249,7.9073913 C6.09533906,7.92927536 6.1456824,7.9398913 6.19569742,7.9398913 C6.27610086,7.9398913 6.35570172,7.91224638 6.41972532,7.85898551 L8.61451288,6.03231884 C8.693603,5.96648551 8.73927682,5.86923913 8.73927682,5.76681159 C8.73927682,5.66438406 8.693603,5.56713768 8.61451288,5.50134058 L6.41972532,3.67474638 Z" id="Shape"></path>
                                </g>
                            </g>
                        </g>
                    </g>
                </g>
            </g>
        </g>
    </g>
</svg>