<?xml version="1.0" encoding="iso-8859-1"?>
<!-- Generator: Adobe Illustrator 19.0.0, SVG Export Plug-In . SVG Version: 6.00 Build 0)  -->
<svg xmlns="http://www.w3.org/2000/svg" xmlns:xlink="http://www.w3.org/1999/xlink" version="1.1" id="Capa_1" x="0px" y="0px" viewBox="0 0 512 512" style="enable-background:new 0 0 512 512;" xml:space="preserve" width="512px" height="512px">
<g>
	<g>
		<rect x="239.268" y="388.183" width="33.464" height="107.085" fill="#8B8B8B"/>
	</g>
</g>
<g>
	<g>
		<path d="M433.359,478.536H78.64c-9.242,0-16.732,7.49-16.732,16.732S69.399,512,78.64,512h354.719    c9.242,0,16.732-7.49,16.732-16.732S442.601,478.536,433.359,478.536z" fill="#8B8B8B"/>
	</g>
</g>
<g>
	<g>
		<path d="M469.054,0H42.946c-9.242,0-16.732,7.49-16.732,16.732V172.34c0,9.242,7.49,16.732,16.732,16.732h426.109    c9.242,0,16.732-7.49,16.732-16.732V16.732C485.786,7.49,478.296,0,469.054,0z M452.322,155.608H59.678V33.464h392.645V155.608z" fill="#8B8B8B"/>
	</g>
</g>
<g>
	<g>
		<path d="M411.05,78.083H237.037c-9.242,0-16.732,7.49-16.732,16.732s7.49,16.732,16.732,16.732H411.05    c9.242,0,16.732-7.49,16.732-16.732S420.292,78.083,411.05,78.083z" fill="#8B8B8B"/>
	</g>
</g>
<g>
	<g>
		<path d="M137.203,45.734c-27.061,0-49.081,22.019-49.081,49.081s22.019,49.081,49.081,49.081    c27.061,0,49.081-22.019,49.081-49.081S164.269,45.734,137.203,45.734z M137.203,110.431c-8.611,0-15.617-7.005-15.617-15.617    c0-8.611,7.005-15.617,15.617-15.617c8.611,0,15.617,7.005,15.617,15.617S145.814,110.431,137.203,110.431z" fill="#8B8B8B"/>
	</g>
</g>
<g>
	<g>
		<path d="M469.054,217.516H42.946c-9.242,0-16.732,7.49-16.732,16.732v155.608c0,9.242,7.49,16.732,16.732,16.732h426.109    c9.242,0,16.732-7.485,16.732-16.732V234.248C485.786,225.007,478.296,217.516,469.054,217.516z M452.322,373.124H59.678V250.98    h392.645V373.124z" fill="#8B8B8B"/>
	</g>
</g>
<g>
	<g>
		<path d="M411.05,295.599H237.037c-9.242,0-16.732,7.49-16.732,16.732c0,9.242,7.49,16.732,16.732,16.732H411.05    c9.242,0,16.732-7.49,16.732-16.732C427.782,303.089,420.292,295.599,411.05,295.599z" fill="#8B8B8B"/>
	</g>
</g>
<g>
	<g>
		<path d="M137.203,263.251c-27.061,0-49.081,22.014-49.081,49.081s22.019,49.081,49.081,49.081    c27.061,0,49.081-22.014,49.081-49.081S164.269,263.251,137.203,263.251z M137.203,327.948c-8.611,0-15.617-7.005-15.617-15.617    c0-8.611,7.005-15.617,15.617-15.617c8.611,0,15.617,7.005,15.617,15.617C152.819,320.943,145.814,327.948,137.203,327.948z" fill="#8B8B8B"/>
	</g>
</g>
<g>
	<g>
		<rect x="239.268" y="172.34" width="33.464" height="61.909" fill="#8B8B8B"/>
	</g>
</g>
<g>
</g>
<g>
</g>
<g>
</g>
<g>
</g>
<g>
</g>
<g>
</g>
<g>
</g>
<g>
</g>
<g>
</g>
<g>
</g>
<g>
</g>
<g>
</g>
<g>
</g>
<g>
</g>
<g>
</g>
</svg>
