<svg xmlns="http://www.w3.org/2000/svg" viewBox="0 0 231.42 135.33"><defs><style>.cls-1{fill:#f06428;}.cls-2{fill:#f05a26;}</style></defs><title>Asset 4</title><g id="Layer_2" data-name="Layer 2"><g id="Layer_1-2" data-name="Layer 1"><path d="M29.6,83.57v2.82a2.18,2.18,0,1,1-4.37,0V83.57c0-7.56-5.11-10.91-10.44-10.91S4.36,76,4.36,83.57v2.82a2.16,2.16,0,0,1-2.18,2.18A2.16,2.16,0,0,1,0,86.38V47.73a2.16,2.16,0,0,1,2.18-2.18,2.16,2.16,0,0,1,2.18,2.18V69.61A1.32,1.32,0,0,0,5.7,70.95a1.67,1.67,0,0,0,.69-.27,18.76,18.76,0,0,1,4.47-1.92,2.2,2.2,0,0,0,1.28-.86l5.59-8.09a2.11,2.11,0,0,1,1.81-.91,2.13,2.13,0,0,1,1.76,3.41l-3,4.47a1.58,1.58,0,0,0-.27.8,1.13,1.13,0,0,0,1,1.22c5.75,1.6,10.65,6.33,10.65,14.75"/><path d="M39.26,50.72a2.1,2.1,0,1,1-2.18,2.13,2,2,0,0,1,2.18-2.13M37.08,62.16a2.18,2.18,0,0,1,4.37,0V76.43a11.26,11.26,0,0,0,5.11,9.16,2.2,2.2,0,0,1-1.12,4c-2,0-4.63-3.09-5.86-5a15,15,0,0,1-2.5-7.93Z"/><path d="M61,74.3c0,7.56,5.11,11,10.43,11a2.18,2.18,0,1,1,0,4.37c-7.24,0-14.8-5-14.8-15.34V65.62a1.85,1.85,0,0,0-1.86-1.87H53a1.88,1.88,0,0,1-1.86-1.86A1.85,1.85,0,0,1,53,60h1.81a1.89,1.89,0,0,0,1.86-1.87V47.73a2.18,2.18,0,0,1,4.37,0V58.17A1.89,1.89,0,0,0,62.88,60h6.55a1.85,1.85,0,0,1,1.86,1.87,1.88,1.88,0,0,1-1.86,1.86H62.88A1.85,1.85,0,0,0,61,65.62Z"/><path d="M161,74.3c0,10.38-7.51,15.34-14.8,15.34s-14.8-5-14.8-15.34V62.16a2.18,2.18,0,0,1,4.37,0V74.3c0,7.56,5.22,11,10.44,11s10.49-3.41,10.49-11V62.16A2.12,2.12,0,0,1,158.81,60,2.16,2.16,0,0,1,161,62.16Z"/><path d="M197.06,86.38a2.16,2.16,0,0,1-2.18,2.19,2.12,2.12,0,0,1-2.13-2.19V74.3c0-7.56-5.22-11-10.49-11s-10.44,3.41-10.44,11V86.38a2.18,2.18,0,1,1-4.37,0V74.3C167.45,63.92,175,59,182.26,59s14.8,5,14.8,15.33Z"/><path d="M206.55,64.45A14.74,14.74,0,0,1,218.42,59c7.45,0,13,4.68,13,10.49S226.14,80,217.89,80a13.41,13.41,0,0,1-10-4.1c.69,6.45,5.48,9.37,10.38,9.37a11.25,11.25,0,0,0,4.58-1,2.05,2.05,0,0,1,1-.21A2.16,2.16,0,0,1,226,86.28a2.22,2.22,0,0,1-1.33,2,15.11,15.11,0,0,1-6.39,1.33c-7.24,0-14.8-5-14.8-15.34a15.78,15.78,0,0,1,3.09-9.85m2.61,5.06c0,3,4.26,6.12,9.21,6.12,5.8,0,8.68-3.3,8.68-6.12,0-2.29-2.45-6.12-8.68-6.12-4.42,0-9.21,2.71-9.21,6.12"/><path class="cls-1" d="M96,48.72c-7.84-8-7.92-16.4-6.61-22.2,2-8.79,12.42-13.68,18.06-17.9A56,56,0,0,0,116.22,0S113.5,17.15,105,20.17c0,0-21.56,4.19-9,28.55"/><path class="cls-1" d="M111.37,18.7c-.55.36-2.87,1.75-2.87,1.75A14.8,14.8,0,0,1,115,21.56c10.05-4.65,9.22-15.75,9.22-15.75s-2.17,5.91-12.9,12.89"/><path class="cls-1" d="M133.31,50.12a5.59,5.59,0,0,1-.61.3,13.61,13.61,0,0,1-1.82.67c-.4.12-.86.24-1.36.34s-1,.19-1.64.25a18.84,18.84,0,0,1-1.9.11,19.59,19.59,0,0,1-2.11-.11,25.49,25.49,0,0,1-4.19-1c-.46-.16-.91-.33-1.36-.52a20.79,20.79,0,0,1-2.61-1.33q-.58-.35-1.14-.73c-.38-.26-.74-.53-1.11-.81l-.52-.38-.24-.16-.25-.17a10.09,10.09,0,0,0-2.17-1,7.68,7.68,0,0,0-2.33-.43,6.46,6.46,0,0,0-2.24.34,3.63,3.63,0,0,0-2.66,2.82c-.24,2.09,1.18,3.62,2.55,4.89a18,18,0,0,0,2.06,1.59c.47.31,5.5,3.63,6.54,4.53a26.38,26.38,0,0,1,4.36,4.84,27.65,27.65,0,0,0-8.86-6.95c-.57-.29-1.11-.64-1.65-1s-1.09-.67-1.62-1c-2.63-1.76-5.48-3.74-5.47-6.93a6.06,6.06,0,0,1,1-3.18,6.61,6.61,0,0,1,2.79-2,8.11,8.11,0,0,1,3.34-.47,10.2,10.2,0,0,1,3.14.69,12.5,12.5,0,0,1,2.66,1.45l.3.22.3.24.52.43c.32.27.64.54,1,.79a22.46,22.46,0,0,0,2,1.4A20.63,20.63,0,0,0,120,49a19.08,19.08,0,0,0,4.1,1.42,18.8,18.8,0,0,0,1.94.33c.62.07,1.22.11,1.78.13s1.09,0,1.58,0,.94-.08,1.35-.13a17.67,17.67,0,0,0,1.87-.36l.66-.19"/><path class="cls-2" d="M129,45.35s0,.85.11,1.22c1,5.66,6.9,1.5,6.9,1.5a25.34,25.34,0,0,1-7-2.73"/><path class="cls-1" d="M84.81,28.16S64.1,49.4,92.89,63.91c0,0-22.65-12.94-8.08-35.76"/><path class="cls-1" d="M123.34,33.8c-3-12.05-14.17-13.87-22.07-9.76-6.59,3.43-10.36,11-2.51,24.68,0,0-3.6-8.83-.47-12.49a12.13,12.13,0,0,0,2,8.77s-2.56-6.45,4-8.22c5.45-1.48,11.37,3.35,17.85,7.92,2.34,1.66,4.79,1.93,8.11,1.57C130.25,46.26,125.75,43.58,123.34,33.8Zm-7.13-2.32,4.91,4C118.66,38.16,116.21,31.47,116.21,31.47Z"/><path class="cls-1" d="M88.92,21.56a113.6,113.6,0,0,0-8.54,10.81c-.81,1.24-1.57,2.5-2.25,3.81a29.45,29.45,0,0,0-1.62,4,21.26,21.26,0,0,0-.37,12.55,23.19,23.19,0,0,0,1.56,4.06A26.57,26.57,0,0,0,80,60.58a31.89,31.89,0,0,0,3,3.5,42.92,42.92,0,0,0,17.55,10.4A38.48,38.48,0,0,1,81,65.66a31.18,31.18,0,0,1-3.33-3.49A26.79,26.79,0,0,1,75,58.27a22.93,22.93,0,0,1-1.81-4.21,22,22,0,0,1,.06-13.48A26.34,26.34,0,0,1,75,36.32a31.11,31.11,0,0,1,1.65-2.7c.59-.88,2-2.61,2.72-3.44,2.94-3.48,5.52-5.36,8.89-8.14.42-.32.64-.48.64-.48"/><path class="cls-1" d="M104.76,57.15s16.79,6.32,21,20.54c4.93,16.68-12.24,32.66-55.76,32.11,0,0,37.23-3.48,42.91-22.88s-8.14-29.77-8.14-29.77"/><path class="cls-1" d="M95.48,110.18c-9.91.51-30.51,5-35.78-1.93C52.49,98.7,75.36,90.92,75.36,90.92S58.68,94.39,54.5,102.18c-4.1,7.64-1.49,23.38,32.34,24.14,3.22.08,20.07-.21,26.55,1.48,5.11,1.33,9.72,3.63,10.94,7.54C124.33,135.33,130.47,108.38,95.48,110.18ZM93.13,123.5l4.15-3-4.49-2.78,4.66-2-4.66-3c11.85-.85,19.86,1.53,24,6.6a20.59,20.59,0,0,1,4.26,8.09C112.84,121,93.13,123.5,93.13,123.5Z"/></g></g></svg>