<?xml version="1.0" encoding="UTF-8"?>
<svg width="13px" height="12px" viewBox="0 0 13 12" version="1.1" xmlns="http://www.w3.org/2000/svg" xmlns:xlink="http://www.w3.org/1999/xlink">
    <!-- Generator: Sketch 46 (44423) - http://www.bohemiancoding.com/sketch -->
    <title>web blog</title>
    <desc>Created with Sketch.</desc>
    <defs></defs>
    <g id="Project-Kitsune-" stroke="none" stroke-width="1" fill="none" fill-rule="evenodd">
        <g id="List-view-of-Projects-Context-menu" transform="translate(-1306.000000, -472.000000)">
            <g id="Profile-card" transform="translate(-2.000000, -2.000000)">
                <g id="Card" transform="translate(1263.000000, 134.000000)">
                    <g id="Contents" transform="translate(0.000000, 37.000000)">
                        <g id="web-blog" transform="translate(45.000000, 303.333333)">
                            <g id="Layer_1">
                                <path d="M0,0.0129623116 L0,2.32329397 L5.48257227,2.32329397 L6.79849219,0.0129623116 L0,0.0129623116 L0,0.0129623116 Z M1.72448047,1.60132915 L0.928560547,1.60132915 L0.928560547,0.734954774 L1.72448047,0.734954774 L1.72448047,1.60132915 Z M3.05101367,1.60132915 L2.25509375,1.60132915 L2.25509375,0.734954774 L3.05101367,0.734954774 L3.05101367,1.60132915 L3.05101367,1.60132915 Z M4.37754687,1.60132915 L3.58162695,1.60132915 L3.58162695,0.734954774 L4.37754687,0.734954774 L4.37754687,1.60132915 Z" id="Shape" fill="#5B5B5B"></path>
                                <polygon id="Combined-Shape" fill="#5B5B5B" points="0 3.18966834 0 10.9870101 13 10.9870101 13 3.18966834"></polygon>
                                <text id="B" font-family="Roboto-BlackItalic, Roboto" font-size="6" font-style="italic" font-weight="700" fill="#FFFFFF">
                                    <tspan x="5" y="9">B</tspan>
                                </text>
                                <polygon id="Shape" fill="#5B5B5B" points="7.73497461 0.0129623116 6.41905469 2.32329397 13 2.32329397 13 0.0129623116"></polygon>
                            </g>
                        </g>
                    </g>
                </g>
            </g>
        </g>
    </g>
</svg>