<?xml version="1.0" encoding="UTF-8"?>
<svg width="36px" height="28px" viewBox="0 0 36 28" version="1.1" xmlns="http://www.w3.org/2000/svg" xmlns:xlink="http://www.w3.org/1999/xlink">
  <!-- Generator: Sketch 41.1 (35376) - http://www.bohemiancoding.com/sketch -->
  <title>Live Site</title>
  <desc>Created with Sketch.</desc>
  <defs></defs>
  <g id="Project-Kitsune-" stroke="none" stroke-width="1" fill="none" fill-rule="evenodd">
    <g id="Dashboard" transform="translate(-38.000000, -648.000000)" fill="#777777">
      <g id="Project-Dashboard" transform="translate(-1.000000, -2.000000)">
        <g id="Side-menu">
          <g id="Live-site" transform="translate(28.000000, 650.500000)">
            <g id="Live-Site" transform="translate(11.000000, 0.000000)">
              <g id="web-shop">
                <g id="Capa_1">
                  <g id="Group">
                    <path d="M33.6814091,0 L2.44445455,0 C1.12159091,0 0,1.07618182 0,2.39904545 L0,24.636 C0,25.9615909 1.09922727,27 2.44445455,27 L33.6814091,27 C35.007,27 36,25.9615909 36,24.636 L36,2.39904545 C36,1.05381818 35.007,0 33.6814091,0 Z M8.21263636,1.36704545 C8.69727273,1.36704545 9.09136364,1.76127273 9.09136364,2.24577273 C9.09136364,2.73027273 8.69713636,3.1245 8.21263636,3.1245 C7.72813636,3.1245 7.33390909,2.73027273 7.33390909,2.24577273 C7.33390909,1.76127273 7.728,1.36704545 8.21263636,1.36704545 Z M5.68990909,1.36704545 C6.17454545,1.36704545 6.56863636,1.76127273 6.56863636,2.24577273 C6.56863636,2.73027273 6.17440909,3.1245 5.68990909,3.1245 C5.20540909,3.1245 4.81118182,2.73027273 4.81118182,2.24577273 C4.81118182,1.76127273 5.20527273,1.36704545 5.68990909,1.36704545 Z M3.16718182,1.36704545 C3.65181818,1.36704545 4.04590909,1.76127273 4.04590909,2.24577273 C4.04590909,2.73027273 3.65168182,3.1245 3.16718182,3.1245 C2.68268182,3.1245 2.28845455,2.73027273 2.28845455,2.24577273 C2.28845455,1.76127273 2.68254545,1.36704545 3.16718182,1.36704545 Z M33.8181818,24.75 C33.8181818,24.7876364 33.8330455,24.8181818 33.7954091,24.8181818 L33.7272273,24.8181818 L2.29540909,24.8181818 L2.18181818,24.8181818 L2.18181818,24.75 L2.18181818,4.63636364 L2.18181818,4.56818182 C2.18181818,4.53054545 2.25777273,4.5 2.29540909,4.5 L33.7954091,4.5 C33.8330455,4.5 33.8181818,4.53054545 33.8181818,4.56818182 L33.8181818,24.75 Z M32.9848636,3.13636364 L23.4394091,3.13636364 C22.9547727,3.13636364 22.5606818,2.73954545 22.5606818,2.25177273 C22.5606818,1.764 22.9549091,1.36718182 23.4394091,1.36718182 L32.9848636,1.37018182 C33.4695,1.37018182 33.8635909,1.76563636 33.8635909,2.25190909 C33.8635909,2.73954545 33.4693636,3.13636364 32.9848636,3.13636364 Z" id="Shape"></path>
                    <g transform="translate(4.500000, 8.181818)" id="Shape">
                      <path d="M0.939409091,1.77272727 L10.4848636,1.77272727 C10.9695,1.77272727 11.3635909,1.3755 11.3635909,0.887181818 C11.3635909,0.400909091 10.9693636,0.00504545455 10.4848636,0.00504545455 L0.939409091,0.00177272727 C0.454772727,0.00177272727 0.0606818182,0.399 0.0606818182,0.887181818 C0.0605454545,1.3755 0.454772727,1.77272727 0.939409091,1.77272727 Z"></path>
                      <path d="M10.4848636,3.00504545 L0.939409091,3.00177273 C0.454772727,3.00177273 0.0606818182,3.399 0.0606818182,3.88718182 C0.0606818182,4.3755 0.454909091,4.77272727 0.939409091,4.77272727 L10.4848636,4.77272727 C10.9695,4.77272727 11.3635909,4.3755 11.3635909,3.88718182 C11.3635909,3.40077273 10.9693636,3.00504545 10.4848636,3.00504545 Z"></path>
                      <path d="M10.4848636,6.00504545 L0.939409091,6.00177273 C0.454772727,6.00177273 0.0606818182,6.399 0.0606818182,6.88718182 C0.0606818182,7.3755 0.454909091,7.77272727 0.939409091,7.77272727 L10.4848636,7.77272727 C10.9695,7.77272727 11.3635909,7.3755 11.3635909,6.88718182 C11.3635909,6.40077273 10.9693636,6.00504545 10.4848636,6.00504545 Z"></path>
                      <path d="M10.4848636,9.00504545 L0.939409091,9.00177273 C0.454772727,9.00177273 0.0606818182,9.399 0.0606818182,9.88718182 C0.0606818182,10.3755 0.454909091,10.7727273 0.939409091,10.7727273 L10.4848636,10.7727273 C10.9695,10.7727273 11.3635909,10.3755 11.3635909,9.88718182 C11.3635909,9.40077273 10.9693636,9.00504545 10.4848636,9.00504545 Z"></path>
                    </g>
                    <path d="M29.8408636,7.90909091 L19.7499545,7.90909091 C18.81,7.90909091 18,8.67368182 18,9.61363636 L18,9.68181818 L18,19.7045455 L18,19.7727273 C18,20.6764091 18.7780909,21.4090909 19.6817727,21.4090909 L19.7499545,21.4090909 L29.7726818,21.4090909 L29.8408636,21.4090909 C30.7808182,21.4090909 31.5,20.6445 31.5,19.7045455 L31.5,9.61363636 C31.5,8.67368182 30.7808182,7.90909091 29.8408636,7.90909091 Z" id="Shape"></path>
                  </g>
                </g>
              </g>
            </g>
          </g>
        </g>
      </g>
    </g>
  </g>
</svg>
