<?xml version="1.0" encoding="UTF-8"?>
<svg width="43px" height="32px" viewBox="0 0 43 32" version="1.1" xmlns="http://www.w3.org/2000/svg" xmlns:xlink="http://www.w3.org/1999/xlink">
    <!-- Generator: Sketch 50.2 (55047) - http://www.bohemiancoding.com/sketch -->
    <title>Combined Shape</title>
    <desc>Created with Sketch.</desc>
    <defs></defs>
    <g id="Symbols" stroke="none" stroke-width="1" fill="none" fill-rule="evenodd">
        <g id="2.-live-sites-menu" transform="translate(-43.000000, -387.000000)" fill="#FFFFFF">
            <g id="Side-menu" transform="translate(0.000000, 0.400000)">
                <g id="Live-site" transform="translate(36.000000, 387.400000)">
                    <path d="M47.230572,0 L9.91976515,0 C8.33967803,0 7,1.23561616 7,2.7544596 L7,28.2857778 C7,29.8077525 8.31296591,31 9.91976515,31 L47.230572,31 C48.8139167,31 50,29.8077525 50,28.2857778 L50,2.7544596 C50,1.20993939 48.8139167,0 47.230572,0 Z M16.8095379,1.56957071 C17.3884091,1.56957071 17.8591288,2.02220202 17.8591288,2.5784798 C17.8591288,3.13475758 17.3882462,3.58738889 16.8095379,3.58738889 C16.2308295,3.58738889 15.759947,3.13475758 15.759947,2.5784798 C15.759947,2.02220202 16.2306667,1.56957071 16.8095379,1.56957071 Z M13.7962803,1.56957071 C14.3751515,1.56957071 14.8458712,2.02220202 14.8458712,2.5784798 C14.8458712,3.13475758 14.3749886,3.58738889 13.7962803,3.58738889 C13.217572,3.58738889 12.7466894,3.13475758 12.7466894,2.5784798 C12.7466894,2.02220202 13.2174091,1.56957071 13.7962803,1.56957071 Z M10.7830227,1.56957071 C11.3618939,1.56957071 11.8326136,2.02220202 11.8326136,2.5784798 C11.8326136,3.13475758 11.3617311,3.58738889 10.7830227,3.58738889 C10.2043144,3.58738889 9.73343182,3.13475758 9.73343182,2.5784798 C9.73343182,2.02220202 10.2041515,1.56957071 10.7830227,1.56957071 Z M46.27613,3.6010101 L21.6188321,3.6010101 C20.4369218,3.6010101 20.164956,3.14540404 20.164956,2.58536869 C20.164956,2.02533333 20.4372543,1.56972727 21.6188321,1.56972727 L46.27613,1.57317172 C47.4580404,1.57317172 47.7300061,2.02721212 47.7300061,2.58552525 C47.7300061,3.14540404 47.4577078,3.6010101 46.27613,3.6010101 Z M13.1525088,13.7958118 C12.5736376,13.7958118 12.1027551,13.339736 12.1029179,12.7790744 C12.1029179,12.2185694 12.5736376,11.7624936 13.1525088,11.7624936 L24.554024,11.7662512 C25.1327323,11.7662512 25.6036149,12.2207613 25.6036149,12.7790744 C25.6036149,13.339736 25.1328952,13.7958118 24.554024,13.7958118 L13.1525088,13.7958118 Z M24.554024,15.2106956 C25.1327323,15.2106956 25.6036149,15.6650492 25.6036149,16.2235189 C25.6036149,16.7841805 25.1328952,17.2402562 24.554024,17.2402562 L13.1525088,17.2402562 C12.5738005,17.2402562 12.1029179,16.7841805 12.1029179,16.2235189 C12.1029179,15.6630138 12.5736376,15.206938 13.1525088,15.206938 L24.554024,15.2106956 Z M24.554024,18.6551401 C25.1327323,18.6551401 25.6036149,19.1094936 25.6036149,19.6679633 C25.6036149,20.2286249 25.1328952,20.6847007 24.554024,20.6847007 L13.1525088,20.6847007 C12.5738005,20.6847007 12.1029179,20.2286249 12.1029179,19.6679633 C12.1029179,19.1074582 12.5736376,18.6513825 13.1525088,18.6513825 L24.554024,18.6551401 Z M24.554024,22.0995845 C25.1327323,22.0995845 25.6036149,22.553938 25.6036149,23.1124077 C25.6036149,23.6730694 25.1328952,24.1291451 24.554024,24.1291451 L13.1525088,24.1291451 C12.5738005,24.1291451 12.1029179,23.6730694 12.1029179,23.1124077 C12.1029179,22.5519027 12.5736376,22.0958269 13.1525088,22.0958269 L24.554024,22.0995845 Z M42.6432538,9.4188822 C43.7659773,9.4188822 44.625,10.2967458 44.625,11.3759529 L44.625,22.9618115 C44.625,24.0410186 43.7659773,24.9188822 42.6432538,24.9188822 L42.5618144,24.9188822 L30.5902235,24.9188822 L30.5087841,24.9188822 C29.4293864,24.9188822 28.5,24.0776549 28.5,23.0400943 L28.5,22.9618115 L28.5,11.4542357 L28.5,11.3759529 C28.5,10.2967458 29.4675,9.4188822 30.5902235,9.4188822 L42.6432538,9.4188822 Z M35.4599085,15.3084223 C35.3999661,15.2612391 35.3258979,15.235585 35.2496133,15.235585 C35.0618364,15.235585 34.9096133,15.3878082 34.9096133,15.575585 L34.9096133,19.5869759 C34.9096133,19.6628863 34.9350167,19.7366134 34.9817767,19.7964122 C35.0974452,19.9443343 35.3111276,19.9704809 35.4590496,19.8548124 L38.0155434,17.8557474 C38.0370233,17.8389511 38.0564046,17.8196319 38.0732698,17.7982061 C38.1894126,17.6506562 38.1639522,17.436891 38.0164023,17.3207481 L35.4599085,15.3084223 Z" id="Combined-Shape"></path>
                </g>
            </g>
        </g>
    </g>
</svg>