<?xml version="1.0" encoding="UTF-8"?>
<svg width="274px" height="214px" viewBox="0 0 274 214" version="1.1" xmlns="http://www.w3.org/2000/svg" xmlns:xlink="http://www.w3.org/1999/xlink">
    <!-- Generator: Sketch 50.2 (55047) - http://www.bohemiancoding.com/sketch -->
    <title>Group 21</title>
    <desc>Created with Sketch.</desc>
    <defs></defs>
    <g id="Project-Kitsune-" stroke="none" stroke-width="1" fill="none" fill-rule="evenodd">
        <g id="Live-sites--Alicloud" transform="translate(-888.000000, -535.000000)">
            <g id="All-live-sites" transform="translate(-0.200000, -0.400000)">
                <g id="Zeroth---all-sites" transform="translate(132.200000, 246.400000)">
                    <g id="Zeroth-case--normal" transform="translate(424.000000, 234.400000)">
                        <g id="1-copy" transform="translate(73.000000, 56.000000)">
                            <g id="Group-21" transform="translate(260.000000, 0.000000)">
                                <path d="M219.866667,63.0769231 C211.933333,28.2269231 177.933333,0 136,0 C103.133333,0 74.8,16.4 61.2,41 C26.0666667,45.1 0,70.725 0,102.5 C0,136.325 30.6,164 68,164 L215.333333,164 C247.066667,164 272,141.45 272,112.75 C272,86.1 248.2,65.1269231 219.866667,63.0769231 Z" id="Shape" stroke="#BBBBBB" fill="#F1F1F1" fill-rule="nonzero" stroke-dasharray="6,6"></path>
                                <path d="M175.203523,145 L97.1111364,145 C93.8039773,145 91,147.670525 91,150.953187 L91,206.133778 C91,209.423207 93.7480682,212 97.1111364,212 L175.203523,212 C178.5175,212 181,209.423207 181,206.133778 L181,150.953187 C181,147.61503 178.5175,145 175.203523,145 Z M111.531591,148.392298 C112.743182,148.392298 113.728409,149.370566 113.728409,150.572843 C113.728409,151.775121 112.742841,152.753389 111.531591,152.753389 C110.320341,152.753389 109.334773,151.775121 109.334773,150.572843 C109.334773,149.370566 110.32,148.392298 111.531591,148.392298 Z M105.224773,148.392298 C106.436364,148.392298 107.421591,149.370566 107.421591,150.572843 C107.421591,151.775121 106.436023,152.753389 105.224773,152.753389 C104.013523,152.753389 103.027955,151.775121 103.027955,150.572843 C103.027955,149.370566 104.013182,148.392298 105.224773,148.392298 Z M98.9179545,148.392298 C100.129545,148.392298 101.114773,149.370566 101.114773,150.572843 C101.114773,151.775121 100.129205,152.753389 98.9179545,152.753389 C97.7067045,152.753389 96.7211364,151.775121 96.7211364,150.572843 C96.7211364,149.370566 97.7063636,148.392298 98.9179545,148.392298 Z M173.205853,152.782828 L121.597556,152.782828 C119.12379,152.782828 118.554559,151.798131 118.554559,150.587732 C118.554559,149.377333 119.124486,148.392636 121.597556,148.392636 L173.205853,148.400081 C175.679619,148.400081 176.24885,149.381394 176.24885,150.588071 C176.24885,151.798131 175.678923,152.782828 173.205853,152.782828 Z M103.877344,174.816755 C102.665753,174.816755 101.680185,173.831042 101.680526,172.61929 C101.680526,171.407876 102.665753,170.422164 103.877344,170.422164 L127.74098,170.430285 C128.95223,170.430285 129.937799,171.412613 129.937799,172.61929 C129.937799,173.831042 128.952571,174.816755 127.74098,174.816755 L103.877344,174.816755 Z M127.74098,177.874729 C128.95223,177.874729 129.937799,178.856719 129.937799,180.063734 C129.937799,181.275487 128.952571,182.261199 127.74098,182.261199 L103.877344,182.261199 C102.666094,182.261199 101.680526,181.275487 101.680526,180.063734 C101.680526,178.85232 102.665753,177.866608 103.877344,177.866608 L127.74098,177.874729 Z M127.74098,185.319174 C128.95223,185.319174 129.937799,186.301164 129.937799,187.508179 C129.937799,188.719931 128.952571,189.705643 127.74098,189.705643 L103.877344,189.705643 C102.666094,189.705643 101.680526,188.719931 101.680526,187.508179 C101.680526,186.296765 102.665753,185.311052 103.877344,185.311052 L127.74098,185.319174 Z M127.74098,192.763618 C128.95223,192.763618 129.937799,193.745608 129.937799,194.952623 C129.937799,196.164376 128.952571,197.150088 127.74098,197.150088 L103.877344,197.150088 C102.666094,197.150088 101.680526,196.164376 101.680526,194.952623 C101.680526,193.741209 102.665753,192.755497 103.877344,192.755497 L127.74098,192.763618 Z M165.602159,165.356939 C167.952045,165.356939 169.75,167.254257 169.75,169.586737 L169.75,194.627141 C169.75,196.959621 167.952045,198.856939 165.602159,198.856939 L165.431705,198.856939 L140.374886,198.856939 L140.204432,198.856939 C137.945227,198.856939 136,197.038803 136,194.796333 L136,194.627141 L136,169.755929 L136,169.586737 C136,167.254257 138.025,165.356939 140.374886,165.356939 L165.602159,165.356939 Z M150.589603,178.104113 C150.461246,177.999783 150.30088,177.942829 150.13547,177.942829 C149.737825,177.942829 149.41547,178.265184 149.41547,178.662829 L149.41547,187.333793 C149.41547,187.498404 149.471875,187.658045 149.575288,187.786117 C149.8251,188.095497 150.278414,188.143786 150.587794,187.893975 L155.939326,183.572824 C155.97839,183.541281 156.014048,183.505739 156.045717,183.466777 C156.296528,183.158207 156.249705,182.704739 155.941135,182.453928 L150.589603,178.104113 Z" id="Combined-Shape" fill="#BBBBBB"></path>
                                <g id="Group-20" transform="translate(41.000000, 87.000000)" fill-rule="nonzero">
                                    <g id="Alibaba-Cloud" transform="translate(0.000000, 4.062500)" fill="#333232">
                                        <path d="M18.4,9.26642749 C18.4,8.9375 18.4,8.9375 18.1171927,8.9375 L13.2969922,8.9375 C12.8,8.94486405 12.8145563,8.94486405 12.8,9.50453172 C12.8,9.69845166 12.8499072,9.75 13.0079465,9.75 C13.8584478,9.75 14.7110286,9.75 15.5615299,9.75 L17.9820275,9.75 C18.3958411,9.74754532 18.3958411,9.75 18.4,9.26642749 Z" id="Shape"></path>
                                        <path d="M30.3994973,4.60602463 C30.4083244,4.07996229 30.3008027,3.55888401 30.0853268,3.083472 C29.8906827,2.61293665 29.6138041,2.18453459 29.2689109,1.82026755 C29.0659917,1.54263462 28.8271915,1.29583323 28.5593558,1.08693823 C28.4409089,0.924858932 28.2818623,0.800267273 28.0998547,0.726980858 C27.8168797,0.527592081 27.5019911,0.382955459 27.1701665,0.299950679 L27.1338339,0.299950679 C27.1081873,0.275357318 27.0868152,0.239585156 27.0590314,0.230642116 C26.6428036,0.0976426077 26.2116655,0.0224730074 25.7767028,0.007066106 L17.8326775,0.007066106 C17.768561,0.007066106 17.6894841,-0.0287060556 17.6446026,0.0607243484 C17.5997211,0.150154752 17.6125444,0.176983874 17.6446026,0.232877876 C17.6415087,0.242295864 17.6415087,0.25252477 17.6446026,0.261942757 C17.6937585,0.485518768 17.7407772,0.726980858 17.7963448,0.959499909 C17.9096172,1.44689561 18.0100662,1.93652707 18.1489852,2.41497973 C18.2152388,2.63855574 18.1917295,2.91355424 18.3883532,3.08570776 C19.0102825,3.27351161 24.0476965,4.38244862 24.481551,4.48529359 C24.6952724,4.54118759 24.9089939,4.60155311 25.1227153,4.65073984 C25.7394814,4.80338071 26.172704,5.38288009 26.1656758,6.04585414 C26.1656758,8.50519025 26.1656758,10.948876 26.1656758,13.4015049 C26.1731247,13.7079723 26.0991399,14.0105916 25.9519544,14.2756871 C25.7820174,14.480431 25.5889712,14.6628594 25.3770438,14.8189768 C25.3770438,14.8189768 24.2827901,15.1386905 24.2143992,15.1543408 C23.5582744,15.2996652 22.9064241,15.4762902 22.2438877,15.6014928 C22.2218521,15.5993177 22.1996696,15.5993177 22.177634,15.6014928 C22.0653877,15.6493407 21.9460909,15.6765692 21.8249937,15.6819802 C21.6112723,15.7378742 21.4146485,15.7848251 21.2073388,15.8250688 C20.9092731,15.932833 20.601271,16.0077641 20.2883366,16.0486448 C19.7283865,16.1850262 19.1684364,16.3147003 18.6042118,16.4354313 C18.4738417,16.4644962 18.3605694,16.5002684 18.33706,16.6590073 C18.3421645,16.6744908 18.3486026,16.6894573 18.3562949,16.7037225 C18.3562949,16.7037225 18.3562949,16.7238444 18.3562949,16.7327874 C18.345122,16.7294329 18.3332725,16.7294329 18.3220995,16.7327874 C18.318577,16.7320025 18.314936,16.7320025 18.3114134,16.7327874 C18.3070114,16.7262344 18.2998348,16.7223342 18.2921785,16.7223342 C18.2845223,16.7223342 18.2773456,16.7262344 18.2729436,16.7327874 C18.0763199,17.5376611 17.8804086,18.3425347 17.6852097,19.1474083 C17.5377419,19.4447644 17.5676629,19.4984227 17.8861078,19.4984227 C20.3567275,19.4984227 22.8273472,19.4984227 25.2979668,19.4984227 C25.9962986,19.5155798 26.6913071,19.3926332 27.3454181,19.1362295 C27.405859,19.1164318 27.4613391,19.0828307 27.5078464,19.0378561 L27.604021,18.9663118 C27.9160543,18.9126535 28.1447362,18.6957848 28.3969275,18.5191597 C28.7124314,18.3033574 28.9967245,18.0413428 29.2411271,17.7411152 C29.3073808,17.6695709 29.4035554,17.6226199 29.4014182,17.5018889 L29.5296511,17.3297354 C29.6899746,17.1065802 29.8329146,16.8703213 29.9570939,16.6232352 C30.0440236,16.4609988 30.1156036,16.2902711 30.1708153,16.1134819 C30.1781169,16.1203137 30.1891603,16.1203137 30.1964619,16.1134819 C30.2674904,15.9280045 30.3232603,15.7365251 30.3631646,15.5411273 C30.3887618,15.4490205 30.3974638,15.3526779 30.3888112,15.2571858 C30.3909484,11.7023272 30.3845368,8.15417591 30.3994973,4.60602463 Z M18.2301993,17.2939632 C18.2280693,17.294222 18.2259177,17.294222 18.2237877,17.2939632 L18.2301993,17.2939632 Z M27.633942,18.9461899 L27.6168443,18.9663118 C27.6143489,18.9598585 27.6143489,18.9526432 27.6168443,18.9461899 L27.633942,18.9461899 Z" id="Shape"></path>
                                        <path d="M13.4877831,19.0901908 C13.5035088,18.9249272 13.4046616,18.7842297 13.3889359,18.6256659 C13.3889359,18.5408008 13.440606,18.4380694 13.3125539,18.4023367 L13.2923351,18.313005 C13.3073612,18.1259767 13.2642294,17.938874 13.168776,17.7770147 C13.1676713,17.7636375 13.1676713,17.7501927 13.168776,17.7368155 C13.1403693,17.4809767 13.0799965,17.2296552 12.9890537,16.9886625 C12.9890537,16.8970975 12.9890537,16.794366 12.8946995,16.7340671 C12.8160709,16.6402688 12.9171648,16.4571388 12.7329494,16.4169395 C12.7096796,16.4003302 12.6838955,16.3875141 12.6565674,16.3789736 L9.36989533,15.6777197 L9.34743004,15.6777197 C9.13993808,15.6025262 8.92547407,15.547917 8.70716925,15.5146893 C8.01748483,15.367292 7.3278004,15.2109615 6.63811597,15.0680308 C6.27024829,14.9640775 5.8946406,14.8893986 5.51485143,14.8447015 C5.03892436,14.6831268 4.68601394,14.2812038 4.58928145,13.7905874 C4.58928145,13.7615546 4.58928145,13.7325218 4.58928145,13.703489 C4.58928145,11.1292471 4.58928145,8.55574954 4.58928145,5.98299645 C4.58163102,5.59254012 4.74571126,5.21819467 5.03858727,4.95791514 C5.34636175,4.6675871 5.74175087,4.61845466 6.12366081,4.52688966 C6.64710209,4.44872442 7.16380378,4.32366004 7.67825894,4.19859565 C7.70666282,4.20040757 7.73492945,4.19338255 7.75913398,4.17849602 L9.59679477,3.79660298 C9.92478802,3.73183749 10.2572743,3.68493835 10.578528,3.59560664 C10.735785,3.55317408 10.9222469,3.59560664 11.0480526,3.44597604 L11.2165422,3.44597604 L11.4883723,3.40577677 C11.5985946,3.41523585 11.7085789,3.38512876 11.7983933,3.32091165 L12.1937824,3.23157995 C12.3490037,3.24933312 12.5059487,3.21890918 12.6430882,3.14448154 L12.7733869,3.09981568 C12.858755,3.09981568 12.8610015,3.0350502 12.8722342,2.97698459 C12.9918408,2.69309908 13.0617414,2.39097388 13.0789148,2.08366754 C13.1957344,1.59010988 13.3170469,1.11665184 13.436113,0.625327466 L13.4765505,0.401998204 L13.5596721,0.223334795 C13.6787381,5.53364055e-06 13.5102484,5.53364055e-06 13.364224,5.53364055e-06 L5.07003867,5.53364055e-06 C4.90138001,-0.000321820723 4.73300981,0.0138754346 4.56681616,0.0424380933 C4.09792975,0.0945062843 3.64178109,0.227521527 3.21889871,0.435497594 C3.23602147,0.451010121 3.25693509,0.461790332 3.279555,0.46676369 C3.01221803,0.596294662 2.7471276,0.736992097 2.47979064,0.879922824 C2.45268258,0.864364191 2.41928407,0.864364191 2.39217601,0.879922824 C2.26861691,0.971487821 2.14281128,1.06081953 2.02599177,1.1590844 C1.68213333,1.40813475 1.38548169,1.71589331 1.14984543,2.06803449 C0.97340297,2.2652637 0.825917067,2.48631691 0.711772256,2.72462252 C0.687447491,2.7391193 0.666103943,2.75806376 0.648869441,2.78045484 C0.236787397,3.51891361 0.016710785,4.3479744 0.0086086533,5.19241086 C0.0086086533,8.03985895 0.0086086533,10.8694407 0.0086086533,13.7079556 C-0.0165847852,14.1906896 0.0135628868,14.6747058 0.0984698165,15.1506626 C0.0984698165,15.1506626 0.0984698165,15.1662957 0.116442049,15.1662957 C0.112184357,15.300847 0.141513476,15.4343523 0.201810154,15.5548886 C0.251233794,15.5861547 0.33435537,15.6107209 0.222028916,15.6710198 C0.222028916,15.6710198 0.222028916,15.6710198 0.222028916,15.6888862 C0.219573704,15.7012401 0.223841068,15.7139668 0.233261561,15.7223855 C0.337818853,16.0282623 0.463164389,16.3267222 0.608431918,16.6157026 C0.687638256,16.780005 0.777696223,16.938916 0.878015408,17.0913939 C1.25780597,17.6565308 1.74002484,18.1465108 2.30006832,18.5363342 C2.74832562,18.8559031 3.25158771,19.0912924 3.78502404,19.2308882 C3.76499571,19.2428715 3.7550165,19.2663197 3.76031222,19.2889538 C4.17277077,19.4185127 4.60164523,19.4891946 5.03409421,19.4988834 C7.80855762,19.4988834 10.5852676,19.4988834 13.359731,19.4988834 C13.4383595,19.4988834 13.5282207,19.5167497 13.5596721,19.4095516 C13.5796235,19.2989496 13.5510042,19.1851472 13.4810436,19.0968907 L13.4877831,19.0901908 Z M12.8340432,16.6737682 C12.8534344,16.7051399 12.8685436,16.7389354 12.8789738,16.7742664 C12.8538682,16.7462143 12.8381655,16.7110912 12.8340432,16.6737682 Z" id="Shape"></path>
                                    </g>
                                    <g id="AWS" transform="translate(51.000000, 3.000000)">
                                        <path d="M18.8542765,3.09997502 C18.4053404,4.99773359 17.9770151,6.80697936 17.5494802,8.61634832 C17.3638625,9.40187626 17.1814669,10.1882665 16.9946332,10.9735481 C16.8631261,11.5263064 16.7156289,11.6432764 16.1534254,11.6484503 C15.8900464,11.6508526 15.6266065,11.6494975 15.3632275,11.6486967 C14.7594377,11.6466025 14.6357128,11.5546403 14.4578164,10.9620912 C13.7650785,8.6550303 13.0729485,6.34772302 12.3822777,4.04004614 C12.110083,3.1306496 11.8358818,2.22180742 11.5747523,1.30908472 C11.4338822,0.81662838 11.5279374,0.706618747 12.0397999,0.706064388 C12.3436707,0.70575641 12.6476632,0.703415779 12.951534,0.706803534 C13.4508719,0.712408728 13.5964235,0.813055839 13.7242219,1.30766802 C14.0742996,2.66246191 14.4124608,4.02045876 14.7547562,5.37740849 C15.08702,6.6946291 15.4184933,8.01203452 15.7537969,9.34329891 C15.8953358,9.26956901 15.8670038,9.12389558 15.8911407,9.02133898 C16.488425,6.48501948 17.0771976,3.94660571 17.6676725,1.40868471 C17.8077522,0.806649903 17.9286195,0.709144164 18.5416507,0.70631077 C18.8354289,0.705017263 19.129572,0.697995372 19.4229247,0.710006502 C19.8599442,0.727807613 19.999112,0.83541502 20.1031989,1.26270328 C20.3135009,2.12639593 20.5110352,2.99335315 20.7127645,3.85914004 C21.1463186,5.7197565 21.579143,7.58049616 22.0147033,9.45189184 C22.1502232,9.39319129 22.1265118,9.25761948 22.1506487,9.16387107 C22.8103731,6.60205101 23.4635312,4.03850625 24.1167501,1.4750231 C24.2902082,0.794146008 24.4004967,0.706495556 25.1029624,0.706064388 C25.3865873,0.705879601 25.670273,0.708466613 25.953898,0.705633219 C26.2294367,0.702861419 26.3448322,0.841328192 26.3045228,1.11154782 C26.2865265,1.23215189 26.2572216,1.3522016 26.2211681,1.46874035 C25.238239,4.64743976 24.2539724,7.82570799 23.2694624,11.0039146 C23.0975243,11.558952 22.9794537,11.6459865 22.3979162,11.6486352 C22.1142304,11.6498671 21.8305447,11.6523925 21.5469806,11.6477728 C21.0349965,11.6394574 20.8910257,11.5255673 20.7683344,11.016049 C20.1604711,8.49315722 19.5554046,5.96946481 18.9488181,3.44626514 C18.9275995,3.35787555 18.9011521,3.27084105 18.8542765,3.09997502" id="Fill-4" fill="#253140"></path>
                                        <path d="M6.22472881,6.63188172 C5.97253669,6.6461103 5.719311,6.65054517 5.46827406,6.67623051 C4.11313663,6.81463571 3.41334607,7.82929899 3.74451542,9.16629176 C3.88891181,9.74941674 4.25388512,10.121577 4.82751883,10.2372534 C5.77433363,10.4282612 6.65512131,10.2297388 7.43759781,9.65542197 C7.92386405,9.2985374 8.21970949,8.80657386 8.30178742,8.19690118 C8.3482375,7.85171978 8.35577651,7.503705 8.36775383,7.1555054 C8.37480643,6.94959153 8.28664864,6.89298522 8.11872322,6.86077076 C7.49268122,6.74072104 6.86390328,6.64869731 6.22472881,6.63188172 M8.47409033,10.2235792 C7.77703575,11.0359012 6.96008649,11.5932792 5.94025269,11.8089252 C5.18629069,11.968396 4.42843757,11.9840413 3.68815522,11.7568154 C2.08404799,11.2645438 1.41179915,9.8204364 1.5861692,8.2187676 C1.77780602,6.45787432 3.18042707,5.47431676 4.68452079,5.2514025 C5.81403504,5.08398582 6.92427617,5.2265795 8.02582312,5.47425516 C8.26688914,5.52845924 8.39535633,5.53424921 8.3675106,5.21389082 C8.33291625,4.81672277 8.36282911,4.4159822 8.31875022,4.01610396 C8.18335201,2.78721135 7.5703209,2.20112979 6.34565699,2.11027638 C5.20902932,2.02589048 4.13800321,2.27104073 3.09543079,2.70005367 C2.37065205,2.99829927 2.32316843,2.93775085 2.27659679,2.14156691 C2.24279284,1.5630616 2.46987518,1.26432324 2.98052166,1.05477522 C4.52036488,0.422928172 6.09474165,0.184799817 7.72754573,0.564105148 C9.30076737,0.929551483 10.2043545,2.02798474 10.3167708,3.66587172 C10.4209186,5.18278507 10.3615793,6.70191585 10.3561682,8.21962994 C10.3534323,8.98877342 10.4896817,9.6992164 10.863714,10.3689447 C11.0566276,10.7143109 11.0098127,10.8739665 10.6970654,11.0926307 C10.4641464,11.2554277 10.2285522,11.414837 9.98791183,11.5658076 C9.70343572,11.7441883 9.49313378,11.7133289 9.25510769,11.4726136 C8.91335939,11.127001 8.71856104,10.684745 8.47409033,10.2235792" id="Fill-6" fill="#253040"></path>
                                        <path d="M30.8521522,11.9678971 C29.8236243,11.947509 28.8242795,11.776643 27.8629947,11.389207 C27.3656023,11.1887752 27.1126806,10.8757466 27.1428367,10.2932376 C27.1853348,9.47179951 27.2262522,9.42357022 27.9740736,9.73290296 C29.2366149,10.2551716 30.5364257,10.4754988 31.887976,10.1753438 C32.3221988,10.0789467 32.7072964,9.87217049 32.964474,9.48479614 C33.379606,8.85947826 33.1956298,8.0496817 32.5497675,7.64118006 C32.0287853,7.31164392 31.4344193,7.17237645 30.8601168,6.98186142 C30.2282381,6.77219022 29.5774512,6.61659987 28.9815044,6.30449528 C27.2628529,5.40427647 26.7398643,3.33090902 27.8663994,1.86456561 C28.4467209,1.10915792 29.2329062,0.700040344 30.1428163,0.508601408 C31.4001898,0.244110162 32.6194425,0.425201047 33.808357,0.859757577 C34.5455386,1.12917647 34.7984603,1.69277565 34.5618326,2.45859299 C34.4834025,2.71236661 34.2951704,2.70238813 34.0942314,2.62151319 C33.6065668,2.42520821 33.1212733,2.22126538 32.5974335,2.14156075 C31.8012774,2.02046392 31.0079179,1.972481 30.2248335,2.22933439 C29.6972242,2.40235626 29.3534696,2.73909908 29.2913943,3.31631087 C29.2266439,3.9180377 29.49513,4.34705063 30.0041349,4.62681757 C30.755361,5.03963087 31.5906106,5.22207686 32.3915699,5.49802488 C32.7736883,5.62971614 33.1559892,5.75709572 33.5227256,5.93153428 C35.5713306,6.90603734 35.5774104,9.38525774 34.3473963,10.6905288 C33.6496729,11.4309688 32.7645078,11.7650014 31.7913672,11.9040226 C31.4810518,11.9483713 31.1682435,11.9871765 30.8521522,11.9678971" id="Fill-8" fill="#253040"></path>
                                        <path d="M19.1018053,22.6554439 C11.7485326,22.6572301 6.03152946,20.4768096 1.04556731,16.2666313 C0.773433294,16.03688 0.514066956,15.7913602 0.252511874,15.5489817 C0.0888423529,15.3973951 -0.0636402473,15.222587 0.104102773,14.9938211 C0.270569024,14.7667799 0.476493492,14.859666 0.670258266,14.9748497 C2.10917601,15.8302886 3.5981917,16.5823085 5.14399318,17.2204383 C7.75200501,18.2969435 10.446533,19.0479779 13.2281853,19.496455 C15.5872274,19.8768075 17.959949,20.0145351 20.3404529,19.8963333 C24.1610905,19.7066806 27.8579423,18.8931883 31.4243207,17.4851143 C31.7907531,17.3404264 32.1518961,17.1821875 32.5148631,17.0286914 C32.6664945,16.9645088 32.8212874,16.9285986 32.9872066,16.945599 C33.1965965,16.966911 33.346708,17.0706995 33.4357778,17.2635552 C33.5281915,17.4637407 33.4787015,17.6449547 33.3501127,17.8067662 C33.1890575,18.0095387 32.9684198,18.1422771 32.7620698,18.2891825 C30.3089117,20.0352928 27.5860515,21.1641542 24.6885782,21.8836518 C22.5785667,22.4075834 20.4439319,22.7333622 19.1018053,22.6554439 Z M33.1365823,15.7562015 C32.169096,15.7780063 31.3426622,15.8422504 30.5199979,15.9563869 C30.4400479,15.9674741 30.3586388,15.9706155 30.2777767,15.9720938 C30.139825,15.9745576 29.9700756,16.0224174 29.9092163,15.8463157 C29.8445268,15.65925 29.9776146,15.535751 30.1122833,15.4405243 C30.8453914,14.922013 31.6684813,14.626108 32.540514,14.463619 C33.6855318,14.2501289 34.8317049,14.226969 35.9728924,14.4931233 C36.713722,14.6658988 36.8569024,14.8157607 36.8165322,15.587676 C36.7153635,17.5210984 36.0583751,19.2350559 34.7524237,20.6710327 C34.6297323,20.8059269 34.4872815,20.9248063 34.3428851,21.0364174 C34.2212273,21.1304122 34.0779253,21.2115336 33.9286042,21.0957955 C33.7801951,20.9808583 33.8558892,20.8340145 33.9081759,20.7033704 C34.256916,19.8328406 34.5947732,18.9584304 34.8464789,18.0527911 C34.9641848,17.629137 35.0685758,17.2028959 35.0775132,16.7587304 C35.0892472,16.1782541 34.9218082,15.9655031 34.3589966,15.8491491 C33.909635,15.7562015 33.4539504,15.7628538 33.1365823,15.7562015 Z" id="Combined-Shape" fill="#F79A1E"></path>
                                    </g>
                                    <g id="Azure" transform="translate(160.800000, 0.000000)" fill="#1A74BB">
                                        <path d="M8.33505263,19.6062925 C10.322,15.1633983 12.3062105,10.7195526 14.2876842,6.27475567 C15.1812632,4.26475035 16.12,2.27900496 16.9561053,0.236890935 C17.0368421,0.181235836 17.1052632,0.0956126062 17.0368421,0.0149840652 C16.9916842,-0.0371033994 16.9280526,0.0592227337 16.8849474,0.109883144 L16.7481053,0.239745042 L13.1286316,3.41065864 C13.1238421,3.41065864 13.1197368,3.4149398 13.1149474,3.42136154 C12.8775263,3.60973265 12.6325789,3.7888279 12.4368947,4.02785942 C12.2481431,4.13910982 12.079556,4.28400863 11.9387895,4.45597557 C10.9681228,5.29936438 9.99745614,6.14322887 9.02678947,6.98756905 C8.63405263,7.33006197 8.14415789,7.61333215 7.88210526,8.04501593 C7.11578947,9.30653152 6.44047368,10.631551 5.72957895,11.9266023 C5.60176824,12.0802714 5.50246697,12.2573812 5.43673684,12.448904 C5.39469089,12.5038219 5.35540986,12.5609811 5.31905263,12.6201505 C4.22021053,14.6023283 3.12250877,16.5849817 2.02594737,18.5681108 C1.38552632,19.7290191 0.752631579,20.8956356 0.118368421,22.059398 C0.0567894737,22.1264695 -0.0335263158,22.2021034 0.013,22.296289 C0.0595263158,22.3904745 0.178578947,22.3448088 0.264789474,22.3448088 C2.44833333,22.3448088 4.63164912,22.3448088 6.81473684,22.3448088 C6.91463158,22.3448088 7.04668421,22.4097397 7.11715789,22.2641802 C7.19371627,22.1779212 7.24644257,22.0716489 7.26973684,21.9566501 C7.62484211,21.171057 7.98473684,20.3911721 8.33505263,19.6062925 Z" id="Shape"></path>
                                        <path d="M30.9311053,24.7158587 L30.9358947,24.7158587 C30.8772481,24.5253398 30.7804631,24.3499856 30.6519474,24.2014058 C30.0931754,23.1201747 29.5070351,22.0558304 28.8935263,21.0083729 C28.8259642,20.8197127 28.7257788,20.6455827 28.5979474,20.4946335 C28.0266316,19.3579851 27.3937368,18.2584402 26.7628947,17.1574681 C26.722359,17.0153362 26.647978,16.8862199 26.5466842,16.782153 C25.8973684,15.5912766 25.2514737,14.397546 24.5973684,13.2095237 C23.9371053,12.0086579 23.2679474,10.8127868 22.6042632,9.61406161 C21.4602632,7.54911473 20.3167193,5.48345432 19.1736316,3.41708038 C18.8593509,2.85149138 18.5457544,2.28685375 18.2328421,1.72316749 C18.1377368,1.76740616 18.1363684,1.83091006 18.1172105,1.88585163 C17.433,3.84852632 16.7487895,5.81120102 16.0645789,7.77387571 C15.4939474,9.41260918 14.9237719,11.0520562 14.3540526,12.6922167 C14.3047895,12.8349221 14.2315789,12.9676381 14.3595263,13.1203329 C14.9267368,13.8017511 15.4850526,14.4903045 16.0467895,15.1760039 C16.1357419,15.3472855 16.2578272,15.4974411 16.4053158,15.6169635 C16.4233051,15.6596498 16.4450657,15.700497 16.4703158,15.7389766 C17.9327018,17.5579946 19.3946316,19.3772504 20.8561053,21.196744 C21.1708421,21.5906108 21.5197895,21.9595042 21.7975789,22.4133074 C21.3186316,22.4996441 20.8821053,22.5759915 20.4462632,22.6587606 C19.5978421,22.8204934 18.7501053,22.9843667 17.9030526,23.1503807 C17.3913477,23.2029239 16.8845331,23.2983696 16.3875263,23.4357914 C15.8632391,23.4875884 15.3433912,23.5801284 14.8323158,23.7126399 L13.3332105,23.9609472 C13.0540526,24.0387217 12.7564211,24.0322999 12.4861579,24.1500319 C12.2145584,24.1570725 11.9453725,24.2051409 11.687,24.2927373 C11.1779474,24.3541006 10.6709474,24.4240262 10.1783158,24.578148 L10.1824211,24.5731533 C9.92994737,24.5660181 9.68910526,24.6395113 9.44552632,24.6901717 L8.59436842,24.8599911 L7.99705263,24.9534632 L7.52494737,25.0183941 C7.61731579,25.1446884 7.74115789,25.0790439 7.85405263,25.0790439 C7.865,25.1111526 7.91563158,25.1254232 7.95736842,25.121142 L30.7210526,25.121142 C30.8236842,25.121142 30.9263158,25.121142 31.0289474,25.121142 C31.0973684,25.121142 31.135,25.0883198 31.1329474,25.014113 L30.9311053,24.7158587 Z" id="Shape"></path>
                                    </g>
                                    <g id="GCP" transform="translate(110.000000, 1.000000)">
                                        <path d="M23.2497601,12.237526 C21.9299569,10.0161123 20.6162177,7.79123354 19.3085424,5.56288981 C19.2015314,5.38305613 19.0319188,5.22869023 19.024428,5 C16.0994588,4.997921 13.1759164,4.99410949 10.2538007,4.98856549 C10.0622509,4.98856549 10.0108856,5.0987526 9.94186347,5.21569647 C9.0199631,6.77494802 8.10448339,8.33419958 7.17616236,9.89345114 C6.66785978,10.743763 6.19968635,11.6169439 5.63520295,12.4350312 C7.08841328,14.8910256 8.5401968,17.3473666 9.99055351,19.8040541 C10.0718819,19.9423077 10.169797,19.9698545 10.3115867,19.9693347 C11.0868819,19.9656965 11.8632472,19.966736 12.6380074,19.9693347 L18.898155,19.9766112 C19.0019557,19.9246362 19.0356642,19.8206861 19.0875646,19.7318087 C20.4787085,17.3884269 21.8682472,15.0448718 23.2561808,12.7011435 C23.3615867,12.5202703 23.3498155,12.4054054 23.2497601,12.237526 Z M14.3988745,16.2162162 C12.2822899,16.1911054 10.5870778,14.5045997 10.6117528,12.4485447 C10.6358303,10.4677755 12.3421218,8.72453222 14.5626015,8.78898129 C16.5423063,8.8466736 18.2587638,10.4615385 18.2582288,12.5176715 C18.2582288,14.5467775 16.5160886,16.227131 14.3988745,16.2162162 Z" id="Shape" stroke="#C9C9C9" stroke-width="0.867041218" fill="#E2E2E2"></path>
                                        <path d="M15.2651292,24.9568607 L8.19651292,24.9568607 C7.4597417,24.9334719 6.91238007,24.5992723 6.54747232,23.985447 C4.49178967,20.507623 2.43771218,17.0292793 0.385239852,13.5504158 C0.195830258,13.2307692 0.0647416974,12.8986486 0.0535055351,12.5259875 C0.0246125461,11.9397089 0.365442804,11.4864865 0.642066421,11.0135135 C1.15571956,10.1346154 1.68167897,9.26351351 2.20228782,8.38877339 C2.34675277,8.1460499 2.49282288,7.9043659 2.6303321,7.65800416 C2.65060999,7.61000641 2.70326264,7.58290311 2.75553506,7.59355509 C2.88073801,7.60031185 2.89946494,7.70997921 2.94494465,7.78690229 C3.83670357,9.28170478 4.72311193,10.7787595 5.60416974,12.2780665 C5.63520295,12.3300416 5.66891144,12.3820166 5.70422509,12.4313929 C6.75685732,14.1923077 7.80289053,15.956341 8.84232472,17.7234927 C9.20669742,18.3388773 9.58070111,18.9490644 9.9295572,19.5727651 C10.0606458,19.8071726 10.227048,19.8960499 10.5042066,19.8950104 C13.1516605,19.8861746 15.8012546,19.8892931 18.4465683,19.8903326 C18.5883579,19.8903326 18.7322878,19.8726611 18.8703321,19.9235967 C19.0367343,20.0691268 18.9238376,20.2115385 18.8526753,20.3419958 C18.6172509,20.7577963 18.3802214,21.1735967 18.1308856,21.5836798 C17.5423247,22.5509356 16.9831919,23.5343035 16.394631,24.5010395 C16.298321,24.6600832 16.2228782,24.8404366 16.0447048,24.9402287 L15.2651292,24.9568607 Z" id="Shape" fill="#FFD239"></path>
                                        <path d="M5.63520295,12.4324324 C5.25602706,11.7959113 4.87578106,11.1592169 4.49446494,10.5223493 C3.91482165,9.5469508 3.33517835,8.57103257 2.75553506,7.59459459 C2.69721402,7.46257796 2.77479705,7.36174636 2.83686347,7.25727651 C4.0851476,5.14553015 5.32754613,3.02806653 6.58439114,0.92047817 C6.94608856,0.314449064 7.50950185,0 8.2398524,0 C12.4289791,0 16.6179274,0 20.8066974,0 C21.5199262,0 22.0715683,0.302494802 22.4252399,0.883575884 C23.2176568,2.18295218 23.9801107,3.5031185 24.7495203,4.81756757 C24.7768081,4.86382536 24.9025461,4.92619543 24.7730627,5.00155925 C24.6847786,5.07692308 24.5750923,5.07328482 24.4691513,5.07328482 C22.6692251,5.07328482 20.8698339,5.08212058 19.0704428,5.07016632 C16.1811439,5.05613306 13.291845,5.07016632 10.4062915,5.06237006 C10.1922694,5.06237006 10.0617159,5.1491684 9.95791513,5.32224532 C8.63846863,7.5514553 7.32704797,9.78534304 5.99850554,12.0109148 C5.90701107,12.1704782 5.85190037,12.3700624 5.63520295,12.4324324 Z" id="Shape" fill="#597EBF"></path>
                                        <path d="M19.024428,5 L24.7730627,5 C25.0470111,5.2510395 25.1823801,5.58939709 25.3642989,5.89656965 C26.4750738,7.77148302 27.5808549,9.64899515 28.6816421,11.529106 C29.0668819,12.1850312 29.0476199,12.8341996 28.6575646,13.4890852 C27.8260886,14.8840956 27.0058487,16.2858628 26.1802583,17.6845114 C24.9403567,19.7843035 23.6997417,21.8840956 22.4584133,23.9838877 C22.0817343,24.6211019 21.5044096,24.9480249 20.7494465,24.9480249 C19.1811993,24.9511435 17.612952,24.9423077 16.0447048,24.9376299 C16.5819004,24.036729 17.1189176,23.1344421 17.6557565,22.2307692 C18.0481304,21.5689536 18.4371156,20.9057519 18.8227122,20.2411642 C18.8708672,20.1590437 18.917417,20.0738046 18.898155,19.9724532 C19.0378044,19.6242204 19.2571771,19.3180873 19.4471218,18.9974012 C20.6830996,16.9132017 21.9083764,14.8232848 23.1593358,12.7468815 C23.2877491,12.533264 23.2588561,12.3711019 23.1411439,12.1751559 C22.4407565,11.0093555 21.7430443,9.84199584 21.0597786,8.66683992 C20.3941697,7.52338877 19.7196433,6.38322938 19.0361993,5.24636175 C18.9912546,5.17151767 18.9061808,5.08679834 19.024428,5 Z" id="Shape" fill="#DA4431"></path>
                                    </g>
                                </g>
                            </g>
                        </g>
                    </g>
                </g>
            </g>
        </g>
    </g>
</svg>