<?xml version="1.0" encoding="UTF-8"?>
<svg width="13px" height="14px" viewBox="0 0 13 14" version="1.1" xmlns="http://www.w3.org/2000/svg" xmlns:xlink="http://www.w3.org/1999/xlink">
    <!-- Generator: Sketch 46 (44423) - http://www.bohemiancoding.com/sketch -->
    <title>stand-by</title>
    <desc>Created with Sketch.</desc>
    <defs></defs>
    <g id="Project-Kitsune-" stroke="none" stroke-width="1" fill="none" fill-rule="evenodd">
        <g id="List-view-of-Projects-Context-menu" transform="translate(-1306.000000, -638.000000)" fill="#5B5B5B">
            <g id="Profile-card" transform="translate(-2.000000, -2.000000)">
                <g id="Card" transform="translate(1263.000000, 134.000000)">
                    <g id="Contents" transform="translate(0.000000, 37.000000)">
                        <g id="stand-by" transform="translate(45.000000, 469.000000)">
                            <g id="Layer_1">
                                <path d="M6.50075111,0 C5.78384444,0 5.20063556,0.552015625 5.20063556,1.23057812 L5.20063556,6.18023437 C5.20063556,6.85879687 5.78384444,7.4108125 6.50075111,7.4108125 C7.21765778,7.4108125 7.80086667,6.85879687 7.80086667,6.18023437 L7.80086667,1.23057812 C7.80086667,0.552015625 7.21765778,0 6.50075111,0 Z" id="Shape"></path>
                                <path d="M10.8513889,3.25278516 C10.3042622,2.78567187 9.50799778,2.83880078 9.03020444,3.304 C8.54972444,3.77182422 8.51260222,4.56416406 9.12129111,5.0894375 C10.0873356,5.92055078 10.5756444,7.18011328 10.3443311,8.45075 C10.0303667,10.1752383 8.44584,11.5342227 6.50066444,11.5382695 C4.50816889,11.5424258 2.98173778,10.1500273 2.66687778,8.51358594 C2.42140889,7.23534766 2.87427111,5.95549609 3.87940222,5.09023047 C4.48635778,4.56722656 4.45466667,3.77138672 3.97282889,3.30304297 C3.49422667,2.83784375 2.69319556,2.78758594 2.14127333,3.26038672 C0.612791111,4.57078125 -0.185062222,6.50797656 0.03692,8.47155859 C0.389884444,11.5936133 3.17488889,14 6.51597556,14 C9.81872667,14 12.5229578,11.5878437 12.93994,8.67499609 C13.2306778,6.64526953 12.4498689,4.61833203 10.8513889,3.25278516 Z" id="Shape"></path>
                            </g>
                        </g>
                    </g>
                </g>
            </g>
        </g>
    </g>
</svg>