<?xml version="1.0" encoding="UTF-8"?>
<svg width="12px" height="12px" viewBox="0 0 12 12" version="1.1" xmlns="http://www.w3.org/2000/svg" xmlns:xlink="http://www.w3.org/1999/xlink">
    <!-- Generator: Sketch 46 (44423) - http://www.bohemiancoding.com/sketch -->
    <title>copy-symbol-of-two-filled-paper-sheets</title>
    <desc>Created with Sketch.</desc>
    <defs></defs>
    <g id="Project-Kitsune-" stroke="none" stroke-width="1" fill="none" fill-rule="evenodd">
        <g id="Project-lavel-preview" transform="translate(-577.000000, -711.000000)" fill="#FFFFFF">
            <g id="Project-Dashboard" transform="translate(-1.000000, -2.000000)">
                <g id="Dashboard-with-projects" transform="translate(112.000000, 207.000000)">
                    <g id="Context-menu" transform="translate(446.000000, 374.000000)">
                        <g id="Contents" transform="translate(19.000000, 11.000000)">
                            <g id="copy-symbol-of-two-filled-paper-sheets" transform="translate(1.778015, 121.759338)">
                                <g id="Capa_1">
                                    <g id="Group">
                                        <path d="M10.9951713,3.29774359 C10.9951713,3.11046154 10.8440031,2.95928205 10.6567097,2.95928205 L8.32922256,2.95928205 C8.14194051,2.95928205 7.99076103,2.80810256 7.99076103,2.62082051 L7.99076103,0.338461538 C7.99076103,0.151179487 7.83958154,0 7.65229949,0 L5.22440205,0 C4.94349026,0 4.71670974,0.226769231 4.71670974,0.507692308 L4.71670974,2.27671795 C4.72122256,2.28123077 4.72686359,2.28574359 4.73137641,2.29138462 L6.70687487,4.26687179 C6.86820821,4.42820513 6.95394051,4.6425641 6.95282359,4.8614359 L6.95395179,4.8614359 L6.95395179,8.28215385 L10.4863733,8.28215385 C10.7672851,8.28215385 10.9940656,8.05537333 10.9940656,7.77446154 L10.9940656,3.29774359 L10.9951713,3.29774359 Z" id="Shape"></path>
                                        <path d="M8.97004308,0.0507692308 C8.86400308,-0.0552820513 8.68122256,0.0191794872 8.68122256,0.170358974 L8.68122256,2.14584615 C8.68122256,2.23948718 8.75681231,2.31507692 8.85045333,2.31507692 L10.8259405,2.31507692 C10.97712,2.31507692 11.052721,2.13230769 10.9455415,2.02625641 L8.97004308,0.0507692308 Z" id="Shape"></path>
                                        <path d="M0.510761026,10.9988718 L0.510761026,10.9988718 L5.77383795,10.9988718 L5.77383795,10.9988718 C6.05476103,10.9988718 6.28153026,10.7720913 6.28153026,10.4911795 L6.28153026,8.28215385 L6.28153026,6.05958974 C6.28153026,5.87229641 6.13035077,5.72112821 5.94306872,5.72112821 L4.71670974,5.72112821 L3.62799179,5.72112821 C3.44070974,5.72112821 3.28953026,5.56994872 3.28953026,5.38266667 L3.28953026,4.8625641 L3.28953026,3.05517949 C3.28953026,2.86789744 3.13835077,2.71671795 2.95106872,2.71671795 L0.510761026,2.71671795 C0.229837949,2.71671795 0.00306871795,2.94348718 0.00306871795,3.12287179 L0.00306871795,10.389641 C0.00306871795,10.4911795 0.0188635897,10.5814359 0.0481969231,10.6604103 C0.128310769,10.8758974 0.305427692,10.9988718 0.510761026,10.9988718 Z" id="Shape"></path>
                                        <path d="M4.13682359,5.03066667 L4.71559282,5.03066667 L6.11231077,5.03066667 C6.21384923,5.03066667 6.28041333,4.94830769 6.28154154,4.8614359 C6.28154154,4.81969231 6.26687487,4.77682051 6.23190051,4.74183487 L4.71670974,3.22553846 L4.25753026,2.76635897 C4.2225559,2.73138462 4.18081231,2.71671795 4.13906872,2.71671795 C4.05220821,2.71671795 3.96870974,2.78441026 3.96870974,2.88594872 L3.96870974,4.8614359 L3.96870974,4.8614359 C3.96759282,4.95507692 4.04431077,5.03066667 4.13682359,5.03066667 Z" id="Shape"></path>
                                    </g>
                                </g>
                            </g>
                        </g>
                    </g>
                </g>
            </g>
        </g>
    </g>
</svg>