<?xml version="1.0" encoding="UTF-8"?>
<svg width="13px" height="13px" viewBox="0 0 13 13" version="1.1" xmlns="http://www.w3.org/2000/svg" xmlns:xlink="http://www.w3.org/1999/xlink">
    <!-- Generator: Sketch 46 (44423) - http://www.bohemiancoding.com/sketch -->
    <title>Open-New-tab</title>
    <desc>Created with Sketch.</desc>
    <defs></defs>
    <g id="Project-Kitsune-" stroke="none" stroke-width="1" fill="none" fill-rule="evenodd">
        <g id="List-view-of-Projects-Context-menu" transform="translate(-1306.000000, -511.000000)" fill="#5C5C5C">
            <g id="Profile-card" transform="translate(-2.000000, -2.000000)">
                <g id="Card" transform="translate(1263.000000, 134.000000)">
                    <g id="Contents" transform="translate(0.000000, 37.000000)">
                        <g id="Open-New-tab" transform="translate(45.500000, 342.500000)">
                            <g id="Layer_1">
                                <path d="M0.177777778,11.8 L0.177777778,0.155555556 L4.53333333,0.155555556 L4.53333333,1.6 L1.62222222,1.6 L1.62222222,10.3555556 L10.3777778,10.3555556 L10.3777778,7.44444444 L11.8222222,7.44444444 L11.8222222,11.8 L0.177777778,11.8 Z" id="Shape"></path>
                                <path d="M11.8222222,5.64444444 C11.1333333,4.95555556 10.4666667,4.28888889 9.77777778,3.6 C8.73333333,4.64444444 7.71111111,5.66666667 6.68888889,6.68888889 C6.22222222,6.24444444 5.77777778,5.77777778 5.31111111,5.33333333 C6.33333333,4.31111111 7.35555556,3.28888889 8.4,2.24444444 C7.71111111,1.55555556 7.02222222,0.866666667 6.33333333,0.177777778 L6.35555556,0.155555556 L11.8444444,0.155555556 C11.8222222,1.97777778 11.8222222,3.82222222 11.8222222,5.64444444 Z" id="Shape"></path>
                            </g>
                        </g>
                    </g>
                </g>
            </g>
        </g>
    </g>
</svg>