<?xml version="1.0" encoding="UTF-8"?>
<svg width="14px" height="9px" viewBox="0 0 14 9" version="1.1" xmlns="http://www.w3.org/2000/svg" xmlns:xlink="http://www.w3.org/1999/xlink">
    <!-- Generator: Sketch 46 (44423) - http://www.bohemiancoding.com/sketch -->
    <title>001-speedometer</title>
    <desc>Created with Sketch.</desc>
    <defs></defs>
    <g id="Project-Kitsune-" stroke="none" stroke-width="1" fill="none" fill-rule="evenodd">
        <g id="Project-lavel-preview" transform="translate(-576.000000, -651.000000)" fill="#B9B9B9">
            <g id="Project-Dashboard" transform="translate(-1.000000, -2.000000)">
                <g id="Dashboard-with-projects" transform="translate(112.000000, 207.000000)">
                    <g id="Context-menu" transform="translate(446.000000, 374.000000)">
                        <g id="Contents" transform="translate(19.000000, 11.000000)">
                            <g id="001-speedometer" transform="translate(0.778015, 61.518677)">
                                <g id="Group">
                                    <path d="M6.37963208,0.0288387713 C2.86195444,0.0288387713 -6.89226454e-13,2.89066272 -6.89226454e-13,6.40834036 C-6.89226454e-13,6.88489779 0.0545457303,7.36536999 0.162332269,7.83592479 C0.223663593,8.10369474 0.46194231,8.29369135 0.736628344,8.29369135 L12.0226358,8.29369135 C12.2971914,8.29369135 12.5357311,8.10369474 12.5969319,7.83592479 C12.7045879,7.36536999 12.7592642,6.88489779 12.7592642,6.40834036 C12.7592642,2.89066272 9.89730972,0.0288387713 6.37963208,0.0288387713 Z M7.05453763,7.47746277 C6.29168035,7.84271038 5.37366788,7.51882879 5.00842028,6.75584103 C4.64330316,5.99272277 4.45382852,2.04246357 4.45382852,2.04246357 C4.45382852,2.04246357 7.41130324,4.66809668 7.77628986,5.43095395 C8.14153747,6.19446368 7.81765588,7.11234566 7.05453763,7.47746277 Z" id="Shape" transform="translate(6.379632, 4.161265) scale(-1, 1) translate(-6.379632, -4.161265) "></path>
                                    <path d="M6.14396321,5.57462584 C5.85779386,5.71164262 5.73630565,6.05588099 5.87332243,6.34191984 C6.01020873,6.62821968 6.35444709,6.74957741 6.64048595,6.61256062 C6.92665529,6.47567432 7.04801302,6.13130547 6.91112672,5.84513612 C6.77424043,5.55909727 6.43013255,5.43760905 6.14396321,5.57462584 Z" id="Shape"></path>
                                </g>
                            </g>
                        </g>
                    </g>
                </g>
            </g>
        </g>
    </g>
</svg>
