<?xml version="1.0" encoding="UTF-8"?>
<svg width="14px" height="9px" viewBox="0 0 14 9" version="1.1" xmlns="http://www.w3.org/2000/svg" xmlns:xlink="http://www.w3.org/1999/xlink">
    <!-- Generator: Sketch 46 (44423) - http://www.bohemiancoding.com/sketch -->
    <title>eye see preview view</title>
    <desc>Created with Sketch.</desc>
    <defs></defs>
    <g id="Project-Kitsune-" stroke="none" stroke-width="1" fill="none" fill-rule="evenodd">
        <g id="Project-lavel-preview" transform="translate(-576.000000, -622.000000)" fill="#FFFFFF">
            <g id="Project-Dashboard" transform="translate(-1.000000, -2.000000)">
                <g id="Dashboard-with-projects" transform="translate(112.000000, 207.000000)">
                    <g id="Context-menu" transform="translate(446.000000, 374.000000)">
                        <g id="Contents" transform="translate(19.000000, 11.000000)">
                            <g id="eye-see-preview-view" transform="translate(0.278015, 32.398346)">
                                <path d="M6.75040068,0.0200226675 C4.17092876,0.0200226675 1.83172885,1.43127551 0.105636832,3.72352571 C-0.0352122773,3.91132452 -0.0352122773,4.17369051 0.105636832,4.36148932 C1.83172885,6.65650128 4.17092876,8.06775412 6.75040068,8.06775412 C9.3298726,8.06775412 11.6690725,6.65650128 13.3951645,4.36425107 C13.5360136,4.17645226 13.5360136,3.91408627 13.3951645,3.72628746 C11.6690725,1.43127551 9.3298726,0.0200226675 6.75040068,0.0200226675 Z M6.93543775,6.87744106 C5.22315446,6.9851492 3.80913988,5.57389636 3.91684802,3.85885133 C4.00522393,2.44483674 5.15134903,1.29871164 6.56536362,1.21033573 C8.27764691,1.10262758 9.69166149,2.51388042 9.58395335,4.22892546 C9.49281569,5.64017829 8.34669059,6.7863034 6.93543775,6.87744106 Z M6.84982358,5.56837287 C5.92740001,5.62636956 5.16515777,4.86688907 5.22591621,3.94446549 C5.27286591,3.18222325 5.89149729,2.56635362 6.65373953,2.51664217 C7.57616311,2.45864548 8.33840534,3.21812597 8.27764691,4.14054954 C8.22793546,4.90555353 7.60930407,5.52142316 6.84982358,5.56837287 Z" id="Shape"></path>
                            </g>
                        </g>
                    </g>
                </g>
            </g>
        </g>
    </g>
</svg>
