<?xml version="1.0" encoding="UTF-8"?>
<svg width="31px" height="25px" viewBox="0 0 31 25" version="1.1" xmlns="http://www.w3.org/2000/svg" xmlns:xlink="http://www.w3.org/1999/xlink">
  <!-- Generator: Sketch 41.1 (35376) - http://www.bohemiancoding.com/sketch -->
  <title>folder</title>
  <desc>Created with Sketch.</desc>
  <defs></defs>
  <g id="Project-Kitsune-" stroke="none" stroke-width="1" fill="none" fill-rule="evenodd">
    <g id="Web-Action-pop-up" transform="translate(-40.000000, -234.000000)" fill="#000000" opacity=".1">
      <g id="Schema-Dashboard">
        <g id="Side-menu">
          <g id="Projects" transform="translate(31.000000, 234.000000)">
            <g id="folder" transform="translate(9.000000, 0.000000)">
              <g id="Combined-Shape">
                <path d="M12.4,0 L3.1,0 C1.395,0 0,1.40625 0,3.125 L0,21.875 C0,23.59375 1.395,25 3.1,25 L27.9,25 C29.605,25 31,23.59375 31,21.875 L31,6.25 C31,4.53125 29.605,3.125 27.9,3.125 L15.5,3.125 L12.4,0 Z M20.3984375,12.6 C20.09375,12.6 19.2734375,12.6486486 19.2734375,12.6486486 C19.2734375,12.6486486 20.09375,12.3567568 20.3515625,12.2594595 C20.046875,10.4108108 18.5,9 16.6484375,9 C14.8671875,9 13.3671875,10.3135135 12.9921875,12.0405405 C12.9453125,12.3324324 12.921875,12.527027 12.921875,12.527027 C12.921875,12.527027 12.7578125,12.0405405 12.6171875,12.0405405 C11.328125,12.0405405 10.3203125,12.9648649 10.0859375,14.1081081 C10.0390625,14.4486486 9.9453125,14.8864865 9.9453125,14.8864865 C9.9453125,14.8864865 9.7578125,14.1081081 9.7109375,14.1081081 C8.75,14.1810811 8,15.0324324 8,16.0540541 C8,17.1243243 8.84375,18 9.875,18 L20.3984375,18 C21.828125,18 23,16.7837838 23,15.3 C23,13.8162162 21.8515625,12.6 20.3984375,12.6 Z"></path>
              </g>
            </g>
          </g>
        </g>
      </g>
    </g>
  </g>
</svg>
