<?xml version="1.0" encoding="UTF-8"?>
<svg width="12px" height="12px" viewBox="0 0 12 12" version="1.1" xmlns="http://www.w3.org/2000/svg" xmlns:xlink="http://www.w3.org/1999/xlink">
    <!-- Generator: Sketch 46 (44423) - http://www.bohemiancoding.com/sketch -->
    <title>001-nature</title>
    <desc>Created with Sketch.</desc>
    <defs></defs>
    <g id="Project-Kitsune-" stroke="none" stroke-width="1" fill="none" fill-rule="evenodd">
        <g id="Project-lavel-preview" transform="translate(-577.000000, -590.000000)" fill="#FFFFFF">
            <g id="Project-Dashboard" transform="translate(-1.000000, -2.000000)">
                <g id="Dashboard-with-projects" transform="translate(112.000000, 207.000000)">
                    <g id="Context-menu" transform="translate(446.000000, 374.000000)">
                        <g id="Contents" transform="translate(19.000000, 11.000000)">
                            <g id="001-nature" transform="translate(1.278015, 0.278015)">
                                <path d="M9.9762676,1.71166199 C8.87246808,0.607885291 7.40492812,0 5.84395338,0 C4.28297865,0 2.81543868,0.607885291 1.71166199,1.71163916 C0.607885291,2.81543868 0,4.28297865 0,5.84395338 C0,7.40492812 0.607885291,8.87246808 1.71163916,9.97624478 C2.81543868,11.0800215 4.28297865,11.6879068 5.84395338,11.6879068 C7.40492812,11.6879068 8.87246808,11.0800215 9.97624478,9.9762676 C11.0800215,8.87246808 11.6879068,7.40492812 11.6879068,5.84395338 C11.6879068,4.28297865 11.0800215,2.81543868 9.9762676,1.71166199 Z M5.77311827,7.92901203 L6.01399873,8.41077294 C6.13948393,8.66174334 6.16612414,8.94853079 6.089057,9.21831142 L5.58102113,10.9964712 C4.97699377,10.9663611 4.39214187,10.8324753 3.84691928,10.6036708 L4.45375449,9.38997755 C4.66059848,8.97626674 4.57983322,8.4785491 4.25275445,8.15149316 L3.93756904,7.83630775 C3.45037508,7.3491138 3.04711947,6.78962374 2.73901073,6.1733606 C2.52703045,5.7494457 2.07054008,5.51701158 1.60295532,5.5948777 L0.685979684,5.74771077 C0.710405583,4.40570167 1.2442142,3.14760808 2.19591114,2.19591114 C2.43877762,1.95302183 2.70164139,1.73738908 2.98071299,1.55042823 L2.7131695,3.42325549 C2.65514087,3.86488487 2.77505605,4.28688222 3.04807825,4.63192658 C3.3438599,5.00573415 3.7869731,5.24798428 4.26375752,5.29658497 L5.74686614,5.44777443 L6.72686973,5.93777623 L5.97411831,6.69052764 C5.64703955,7.01758358 5.56627428,7.51530122 5.77311827,7.92901203 Z M9.49199562,9.49199562 C8.75625102,10.2277402 7.83735784,10.7137015 6.83815595,10.907739 L8.69290348,9.28483204 C8.93396656,9.07392468 9.11492366,8.80179277 9.21621125,8.49790719 L9.59029275,7.37573118 C9.68091968,7.10385038 9.66023756,6.8129539 9.53208149,6.55664176 C9.40390259,6.30030679 9.18359011,6.10921408 8.91173214,6.01860997 L7.43629371,5.52680477 L6.16959399,4.89346632 L6.09617932,3.99288115 C6.13357149,3.91985456 6.1929698,3.8608215 6.26773131,3.82345216 L7.17000576,3.37232635 C7.43891892,3.23784694 7.64023855,2.99484348 7.72230501,2.70561345 L8.14313813,1.22280159 C8.59408132,1.44767965 9.01343063,1.74028823 9.3884709,2.09542253 L9.04023063,2.32758271 C8.6387556,2.59524034 8.46492082,3.10183805 8.61750279,3.55958396 L9.0560504,4.87524962 C9.16226882,5.19392771 9.41595575,5.44759181 9.73463383,5.55383305 L11.0013792,5.97608151 C10.9682102,7.30464496 10.4352234,8.54876785 9.49199562,9.49199562 Z" id="Shape"></path>
                            </g>
                        </g>
                    </g>
                </g>
            </g>
        </g>
    </g>
</svg>