<?xml version="1.0" encoding="UTF-8"?>
<svg width="13px" height="16px" viewBox="0 0 13 16" version="1.1" xmlns="http://www.w3.org/2000/svg" xmlns:xlink="http://www.w3.org/1999/xlink">
    <!-- Generator: Sketch 46 (44423) - http://www.bohemiancoding.com/sketch -->
    <title>job-search view documentation read</title>
    <desc>Created with Sketch.</desc>
    <defs></defs>
    <g id="Project-Kitsune-" stroke="none" stroke-width="1" fill="none" fill-rule="evenodd">
        <g id="List-view-of-Projects-Context-menu" transform="translate(-1306.000000, -429.000000)" fill="#5B5B5B">
            <g id="Profile-card" transform="translate(-2.000000, -2.000000)">
                <g id="Card" transform="translate(1263.000000, 134.000000)">
                    <g id="Contents" transform="translate(0.000000, 37.000000)">
                        <g id="job-search-view-documentation-read" transform="translate(45.500000, 260.166667)">
                            <g id="Capa_1">
                                <path d="M6.2391797,5.67717127 C5.23642268,5.67717127 4.42099889,6.51614315 4.42099889,7.54785814 C4.42099889,8.57957312 5.23642268,9.41854501 6.2391797,9.41854501 C7.24193672,9.41854501 8.05736051,8.57957312 8.05736051,7.54785814 C8.05736051,6.51614315 7.24193672,5.67717127 6.2391797,5.67717127 Z" id="Shape"></path>
                                <path d="M11.630848,3.58044629 L10.443032,2.35832812 C10.205144,2.11357031 9.88852,1.97851562 9.552184,1.97851562 L2.34,1.97851562 C2.107852,1.97851562 1.92,2.17179248 1.92,2.41064453 L1.92,14.5678711 C1.92,14.8067231 2.107852,15 2.34,15 L11.58,15 C11.812148,15 12,14.8067231 12,14.5678711 L12,4.49702051 C12,4.15097168 11.868736,3.8252041 11.630848,3.58044629 Z M10.65145,12.0875475 C10.4739046,12.2702201 10.1862381,12.2702201 10.0086928,12.0875475 L7.81463337,9.8301273 C7.36878514,10.157061 6.82723998,10.3538884 6.2391797,10.3538884 C4.73527144,10.3538884 3.51190848,9.09519678 3.51190848,7.54785814 C3.51190848,6.00051949 4.73527144,4.74182783 6.2391797,4.74182783 C7.74308796,4.74182783 8.96645092,6.00051949 8.96645092,7.54785814 C8.96645092,8.15290063 8.77514799,8.71008471 8.4574209,9.16883949 L10.6514803,11.4262597 C10.8290256,11.6089323 10.8290256,11.9048749 10.65145,12.0875475 Z M11.16,4.57128906 L9.48,4.57128906 L9.48,2.84277344 L9.552184,2.84277344 C9.662504,2.84277344 9.770808,2.88878076 9.849124,2.96938721 L11.03694,4.19150537 C11.115284,4.27211182 11.16,4.38351465 11.16,4.49702051 L11.16,4.57128906 Z" id="Shape"></path>
                                <path d="M9.66,0 L0.42,0 C0.188048,0 0,0.193478516 0,0.432128906 L0,12.5605469 C0,12.7993989 0.187852,12.9926758 0.42,12.9926758 L0.84,12.9926758 L0.84,2.16064453 C0.84,1.44466455 1.404116,0.864257812 2.1,0.864257812 L10.08,0.864257812 L10.08,0.432128906 C10.08,0.193276855 9.892148,0 9.66,0 Z" id="Shape"></path>
                            </g>
                        </g>
                    </g>
                </g>
            </g>
        </g>
    </g>
</svg>