<?xml version="1.0" encoding="UTF-8"?>
<svg width="16px" height="16px" viewBox="0 0 16 16" version="1.1" xmlns="http://www.w3.org/2000/svg" xmlns:xlink="http://www.w3.org/1999/xlink">
    <!-- Generator: Sketch 41.1 (35376) - http://www.bohemiancoding.com/sketch -->
    <title>003-settings</title>
    <desc>Created with Sketch.</desc>
    <defs></defs>
    <g id="Project-Kitsune-" stroke="none" stroke-width="1" fill="none" fill-rule="evenodd">
        <g id="List-view-of-Projects-Context-menu" transform="translate(-1304.000000, -341.000000)" fill="#5b5b5b">
            <g id="Profile-card" transform="translate(-2.000000, -2.000000)">
                <g id="Card" transform="translate(1263.000000, 134.000000)">
                    <g id="Contents" transform="translate(0.000000, 37.000000)">
                        <g id="003-settings" transform="translate(43.000000, 172.000000)">
                            <g id="Group">
                                <path d="M9.91836735,9.9095723 C9.77142857,10.0562118 9.77142857,10.2940937 9.91836735,10.4374745 L13.3893878,13.9014257 L13.6865306,13.604888 L13.9183673,13.3735234 L10.4506122,9.9095723 C10.3036735,9.76293279 10.0653061,9.76293279 9.91836735,9.9095723 Z" id="Shape"></path>
                                <path d="M15.9983673,7.98696538 L15.9983673,7.2407332 C15.9983673,6.96374745 15.7959184,6.72260692 15.5216327,6.67698574 L14.0326531,6.4293279 C13.8857143,5.85906314 13.6604082,5.32138493 13.3665306,4.82281059 L14.2416327,3.59429735 C14.4016327,3.36619145 14.3755102,3.05661914 14.1795918,2.8610998 L13.6538776,2.33645621 L13.1281633,1.81181263 C12.9322449,1.61629328 12.6220408,1.59022403 12.3934694,1.75315682 L11.162449,2.62647658 C10.6628571,2.3299389 10.1240816,2.11160896 9.55265306,1.96171079 L9.30122449,0.475763747 C9.2555102,0.198778004 9.01714286,0 8.73632653,0 L7.98857143,0 L7.24081633,0 C6.97306122,0.0130346232 6.73469388,0.215071283 6.68897959,0.485539715 L6.44081633,1.97148676 C5.86938776,2.11812627 5.33061224,2.34297352 4.83102041,2.63625255 L3.6,1.76293279 C3.37142857,1.60325866 3.06122449,1.6293279 2.86530612,1.82484725 L2.34285714,2.35600815 L1.81714286,2.88065173 C1.62122449,3.07617108 1.59510204,3.38574338 1.75836735,3.61384929 L2.63346939,4.84236253 C2.32979592,5.34745418 2.10122449,5.89816701 1.96081633,6.48798371 L0.488163265,6.7389002 C0.213877551,6.78452138 0.0114285714,7.02240326 0.0114285714,7.30264766 L0.0114285714,8.04887984 L0.0114285714,8.79511202 C0.0114285714,9.07209776 0.213877551,9.31323829 0.488163265,9.35885947 L1.99020408,9.61303462 C2.13714286,10.1832994 2.3755102,10.7209776 2.66285714,11.209776 L1.78122449,12.4187373 C1.62122449,12.6468432 1.64734694,12.9564155 1.84326531,13.1519348 L2.36897959,13.6765784 L2.89469388,14.201222 C3.09061224,14.3967413 3.40081633,14.4228106 3.62938776,14.2598778 L4.86693878,13.3800407 C5.36653061,13.6700611 5.90530612,13.888391 6.47673469,14.0317719 L6.72816327,15.5014257 C6.77714286,15.7784114 7.0122449,15.9771894 7.29306122,15.9771894 L8.04081633,15.9771894 L8.78857143,15.9771894 C9.06612245,15.9771894 9.3077551,15.7751527 9.35346939,15.5014257 L9.60816327,14.002444 C9.73877551,13.9698574 9.86612245,13.9307536 9.99020408,13.888391 C10.0228571,13.8786151 10.0587755,13.8655804 10.0914286,13.8525458 C10.1959184,13.8167006 10.2971429,13.7775967 10.3983673,13.7352342 C10.4212245,13.7254582 10.4440816,13.7156823 10.4669388,13.7059063 C10.5877551,13.6537678 10.7053061,13.5983707 10.8228571,13.5397149 C10.8261224,13.5364562 10.8293878,13.5364562 10.8326531,13.5331976 C10.9502041,13.4745418 11.0677551,13.4093686 11.1787755,13.3441955 C11.2506122,13.301833 11.322449,13.2562118 11.3910204,13.2105906 L9.47102041,11.294501 C9.12816327,10.9523422 8.65142857,10.7861507 8.16489796,10.8187373 C7.34204082,10.8741344 6.49959184,10.5906314 5.87265306,9.96171079 C5.11183673,9.20244399 4.85387755,8.12708758 5.09877551,7.15274949 C5.11510204,7.08105906 5.20653061,7.05824847 5.2555102,7.11038697 L6.45387755,8.30631365 C6.80979592,8.66150713 7.39755102,8.66150713 7.75346939,8.30305499 L8.29877551,7.75885947 C8.65795918,7.40040733 8.65795918,6.81710794 8.30204082,6.46191446 L7.04163265,5.20407332 C6.99265306,5.15519348 7.0122449,5.07046843 7.07755102,5.04765784 C8.09959184,4.72179226 9.26530612,4.95967413 10.075102,5.76782077 C10.7346939,6.42606925 11.0155102,7.31894094 10.9208163,8.17922607 C10.8653061,8.69083503 11.0318367,9.20244399 11.397551,9.56741344 L13.2163265,11.3824847 C13.275102,11.2912424 13.3306122,11.2 13.3861224,11.1087576 C13.4481633,11.001222 13.5069388,10.8936864 13.562449,10.7828921 C13.5787755,10.7503055 13.595102,10.7177189 13.6114286,10.6851324 C13.6473469,10.6101833 13.68,10.5352342 13.7159184,10.4570265 C13.7420408,10.3983707 13.7681633,10.3364562 13.7910204,10.2778004 C13.8073469,10.2386965 13.8204082,10.196334 13.8367347,10.1539715 C13.8693878,10.0692464 13.8987755,9.98452138 13.9281633,9.89653768 L13.9281633,9.89653768 C13.9640816,9.77922607 14,9.66517312 14.0326531,9.54786151 L15.5216327,9.29694501 C15.7991837,9.25132383 15.9983673,9.01344196 15.9983673,8.73319756 L15.9983673,7.98696538 Z" id="Shape"></path>
                            </g>
                        </g>
                    </g>
                </g>
            </g>
        </g>
    </g>
</svg>
