<?xml version="1.0" encoding="iso-8859-1"?>
<!-- Generator: Adobe Illustrator 18.1.1, SVG Export Plug-In . SVG Version: 6.00 Build 0)  -->
<svg xmlns="http://www.w3.org/2000/svg" xmlns:xlink="http://www.w3.org/1999/xlink" version="1.1" id="Capa_1" x="0px" y="0px" viewBox="0 0 15.86 15.86" style="enable-background:new 0 0 15.86 15.86;" xml:space="preserve" width="512px" height="512px">
<g>
	<g>
		<rect x="0.02" y="11.857" width="15.262" height="2.575" fill="#777777"/>
		<rect x="0" y="6.47" width="8.343" height="2.574" fill="#777777"/>
		<rect x="0" y="1.427" width="4.171" height="2.574" fill="#777777"/>
		<path d="M10.174,5.738l2.639,2.567c0,0,0.177,0.204,0.357,0.021c0.253-0.251,2.574-2.65,2.574-2.65    s0.321-0.319-0.105-0.319c-0.424,0-1.104,0-1.104,0s0-0.185,0-0.469c0-0.873,0-2.571,0-3.222c0,0,0.004-0.153-0.192-0.153    c-0.195,0-2.44,0-2.716,0c-0.278,0-0.228,0.183-0.228,0.183c0,0.667,0,2.312,0,3.217c0,0.315,0,0.52,0,0.52s-0.848,0-1.196,0    C9.851,5.433,10.174,5.738,10.174,5.738z" fill="#777777"/>
	</g>
</g>
<g>
</g>
<g>
</g>
<g>
</g>
<g>
</g>
<g>
</g>
<g>
</g>
<g>
</g>
<g>
</g>
<g>
</g>
<g>
</g>
<g>
</g>
<g>
</g>
<g>
</g>
<g>
</g>
<g>
</g>
</svg>
