<?xml version="1.0" encoding="UTF-8"?>
<svg width="1600px" height="206px" viewBox="0 0 1600 206" version="1.1" xmlns="http://www.w3.org/2000/svg" xmlns:xlink="http://www.w3.org/1999/xlink">
    <!-- Generator: Sketch 41.1 (35376) - http://www.bohemiancoding.com/sketch -->
    <title>Background</title>
    <desc>Created with Sketch.</desc>
    <defs>
        <linearGradient x1="92.1655273%" y1="119.041667%" x2="22.1459961%" y2="19.3162879%" id="linearGradient-1">
            <stop stop-color="#B4B4B4" offset="0%"></stop>
            <stop stop-color="#404040" offset="100%"></stop>
        </linearGradient>
        <rect id="path-2" x="0" y="0" width="1600" height="208"></rect>
    </defs>
    <g id="Project-Kitsune-" stroke="none" stroke-width="1" fill="none" fill-rule="evenodd">
        <g id="Web-Action-pop-up">
            <g id="Background" transform="translate(0.000000, -2.000000)">
                <mask id="mask-3" fill="white">
                    <use xlink:href="#path-2"></use>
                </mask>
                <use id="Header-bg" fill="url(#linearGradient-1)" opacity="0.950000048" xlink:href="#path-2"></use>
                <g id="Shapes" mask="url(#mask-3)" fill-opacity="0.200000003" fill="#000000">
                    <g transform="translate(-44.000000, 31.000000)" id="Path-2">
                        <path d="M255.670393,224.008463 C255.670393,224.008463 835.657215,-99.7328784 1461.43247,152.151759 C1547.09054,186.630513 1679.63939,228.799607 1679.63939,228.799607 L1679.63939,445.954926 L255.670393,445.954926 L255.670393,224.008463 Z"></path>
                        <path d="M0.286264921,71.4203201 C162.565883,41.9439769 403.62514,45.3344142 721.464169,173.269752 C1155.51211,347.981052 1508.78712,246.665292 1684.51801,168.181989 C1684.51801,257.617188 1684.51801,386.632812 1684.51801,386.632812 L0.286264921,387.273438 C0.286264921,387.273438 0.286264921,173.269752 0.286264921,71.4203201 Z"></path>
                        <path d="M27.7929688,110.059979 C43.0557799,96.0663877 371.206219,-134.827864 996.981474,117.056774 C1622.75673,368.941412 1690.64106,127.088819 1690.64106,127.088819 L1690.64106,388.921875 L29.3698354,388.921875 C29.3698354,388.921875 12.5301577,124.05357 27.7929688,110.059979 Z"></path>
                    </g>
                </g>
            </g>
        </g>
    </g>
</svg>