<?xml version="1.0" encoding="UTF-8"?>
<svg width="15px" height="16px" viewBox="0 0 15 16" version="1.1" xmlns="http://www.w3.org/2000/svg" xmlns:xlink="http://www.w3.org/1999/xlink">
    <!-- Generator: Sketch 46 (44423) - http://www.bohemiancoding.com/sketch -->
    <title>tax billing invoice</title>
    <desc>Created with Sketch.</desc>
    <defs></defs>
    <g id="Project-Kitsune-" stroke="none" stroke-width="1" fill="none" fill-rule="evenodd">
        <g id="List-view-of-Projects-Context-menu" transform="translate(-1305.000000, -594.000000)" fill="#5B5B5B">
            <g id="Profile-card" transform="translate(-2.000000, -2.000000)">
                <g id="Card" transform="translate(1263.000000, 134.000000)">
                    <g id="Contents" transform="translate(0.000000, 37.000000)">
                        <g id="tax-billing-invoice" transform="translate(44.500000, 425.833333)">
                            <g id="Capa_1">
                                <g id="Group">
                                    <path d="M5.9244797,10.9716162 C5.9244797,8.79267677 7.73125461,7.02631313 9.96009594,7.02631313 C12.1888856,7.02631313 13.9956605,8.79262626 13.9956605,10.9716162 C13.9956605,13.1506061 12.1888856,14.9169697 9.96009594,14.9169697 C7.73130627,14.9169697 5.9244797,13.1505556 5.9244797,10.9716162 Z M9.8154469,12.8295732 C9.77188752,12.8295732 9.7433021,12.817457 9.7296898,12.7932241 C9.71607749,12.7689912 9.70927144,12.7434124 9.70927144,12.716487 C9.70927144,12.6734063 9.7174387,12.6182099 9.73377347,12.5508963 C9.75010824,12.4835827 9.7854997,12.3745363 9.83994893,12.2237539 L10.2809854,10.9878823 C10.3626593,10.7509384 10.4266362,10.5665019 10.472918,10.4345672 C10.5191998,10.3026326 10.5423404,10.1908937 10.5423404,10.0993472 C10.5423404,10.0185709 10.5096714,9.94318075 10.4443323,9.8731746 C10.3789932,9.80316845 10.2837085,9.78162842 10.1584753,9.80855387 C9.91889871,9.85163457 9.73377412,9.89606088 9.60309598,9.94183413 C9.47241784,9.98760738 9.37577192,10.0333799 9.31315531,10.0791532 C9.2505387,10.1249264 9.21786965,10.1666603 9.21514719,10.2043559 C9.21242473,10.2420515 9.2219532,10.2757078 9.24373289,10.3053258 C9.26551258,10.3349438 9.29273679,10.35783 9.32540632,10.3739853 C9.35807586,10.3901406 9.38257764,10.3982181 9.39891241,10.3982181 C9.4696964,10.3982181 9.50508787,10.4332206 9.50508787,10.5032268 C9.50508787,10.5516926 9.49419819,10.6122739 9.4724185,10.6849726 C9.45063881,10.7576713 9.42069218,10.8478702 9.38257772,10.9555719 L9.16205946,11.5937017 C9.0749407,11.8414157 9.00143535,12.051431 8.9415412,12.2237539 C8.88164706,12.3960767 8.83264349,12.5414719 8.79452903,12.6599438 C8.75641457,12.7784158 8.72782916,12.8713071 8.70877193,12.9386207 C8.6897147,13.0059343 8.68018623,13.0584382 8.68018623,13.0961338 C8.68018623,13.1553698 8.70196559,13.2105661 8.74552497,13.2617244 C8.78908435,13.3128828 8.87347939,13.3384615 8.9987126,13.3384615 C9.18383997,13.3384615 9.34854641,13.3115365 9.49283685,13.2576856 C9.6371273,13.2038347 9.74874654,13.1459459 9.82769791,13.0840174 C9.90664929,13.0220889 9.94884681,12.9642 9.95429173,12.9103492 C9.95973665,12.8564983 9.9134555,12.8295732 9.8154469,12.8295732 Z M10.5477853,8.27650804 C10.4062173,8.27650804 10.2864308,8.32766561 10.1884222,8.42998228 C10.0904136,8.53229896 10.0414101,8.64538412 10.0414101,8.76924115 C10.0414101,8.9254087 10.0890524,9.04657137 10.1843386,9.13273278 C10.2796247,9.21889419 10.4062172,9.26197425 10.56412,9.26197425 C10.6403489,9.26197425 10.7124931,9.24581923 10.7805546,9.2135087 C10.8486161,9.18119817 10.9085094,9.13946436 10.9602361,9.08830603 C11.0119629,9.03714769 11.0527992,8.98060511 11.0827463,8.9186766 C11.1126934,8.85674808 11.1276667,8.79347424 11.1276667,8.72885319 C11.1276667,8.60499616 11.0800243,8.49864226 10.9847382,8.4097883 C10.889452,8.32093435 10.7438025,8.27650804 10.5477853,8.27650804 Z" id="Combined-Shape"></path>
                                    <path d="M4.84999262,10.9716162 C4.84999262,8.2169697 7.14237638,5.97585859 9.96004428,5.97585859 C10.0534465,5.97585859 10.1462288,5.97848485 10.2383911,5.98333333 L10.2383911,0.52520202 C10.2383911,0.235151515 9.99785978,0 9.70117343,0 L0.541608856,0 C0.244922509,0 0.00439114391,0.235151515 0.00439114391,0.52520202 L0.00439114391,14.4747475 C0.00439114391,14.764798 0.244922509,14.9999495 0.541608856,14.9999495 L6.9415203,14.9999495 C5.67423616,14.0899495 4.84999262,12.6232323 4.84999262,10.9716162 Z M3.0424428,2.78994949 L6.84744649,2.78994949 C7.14413284,2.78994949 7.38466421,3.02510101 7.38466421,3.31515152 C7.38466421,3.60520202 7.14413284,3.84035354 6.84744649,3.84035354 L3.0424428,3.84035354 C2.74575646,3.84035354 2.50522509,3.60520202 2.50522509,3.31515152 C2.50522509,3.02510101 2.74575646,2.78994949 3.0424428,2.78994949 Z M3.0424428,5.57984848 L6.84744649,5.57984848 C7.14413284,5.57984848 7.38466421,5.815 7.38466421,6.10505051 C7.38466421,6.39510101 7.14413284,6.63025253 6.84744649,6.63025253 L3.0424428,6.63025253 C2.74575646,6.63025253 2.50522509,6.39510101 2.50522509,6.10505051 C2.50517343,5.815 2.74575646,5.57984848 3.0424428,5.57984848 Z M3.9936679,9.42015152 L3.0424428,9.42015152 C2.74575646,9.42015152 2.50522509,9.185 2.50522509,8.89494949 C2.50522509,8.60489899 2.74575646,8.36974747 3.0424428,8.36974747 L3.9936679,8.36974747 C4.29035424,8.36974747 4.53088561,8.60489899 4.53088561,8.89494949 C4.53088561,9.185 4.29035424,9.42015152 3.9936679,9.42015152 Z" id="Shape"></path>
                                </g>
                            </g>
                        </g>
                    </g>
                </g>
            </g>
        </g>
    </g>
</svg>