<?xml version="1.0" encoding="iso-8859-1"?>
<!-- Generator: Adobe Illustrator 19.0.0, SVG Export Plug-In . SVG Version: 6.00 Build 0)  -->
<svg xmlns="http://www.w3.org/2000/svg" xmlns:xlink="http://www.w3.org/1999/xlink" version="1.1" id="Capa_1" x="0px" y="0px" viewBox="0 0 507.482 507.482" style="enable-background:new 0 0 507.482 507.482;" xml:space="preserve" width="512px" height="512px">
<g>
	<g>
		<g>
			<path d="M123.472,123.508l-24.288-20.832c-7.467,8.706-14.28,17.953-20.384,27.664l27.2,17.008     C111.217,138.974,117.058,131.005,123.472,123.508z" fill="#8B8B8B"/>
			<path d="M168.112,84.82l-17.216-26.992c-9.69,6.151-18.91,13.012-27.584,20.528l20.96,24.16     C151.772,96.038,159.74,90.123,168.112,84.82z" fill="#8B8B8B"/>
			<path d="M482.815,149.716c-39.367-78.501-119.684-128.045-207.503-128c-32.429-0.066-64.508,6.705-94.144,19.872l12.976,29.248     c101.002-44.714,219.128,0.916,263.842,101.918s-0.916,219.128-101.918,263.842c-25.435,11.26-52.94,17.091-80.756,17.12     c-75.716,0.332-145.02-42.46-178.64-110.304l-28.624,14.304C125.486,472.251,264.897,518.537,379.432,461.1     C493.967,403.662,540.253,264.251,482.815,149.716z" fill="#8B8B8B"/>
			<path d="M96,210.404L76.912,229.46c1.826-15.819,5.588-31.354,11.2-46.256c1.232-3.28,2.56-6.528,3.952-9.744l-29.344-12.8     c-1.6,3.696-3.2,7.44-4.528,11.2c-7.366,19.345-12.044,39.608-13.904,60.224l-21.664-21.68L0,233.028l59.312,59.312     l59.312-59.312L96,210.404z" fill="#8B8B8B"/>
			<polygon points="251.312,109.716 251.312,269.716 347.312,269.716 347.312,237.716 283.312,237.716 283.312,109.716    " fill="#8B8B8B"/>
			<rect x="379.312" y="237.716" width="32" height="32" fill="#8B8B8B"/>
			<rect x="251.312" y="365.716" width="32" height="32" fill="#8B8B8B"/>
		</g>
	</g>
</g>
<g>
</g>
<g>
</g>
<g>
</g>
<g>
</g>
<g>
</g>
<g>
</g>
<g>
</g>
<g>
</g>
<g>
</g>
<g>
</g>
<g>
</g>
<g>
</g>
<g>
</g>
<g>
</g>
<g>
</g>
</svg>
