<?xml version="1.0" encoding="UTF-8"?>
<svg width="1483px" height="177px" viewBox="0 0 1483 177" version="1.1" xmlns="http://www.w3.org/2000/svg" xmlns:xlink="http://www.w3.org/1999/xlink">
    <!-- Generator: Sketch 41.1 (35376) - http://www.bohemiancoding.com/sketch -->
    <title>Shapes</title>
    <desc>Created with Sketch.</desc>
    <defs></defs>
    <g id="Project-Kitsune-" stroke="none" stroke-width="1" fill="none" fill-rule="evenodd" fill-opacity="0.200000003">
        <g id="Web-Action-pop-up" transform="translate(0.000000, -29.000000)" fill="#000000">
            <g id="Background" transform="translate(0.000000, -2.000000)">
                <g id="Shapes" transform="translate(-44.000000, 31.000000)">
                    <path d="M255.670393,224.008463 C255.670393,224.008463 835.657215,-99.7328784 1461.43247,152.151759 C1547.09054,186.630513 1679.63939,228.799607 1679.63939,228.799607 L1679.63939,445.954926 L255.670393,445.954926 L255.670393,224.008463 Z" id="Path-2"></path>
                    <path d="M0.286264921,71.4203201 C162.565883,41.9439769 403.62514,45.3344142 721.464169,173.269752 C1155.51211,347.981052 1508.78712,246.665292 1684.51801,168.181989 C1684.51801,257.617188 1684.51801,386.632812 1684.51801,386.632812 L0.286264921,387.273438 C0.286264921,387.273438 0.286264921,173.269752 0.286264921,71.4203201 Z" id="Path-2"></path>
                    <path d="M27.7929688,110.059979 C43.0557799,96.0663877 371.206219,-134.827864 996.981474,117.056774 C1622.75673,368.941412 1690.64106,127.088819 1690.64106,127.088819 L1690.64106,388.921875 L29.3698354,388.921875 C29.3698354,388.921875 12.5301577,124.05357 27.7929688,110.059979 Z" id="Path-2"></path>
                </g>
            </g>
        </g>
    </g>
</svg>