<svg xmlns="http://www.w3.org/2000/svg" viewBox="0 0 512 512.11">
	<title>Asset 1</title>
	<g id="Layer_2" data-name="Layer 2">
		<g id="Layer_1-2" data-name="Layer 1" fill="#8B8B8B">
			<path d="M0,452.11V6.11C3.84,1,9,0,15.24,0Q134,.26,252.72,0A17.12,17.12,0,0,1,266,5.55c8.49,8.69,17.24,17.11,25.89,25.64l10.07,10.08,34.93,34.91,10.08,10.07c4.27,4.39,8.47,8.85,12.84,13.14A13.91,13.91,0,0,1,364.21,110c-.09,9.13.08,18.26.14,27.38l.06,19.76-.06,70.22.06,19.78c-.08,12.27-.14,24.53-.26,36.8-.07,7.87-3.6,12.13-10,12.16s-10.06-4.43-10.15-12.06q-.09-7-.16-13.92l-.05-19q0-35.49.05-71,0-9.52-.05-19c.07-13.41.1-26.81.25-40.22,0-2.14-.56-2.85-2.77-2.81-9.43.17-18.86.17-28.29.23l-19,0c-12.25-.05-24.5-.05-36.74-.16-7.1-.07-11-4-11.21-11-.09-3-.1-6-.16-8.93q0-9.52,0-19c.06-15,.21-30,.15-45,0-4.59,2.1-11.08-.91-13.27s-9.24-.53-14-.54l-19,0-71,0-19,0-71,0-19,0c-12.42-.58-12.42-.58-11.84,11.84l0,19,0,71,0,19,0,71,0,19,0,71,0,19,0,71,0,19c-.06,7.66.05,15.33-.26,23-.13,3.29.83,4.13,4.09,4.09,14.33-.16,28.65,0,43,0,3.57,2,6.4,4.67,7.16,9-.88,7.51-3.55,10.19-11.13,11.17l-19,0c-9.44-.05-18.9-.39-28.33,0C9.35,458.45,3.94,457.44,0,452.11Zm266.3-416v20q0,9.52.05,19.06l-.05,22c-.25.7.05.9.7.79l50,0c4,.18,8,.57,12.45-.31l-7.28-6.79q-17-17.88-34.84-34.86a86.19,86.19,0,0,0-10.16-10.15A74.61,74.61,0,0,0,267.26,36l-.88-.66Z"/>
			<path d="M459,512.11H236c-.38-1.28-1.56-.94-2.44-1.17A50.85,50.85,0,0,1,208,495.1l-7.07-11c-.48-1.75-.91-3.52-1.45-5.25-5.69-18.18-.17-38.19,14.68-49.89,4.2-3.3,5.43-6.8,5.86-11.57,2.41-26.61,27.21-45.15,52.87-41.59,3.75.52,5.33-.55,7-3.47,7.57-13.53,18.36-24,31.54-32,14-8.42,29.3-12.22,45.54-12.6l17.83,1.79a93.39,93.39,0,0,1,44.85,23.71L429,364c4.54,6.88,8.78,13.92,11.67,21.68.61,1.63.81,3.67,3.48,3.23,9.92-1.63,19.36.71,28.71,3.61L485,399a68.87,68.87,0,0,1,20.37,23.36c3.13,6,4.24,12.59,6.61,18.78v19c-1,.3-.87,1.21-1.05,2-5.38,23.52-19.38,39.35-42.26,47.19C465.51,510.38,462.23,511.18,459,512.11ZM295.63,386c-3.19,5.39-4.65,12.42-12.64,13.21-2.07-.56-4.17-1-6.2-1.7-20.36-6.86-38.59,7-36.61,28.37.73,7.87-1.87,12.14-8.74,15.7-8.78,4.55-13.73,12.23-13.61,22.56a22.33,22.33,0,0,0,4.92,16.46,22.74,22.74,0,0,0,16.55,10.64c14.51,1.88,29.12.67,43.68.69l19,0,71,0,19,0c19.25,0,38.52.25,57.77,0,5.89-.07,11.87-.84,17.19-3.94a37.44,37.44,0,0,0,21-21A36.58,36.58,0,0,0,491,443c-2.59-13-9.33-23.15-21.57-29.11a28.47,28.47,0,0,0-16.47-4.7c-17.21-1.4-29.66,6.23-38.87,20.26-4,6.07-9.93,7.6-14.85,4.17s-5.66-9.43-1.82-15.42c5.76-9,12.93-16.48,22.36-21.61,2.17-1.17,2.77-2.23,1.62-4.65-2.14-4.47-3.87-9.14-7.22-12.93-2.16-4.41-5.6-7.77-9.13-11.06a61.64,61.64,0,0,0-27.27-16.47c-8.31-2.53-17-4.58-25.86-2.62a54.61,54.61,0,0,0-26,7.07C312.48,362.56,302.23,372.45,295.63,386Z"/>
			<path d="M427.07,186.08a57.3,57.3,0,0,0-10.06-10c-6.89-7.26-15-13-23-18.94-3.81-2.84-6.57-6.26-5.42-11.36,1.74-7.75,9.93-10.33,16.93-5.3a270.88,270.88,0,0,1,24.09,19.32c.61.55,1.3,1,1.95,1.51l10.27,10.15A231,231,0,0,1,471.69,213a49.35,49.35,0,0,0,5.42,11.11c2.57-3.85,5.29-6.87,9.9-7.13,9.23,1.55,12.64,7.95,8.43,16.16-3.39,6.61-7,13.13-10.58,19.62-4,7.15-8.94,8.57-16.14,4.83Q460.38,253.27,452,249c-3.26-2.34-7-4.07-9-7.85-.62-9.84,2.8-13.77,12.71-13.81A146.26,146.26,0,0,0,427.07,186.08Z"/>
			<path d="M101.2,422l-5.86-12.5c-2.9,4.41-5.91,8.05-11.36,7.76-8.31-2-11.48-8.25-7.72-15.73,3.65-7.24,7.55-14.38,11.47-21.48,3-5.46,8.49-6.91,14.58-3.88,5.93,2.95,11.76,6.09,17.63,9.15,3.25,2.31,7,4,9,7.78.68,9.82-2,13-12.25,14.23,7.62,14.69,16.26,28.52,27.3,40.76a61.5,61.5,0,0,0,10,11,77.57,77.57,0,0,0,22.56,17.6c4.49,2.27,7.56,5.54,6.89,10.87-.92,7.39-7.59,10.72-14.89,7.65-8.69-3.66-15.75-9.71-22.81-15.74-2-1.72-3.9-3.57-5.84-5.36L130.35,464A301.19,301.19,0,0,1,101.2,422Z"/>
			<path d="M269,342.3l-19-.2c-6.32-3.27-8.58-6.9-7.39-11.89,1.37-5.73,5-8.06,12.42-8.1,6,0,12-.1,18-.16,4.28.77,6.91,3.59,8.94,7.16C282.07,338.59,279.1,341.62,269,342.3Z"/>
			<path d="M58.18,285c-4.69-3.65-6.07-8.25-4-13.84l3.87-4c6.54-2.23,13.33-.51,20-1.26l71-.05,19,.05,71-.05,19,.05c13.4,0,26.81.2,40.21.09,4.8,0,8.91.87,11.41,5.33s1,8.59-1.94,12.34h0c-3,2.06-6.35,2.42-9.93,2.42-20.92,0-41.83.08-62.75.14l-19,0-71,0-19,0q-30-.08-60-.12A21.69,21.69,0,0,1,58.18,285Z"/>
			<path d="M134,210c7,0,14,.05,21,.16,6.73.1,11.12,4.25,11,10.24-.13,5.75-4.46,9.67-11,9.73-14.65.11-29.3.14-43.95.2l-19,0c-9.12,0-18.24-.07-27.37-.16-6.75-.06-11.34-4-11.49-9.79s4.63-10.15,11.59-10.19q25.14-.13,50.27-.2Z"/>
			<path d="M137,97.92l16.06.59c5.64,3.9,7.44,7.82,5.89,12.82-1.39,4.49-5.39,6.74-12,6.79-4.64,0-9.29.12-13.93.18l-19,0c-16.07-.05-32.15-.26-48.22-.06-6.31.08-10.43-2.26-12.53-8.18.25-8.5,3.46-11.53,12.78-12Z"/>
			<path d="M77,174.3c-5.89-.69-11.87.56-17.73-.82-5.69-4.19-7.08-7.39-5.41-12.42,1.62-4.87,5.07-6.9,11.72-6.95,5.13,0,10.25-.13,15.38-.19l19,.05c5.48.05,11,0,16.45.17,6.08.15,10.36,4.2,10.49,9.75.14,5.71-4.25,10.12-10.53,10.19C103.29,174.24,90.15,174.24,77,174.3Z"/>
			<path d="M171,154.1l19-.13c3.81.05,7.62.06,11.42.15,6.5.16,10.65,4,10.71,9.87s-4.09,10-10.46,10.09c-9.11.12-18.23,0-27.34.06a15.64,15.64,0,0,1-6.23-1.43c-3.82-3-4.91-7-4.26-11.61A13.45,13.45,0,0,1,171,154.1Z"/>
			<path d="M192,107.9a9.83,9.83,0,0,1-9.88,10.19A10,10,0,1,1,192,107.9Z"/>
			<path d="M257,174.3c-6-.76-12.11.75-18-1.07-5-4.14-6.63-8.38-4.68-12.83,2.22-5.09,6.5-6.53,11.78-6.34,5,.18,9.93-.08,14.89-.14l19,.05c6.65.05,13.29.05,19.93.16,6.36.1,10.84,4.14,11,9.78S306.45,174,299.86,174.1C285.58,174.21,271.3,174.24,257,174.3Z"/>
			<path d="M89,342.3l-19,0c-2.32-.05-4.63,0-6.94-.18a10.27,10.27,0,0,1-9.93-9.8,10.11,10.11,0,0,1,10.09-10.11c9.92-.22,19.85-.18,29.77-.25l19,.05q17.72.06,35.43.15c7.33,0,11.83,3.72,12,9.77s-4.53,10.19-12,10.22Z"/>
			<path d="M207.84,226.13c-4.27-8.94,0-15.89,9.76-16,2.14,0,4.28-.1,6.41-.14l71-.05c4.72.32,9.7-.4,13.58,3.33,5.12,9.87.94,16.81-10.16,16.87-2.46,0-4.92.12-7.38.18l-19,0c-18,0-35.93-.17-53.89-.09C214,230.19,210.59,229.2,207.84,226.13Z"/>
			<path d="M202,322c6.1,1.46,9.64,4.73,9.68,9.65a9.82,9.82,0,0,1-6.35,9.74c-6,2.51-11.62-.86-14-8.4C192.84,325.16,194.83,323.1,202,322Z"/>
		</g>
	</g>
</svg>
