<?xml version="1.0" encoding="UTF-8"?>
<svg width="449px" height="211px" viewBox="0 0 449 211" version="1.1" xmlns="http://www.w3.org/2000/svg" xmlns:xlink="http://www.w3.org/1999/xlink">
    <!-- Generator: Sketch 48.1 (47250) - http://www.bohemiancoding.com/sketch -->
    <title>Group 2</title>
    <desc>Created with Sketch.</desc>
    <defs>
        <filter x="-5.5%" y="-10.4%" width="110.9%" height="125.7%" filterUnits="objectBoundingBox" id="filter-1">
            <feOffset dx="0" dy="4" in="SourceAlpha" result="shadowOffsetOuter1"></feOffset>
            <feGaussianBlur stdDeviation="7" in="shadowOffsetOuter1" result="shadowBlurOuter1"></feGaussianBlur>
            <feColorMatrix values="0 0 0 0 0   0 0 0 0 0   0 0 0 0 0  0 0 0 0.0485167572 0" type="matrix" in="shadowBlurOuter1" result="shadowMatrixOuter1"></feColorMatrix>
            <feMerge>
                <feMergeNode in="shadowMatrixOuter1"></feMergeNode>
                <feMergeNode in="SourceGraphic"></feMergeNode>
            </feMerge>
        </filter>
    </defs>
    <g id="Top-header-&amp;-side-bar-5" stroke="none" stroke-width="1" fill="none" fill-rule="evenodd" transform="translate(-569.000000, -407.000000)" opacity="0.200000003">
        <g id="404-page-1" transform="translate(-8.000000, -140.000000)" fill="#FFFFFF">
            <g id="&lt;404-content&gt;" transform="translate(343.000000, 557.000000)">
                <g id="Group-2" filter="url(#filter-1)" transform="translate(248.000000, 0.000000)">
                    <path d="M406.014941,104.183545 L420.533105,104.183545 L420.533105,129.688428 L406.014941,129.688428 L406.014941,160 L372.956689,160 L372.956689,129.688428 L317.728809,129.688428 L315.766895,109.480713 L372.956689,17.4669434 L372.956689,17.1726563 L406.014941,17.1726563 L406.014941,104.183545 Z M347.255615,104.183545 L372.956689,104.183545 L372.956689,60.2366699 L370.89668,63.5719238 L347.255615,104.183545 Z" id="4"></path>
                    <path d="M90.3149414,104.183545 L104.833105,104.183545 L104.833105,129.688428 L90.3149414,129.688428 L90.3149414,160 L57.2566895,160 L57.2566895,129.688428 L2.02880859,129.688428 L0.0668945312,109.480713 L57.2566895,17.4669434 L57.2566895,17.1726563 L90.3149414,17.1726563 L90.3149414,104.183545 Z M31.5556152,104.183545 L57.2566895,104.183545 L57.2566895,60.2366699 L55.1966797,63.5719238 L31.5556152,104.183545 Z" id="4"></path>
                    <g id="Kitsune-1-color-logo" transform="translate(119.000000, 0.100000)">
                        <g id="Asset-4">
                            <g id="Layer_2">
                                <g id="Layer_1-2">
                                    <path d="M118.888325,77.4164416 L108.261896,68.8678442 C108.261896,68.8678442 113.563247,83.3347013 118.888325,77.4164416 Z" id="Shape"></path>
                                    <path d="M182.628817,91.3499989 C182.628817,40.9397132 141.756895,0.0711807334 91.3499988,0.0711807334 C40.9431027,0.0711807334 0.0711806155,40.9397132 0.0711806155,91.3499989 C0.0711806155,141.760285 40.9397131,182.628817 91.3499988,182.628817 C97.6132786,182.63018 103.860206,181.989586 109.992856,180.717077 L109.992856,180.717077 C112.735051,148.081908 89.6551936,130.58135 89.6551936,130.58135 C89.6551936,130.58135 123.608921,143.36357 134.092986,172.009168 L133.991297,172.063402 C132.635453,172.77522 132.726973,172.741324 134.109934,172.002389 C163.968581,156.175489 182.636556,125.143926 182.628817,91.3499989 Z M142.878856,105.488064 C147.398673,107.975399 152.245824,109.81476 157.277921,110.952116 C157.277921,110.952116 144.543155,119.944752 142.363635,107.701479 C142.339908,107.572674 142.31957,107.416752 142.299233,107.247272 C136.360635,107.623518 131.727038,106.789674 127.27309,103.633947 C113.250272,93.7498431 100.430765,83.2962846 88.6315313,86.5062457 C74.4731287,90.3432846 80.0151417,104.294921 80.0151417,104.294921 C73.6223365,95.6242976 75.6527131,85.3131028 75.6527131,85.3131028 C68.8734923,93.2176742 76.6695962,112.331687 76.6695962,112.331687 C59.6876481,82.7980119 67.8633884,66.3651807 82.099752,58.941934 C99.2003365,50.0543755 123.452999,53.9659859 129.855973,80.0659859 C133.62183,95.359908 139.763804,102.627233 142.878856,105.488064 Z M131.872791,19.5072067 C131.872791,19.5072067 133.659116,43.5192067 111.928323,53.5931288 C107.948921,51.7627392 102.322168,50.911947 97.759752,51.1932846 C97.759752,51.1932846 102.769596,48.1765314 103.969518,47.3935314 C127.18157,32.2962067 131.872791,19.5072067 131.872791,19.5072067 Z M95.5124404,25.5847781 C105.61009,18.0361158 114.456973,6.94192099 114.456973,6.94192099 C114.456973,6.94192099 108.559051,44.0445963 90.2585443,50.5763755 C90.2585443,50.5763755 43.6141157,59.6503626 70.7309988,112.355414 C53.7829468,94.976882 53.5863494,76.8695833 56.4336222,64.3280249 C60.7452066,45.3055314 83.2996741,34.7197781 95.5124404,25.5847781 Z M63.9890637,145.214298 C1.68802477,113.816337 46.508843,67.8633885 46.508843,67.8633885 C14.9617391,117.219505 63.9755053,145.214298 63.9755053,145.214298 L63.9890637,145.214298 Z M38.2110767,148.993713 C35.6151426,146.666427 33.2046048,144.140292 31.0013754,141.438272 C28.8605669,138.804845 26.9550708,135.988567 25.30683,133.021869 C23.6984916,130.119119 22.3857733,127.062166 21.3884404,123.897038 C18.2055962,114.087505 18.6021806,104.138999 21.5240248,94.7294405 C22.510975,91.5571728 23.7721493,88.4768226 25.2932715,85.5232587 C26.3847261,83.5098301 27.5744793,81.5675833 28.8591417,79.6727911 C30.143804,77.7779989 33.2419079,74.0223106 34.7367261,72.2427651 C41.0922456,64.7144405 46.6749339,60.6333496 53.9761546,54.6167911 C54.877791,53.938869 55.3726741,53.599908 55.3726741,53.599908 C48.7445305,61.0144596 42.5731035,68.8249596 36.8925183,76.9882197 C35.1367001,79.6694015 33.5029079,82.4115963 32.0182585,85.2249729 C30.6448785,88.0150649 29.4768823,90.9016357 28.5235702,93.8617002 C25.7440897,102.617064 25.0390507,111.752064 27.7134533,121.0057 C28.5652615,124.036338 29.7001256,126.980175 31.1030637,129.79835 C32.5358417,132.676331 34.2071098,135.429274 36.0993494,138.028324 C38.0441802,140.706196 40.1783157,143.241332 42.4853754,145.614272 C52.8202975,156.237311 66.1245183,163.37244 80.4490118,168.114505 C64.5890248,165.72144 49.7493105,159.067635 38.1975183,148.993713 L38.2110767,148.993713 Z M131.049116,118.765168 C128.04931,118.477051 124.974934,117.453389 121.988687,116.629713 C120.995531,116.290752 120.015934,115.911116 119.043116,115.511142 C117.097585,114.68721 115.212777,113.726683 113.402804,112.636752 C112.56896,112.13057 111.744155,111.606311 110.928388,111.063973 C110.114882,110.501298 109.321713,109.925064 108.528544,109.318324 L107.413362,108.494648 L106.898142,108.155687 L106.349025,107.816726 C104.877697,106.874334 103.298017,106.112947 101.644246,105.549077 C100.019412,104.984035 98.316839,104.674164 96.5971157,104.630492 C94.9524602,104.593984 93.3141574,104.846383 91.756752,105.376207 C90.2619339,105.888038 86.4723494,107.467596 85.9944144,111.477505 C85.4690248,115.995856 88.546791,119.317674 91.5093105,122.056479 C92.9101804,123.307638 94.4011048,124.454155 95.9700378,125.486765 C96.9869209,126.164687 107.86757,133.337103 110.114882,135.296298 C113.676193,138.385272 116.841313,141.903336 119.537999,145.770194 C119.537999,145.770194 113.128246,137.296168 100.376531,130.740661 C99.1427131,130.110194 97.9800767,129.347531 96.8004923,128.622155 C95.6209079,127.896778 94.427765,127.168012 93.2990248,126.40535 C87.6078689,122.588648 81.4353884,118.30757 81.4692845,111.416492 C81.4692845,110.230129 81.9506092,106.586298 83.6149079,104.535583 C85.2045731,102.570734 87.2863433,101.062035 89.6484144,100.162986 C91.9620984,99.3226495 94.4261456,98.9762511 96.881843,99.1461028 C99.2136867,99.2809005 101.509615,99.783099 103.684791,100.634142 C105.726423,101.439991 107.661621,102.492967 109.447129,103.769531 C109.664064,103.925453 109.87422,104.074596 110.091155,104.244077 L110.735181,104.749129 C111.145323,105.08809 111.453778,105.342311 111.86731,105.69483 C112.545233,106.281233 113.243492,106.850687 113.951921,107.389635 C115.331323,108.477988 116.769561,109.489621 118.260116,110.419947 C119.699319,111.316792 121.187408,112.132695 122.717453,112.863856 C124.165448,113.570326 125.656428,114.185059 127.18157,114.704414 C129.963096,115.666662 132.842592,116.318044 135.767453,116.646661 C137.123297,116.802583 138.40457,116.890713 139.62144,116.92122 C140.83831,116.951726 141.994168,116.92122 143.044947,116.839869 C144.095726,116.758518 145.078713,116.670389 145.970181,116.558531 C147.332627,116.370703 148.683727,116.108178 150.017375,115.772142 C150.952908,115.52809 151.444401,115.365389 151.444401,115.365389 C151.018593,115.617091 150.578309,115.843458 150.125843,116.043311 C148.846645,116.616767 147.529494,117.101497 146.183726,117.494064 C145.309207,117.748285 144.336388,118.012674 143.244934,118.236389 C142.153479,118.460103 140.984064,118.643142 139.70957,118.778726 C138.346383,118.930357 136.976303,119.011815 135.604752,119.022778 C134.078119,119.020627 132.552757,118.934628 131.035557,118.765168 L131.049116,118.765168 Z" id="Shape"></path>
                                </g>
                            </g>
                        </g>
                    </g>
                </g>
            </g>
        </g>
    </g>
</svg>