<?xml version="1.0" encoding="UTF-8"?>
<svg width="45px" height="45px" viewBox="0 0 45 45" version="1.1" xmlns="http://www.w3.org/2000/svg" xmlns:xlink="http://www.w3.org/1999/xlink">
    <!-- Generator: Sketch 48.1 (47250) - http://www.bohemiancoding.com/sketch -->
    <title>Zipped File</title>
    <desc>Created with Sketch.</desc>
    <defs></defs>
    <g id="File-Info-card-(File-upload-active-view)" stroke="none" stroke-width="1" fill="none" fill-rule="evenodd" transform="translate(-723.000000, -457.000000)">
        <g id="IDE" transform="translate(-8.000000, -165.000000)" fill="#FFFFFF" fill-rule="nonzero">
            <g id="Projects" transform="translate(8.000000, 203.000000)">
                <g id="Drop-Files" transform="translate(0.000000, 23.000000)">
                    <g id="hover-active-card" transform="translate(378.000000, 217.000000)">
                        <g id="Zipped-File" transform="translate(367.500000, 199.500000) rotate(-20.000000) translate(-367.500000, -199.500000) translate(351.000000, 179.000000)">
                            <polygon id="XMLID_818_" points="20.7777778 12.4238697 31.9260333 12.4238697 20.7777778 1.09171818"></polygon>
                            <path d="M1.83333333,0 L17.1111111,0 L17.1111111,14.2875061 C17.1111111,15.3167303 17.9319556,16.1511424 18.9444444,16.1511424 L33,16.1511424 L33,39.1363636 C33,40.1655879 32.1791556,41 31.1666667,41 L1.83333333,41 C0.820844444,41 0,40.1655879 0,39.1363636 L0,1.86363636 C0,0.834412121 0.820844444,0 1.83333333,0 Z M13.3783784,38.6790766 L13.3783784,38.7222222 C13.3783784,39.4766875 14.1703904,40.0888889 15.1476068,40.0888889 L16.9680299,40.0888889 C17.9422349,40.0888889 18.7297297,39.4755214 18.7297297,38.7222222 L18.7297297,38.6790766 C18.7297297,37.9246113 17.9407291,37.3555556 16.9680299,37.3555556 L15.1476068,37.3555556 C14.1688847,37.3555556 13.3783784,37.9257774 13.3783784,38.6790766 Z M13.3613231,33.7111111 C12.3876661,33.7111111 11.5945946,34.2881087 11.5945946,35.055859 C11.5945946,35.8224245 12.3891709,36.4444444 13.3613231,36.4444444 L15.1807223,36.4444444 C16.1603989,36.4444444 16.9459459,35.8212397 16.9459459,35.055859 C16.9459459,34.2869239 16.158894,33.7111111 15.1807223,33.7111111 L13.3613231,33.7111111 Z M15.179729,29.1555556 C16.1554396,29.1555556 16.9444402,28.577874 16.9459459,27.8072374 C16.9459459,27.0413358 16.1554396,26.4222222 15.179729,26.4222222 L13.3608116,26.4222222 C12.3851009,26.4222222 11.5945946,27.0425196 11.5945946,27.8072374 C11.5945946,28.577874 12.3866066,29.1555556 13.3608116,29.1555556 L15.179729,29.1555556 Z M16.8753896,32.8 C17.8398253,32.8 18.7297297,32.1848252 18.7297297,31.4344984 C18.7297297,30.6783461 17.8383347,30.0666667 16.8753896,30.0666667 L15.1239027,30.0666667 C14.1609576,30.0666667 13.3783784,30.6795112 13.3783784,31.4344984 C13.3783784,32.1859903 14.1609576,32.8 15.1239027,32.8 L16.8753896,32.8 Z M16.4879267,24.6 C17.2330225,24.6 17.836688,24.0711943 17.8378378,23.4199706 L17.794144,17.5780225 C17.794144,16.9267988 17.1479344,16.4 16.4039884,16.4 L13.876642,16.4 C13.1326961,16.4 12.4864865,16.9278023 12.4864865,17.5780225 L12.4864865,23.4199706 C12.4864865,24.0711943 13.1338459,24.6 13.876642,24.6 L16.4879267,24.6 Z" id="Combined-Shape"></path>
                        </g>
                    </g>
                </g>
            </g>
        </g>
    </g>
</svg>