<?xml version="1.0" encoding="UTF-8"?>
<svg width="11px" height="11px" viewBox="0 0 11 11" version="1.1" xmlns="http://www.w3.org/2000/svg" xmlns:xlink="http://www.w3.org/1999/xlink">
    <!-- Generator: Sketch 48.1 (47250) - http://www.bohemiancoding.com/sketch -->
    <title>file-swap change files copy</title>
    <desc>Created with Sketch.</desc>
    <defs></defs>
    <g id="File-Info-card-(File-upload-active-view)" stroke="none" stroke-width="1" fill="none" fill-rule="evenodd" transform="translate(-1011.000000, -544.000000)" opacity="0.600000024">
        <g id="IDE" transform="translate(-8.000000, -165.000000)" fill="#FFFFFF" fill-rule="nonzero">
            <g id="Projects" transform="translate(8.000000, 203.000000)">
                <g id="Uploading-file-path" transform="translate(0.000000, 23.000000)">
                    <g id="Group-16" transform="translate(542.000000, 329.000000)">
                        <g id="Hover-+-Tooltip" transform="translate(437.000000, 125.000000)">
                            <g id="file-swap-change-files-copy" transform="translate(32.000000, 29.000000)">
                                <path d="M3.41707302,1.47387402 C4.28468966,0.636044002 5.60716633,0.502999699 6.62264706,1.0688582 L6.35534483,1.32699518 C6.27843408,1.40110262 6.25549696,1.51225301 6.29699797,1.60915943 C6.33845436,1.70537628 6.43589249,1.76881691 6.54466531,1.76860142 L7.72891684,1.76812734 C7.87678093,1.76812734 7.99693306,1.6519991 7.99693306,1.50947318 L7.99693306,0.3661412 C7.99693306,0.260744424 7.93182556,0.166725588 7.83197769,0.126838156 C7.73112576,0.0869291742 7.61628398,0.109038577 7.53970791,0.183016727 L7.15718458,0.552584237 C5.8426288,-0.28229355 4.05420284,-0.142159584 2.89897972,0.973503315 C2.7557789,1.11171941 2.7557789,1.33565793 2.89897972,1.47389557 C3.04206897,1.61206857 3.27387221,1.61206857 3.41707302,1.47387402 Z" id="Shape"></path>
                                <path d="M7.7378641,9.52892737 C6.87022515,10.3667143 5.54772617,10.4998017 4.53229006,9.93387854 L4.79959229,9.67576311 C4.87648073,9.60163412 4.89944016,9.49056992 4.85796146,9.39359885 C4.8163712,9.29738201 4.71902231,9.23400603 4.61024949,9.23415687 L3.42599797,9.23467405 C3.27815619,9.23467405 3.15800406,9.35078074 3.15800406,9.49330666 L3.15800406,10.6366386 C3.15800406,10.7420354 3.22308925,10.8360327 3.32295943,10.8759417 C3.42376673,10.9158507 3.53865314,10.8937413 3.61522921,10.8197631 L3.99773022,10.4501956 C4.56051521,10.8075232 5.21000609,10.9864887 5.85974239,10.9864887 C6.72747059,10.9864887 7.59508722,10.6673677 8.25597972,10.0292981 C8.39915822,9.89106043 8.39915822,9.66712191 8.25597972,9.52892737 C8.11284584,9.39066817 7.88106491,9.39066817 7.7378641,9.52892737 Z" id="Shape"></path>
                                <path d="M3.82562342,7.08837287 C3.89191278,7.02749173 3.92857143,6.94668047 3.92857143,6.86113628 L3.92857143,3.46425336 C3.92857143,3.2870824 3.77043291,3.14285714 3.57624336,3.14285714 L0.352409086,3.14285714 C0.158016994,3.14285714 0,3.2870824 0,3.46425336 L0,7.53548781 C0,7.71293609 0.158037247,7.85714286 0.352409086,7.85714286 L2.83766277,7.85714286 C2.9317803,7.85714286 3.02022688,7.82362403 3.08671878,7.76270591 L3.82562342,7.08837287 Z" id="Shape"></path>
                                <path d="M10.6475816,3.14285714 L7.42344195,3.14285714 C7.2292584,3.14285714 7.07142857,3.2870824 7.07142857,3.46425336 L7.07142857,7.53548781 C7.07142857,7.71293609 7.2292584,7.85714286 7.42344195,7.85714286 L9.90872003,7.85714286 C10.0028549,7.85714286 10.0911975,7.82362403 10.1577886,7.76270591 L10.8969337,7.08835438 C10.963221,7.02747324 11,6.94666198 11,6.86111779 L11,3.46425336 C11,3.2870824 10.8417651,3.14285714 10.6475816,3.14285714 Z" id="Shape"></path>
                            </g>
                        </g>
                    </g>
                </g>
            </g>
        </g>
    </g>
</svg>