<?xml version="1.0" encoding="UTF-8"?>
<svg width="9px" height="10px" viewBox="0 0 9 10" version="1.1" xmlns="http://www.w3.org/2000/svg" xmlns:xlink="http://www.w3.org/1999/xlink">
    <!-- Generator: Sketch 48.1 (47250) - http://www.bohemiancoding.com/sketch -->
    <title>replace content icon</title>
    <desc>Created with Sketch.</desc>
    <defs></defs>
    <g id="Preview-header-+-Kitsune-credit-screen" stroke="none" stroke-width="1" fill="none" fill-rule="evenodd" transform="translate(-1355.000000, -80.000000)">
        <g id="Preview-header" transform="translate(0.000000, 62.000000)" fill="#73757A" fill-rule="nonzero">
            <g id="replace-content-icon" transform="translate(1355.000000, 18.000000)">
                <path d="M8.37142857,0 L2.65714286,0 C2.31788223,-1.99947078e-17 2.04285714,0.264711642 2.04285714,0.59125 L2.04285714,1.11375 L7.14285714,1.11375 C7.48211777,1.11375 7.75714286,1.37846164 7.75714286,1.705 L7.75714286,7.8925 L8.3,7.8925 C8.63926063,7.8925 8.91428571,7.62778836 8.91428571,7.30125 L8.91428571,0.59125 C8.9164096,0.289778493 8.68252903,0.0350487015 8.37142857,0 Z" id="Shape"></path>
                <path d="M6.34285714,1.9525 L0.628571429,1.9525 C0.463191825,1.94879718 0.303250541,2.00945091 0.184941167,2.12073566 C0.0666317939,2.23202042 -4.47392029e-05,2.38452908 4.50011653e-10,2.54375 L4.50011653e-10,9.25375 C4.50011695e-10,9.58028836 0.275025083,9.845 0.614285715,9.845 L6.32857143,9.845 C6.66783206,9.845 6.94285714,9.58028836 6.94285714,9.25375 L6.94285714,2.54375 C6.94294741,2.22250684 6.67652601,1.95997076 6.34285714,1.9525 Z M5.41428571,4.9775 C5.42092867,4.62894633 5.26365224,4.29615189 4.98631807,4.07192722 C4.7089839,3.84770254 4.34126594,3.75603902 3.98571429,3.8225 L3.98571429,7.41125 C3.98571429,7.93375 4.05714286,8.0025 4.68571429,8.04375 L4.68571429,8.25 L2.22857143,8.25 L2.22857143,8.03 C2.85714286,7.98875 2.85714286,7.92 2.85714286,7.41125 L2.85714286,3.8225 C1.98571429,3.8225 1.61428571,4.16625 1.42857143,4.9775 L1.34285714,4.9775 L1.34285714,3.6025 L5.62857143,3.6025 L5.62857143,4.9775 L5.41428571,4.9775 Z" id="Shape"></path>
            </g>
        </g>
    </g>
</svg>