<?xml version="1.0" encoding="UTF-8"?>
<svg width="8px" height="8px" viewBox="0 0 8 8" version="1.1" xmlns="http://www.w3.org/2000/svg" xmlns:xlink="http://www.w3.org/1999/xlink">
    <!-- Generator: Sketch 48.1 (47250) - http://www.bohemiancoding.com/sketch -->
    <title>ic_highlight_remove_48px</title>
    <desc>Created with Sketch.</desc>
    <defs></defs>
    <g id="Preview-header-+-Kitsune-credit-screen" stroke="none" stroke-width="1" fill="none" fill-rule="evenodd" transform="translate(-1170.000000, -81.000000)">
        <g id="Preview-header" transform="translate(0.000000, 62.000000)" fill="#73757A" fill-rule="nonzero">
            <g id="ic_highlight_remove_48px" transform="translate(1170.000000, 19.000000)">
                <path d="M4,0 C6.21,0 8,1.79 8,4 C8,6.21 6.21,8 4,8 C1.79,8 0,6.21 0,4 C0,1.79 1.79,0 4,0 Z M5.034,2.4 L4,3.434 L2.966,2.4 L2.4,2.966 L3.434,4 L2.4,5.034 L2.966,5.6 L4,4.566 L5.034,5.6 L5.6,5.034 L4.566,4 L5.6,2.966 L5.034,2.4 Z" id="Shape"></path>
            </g>
        </g>
    </g>
</svg>