<?xml version="1.0" encoding="UTF-8"?>
<svg width="6px" height="6px" viewBox="0 0 6 6" version="1.1" xmlns="http://www.w3.org/2000/svg" xmlns:xlink="http://www.w3.org/1999/xlink">
    <!-- Generator: Sketch 46 (44423) - http://www.bohemiancoding.com/sketch -->
    <title>Close</title>
    <desc>Created with Sketch.</desc>
    <defs></defs>
    <g id="IDE" stroke="none" stroke-width="1" fill="none" fill-rule="evenodd">
        <g id="Project-Language-editor-IDE---Zeroth" transform="translate(-444.000000, -144.000000)" fill="#ffffff">
            <g id="IDE" transform="translate(-8.000000, -140.000000)">
                <g id="Webactions" transform="translate(8.000000, 0.000000)">
                    <g id="Web-Actions-All">
                        <g id="Tabs" transform="translate(248.000000, 0.000000)">
                            <g id="Tab---active">
                                <path d="M200.930438,284.113305 L199,286.045443 L197.069562,284.113305 C196.919931,283.963504 196.688103,283.963504 196.538472,284.113305 L196.112223,284.540039 C195.962592,284.689841 195.962592,284.921933 196.112223,285.071734 L198.042562,287.004372 L196.119605,288.92912 C195.969974,289.078921 195.969974,289.311014 196.119605,289.460815 L196.545854,289.887649 C196.695484,290.03745 196.927412,290.03745 197.077043,289.887649 L199,287.948021 L200.930438,289.880658 C201.080069,290.03046 201.311897,290.03046 201.461528,289.880658 L201.887777,289.453824 C202.037408,289.304023 202.037408,289.071931 201.887777,288.922129 L199.949957,286.996982 L201.880395,285.064344 C202.030026,284.914543 202.030026,284.682451 201.880395,284.532649 L201.454146,284.105815 C201.311897,283.963504 201.072189,283.963504 200.930438,284.113305 Z" id="Close"></path>
                            </g>
                        </g>
                    </g>
                </g>
            </g>
        </g>
    </g>
</svg>
