<?xml version="1.0" encoding="UTF-8"?>
<svg width="39px" height="47px" viewBox="0 0 39 47" version="1.1" xmlns="http://www.w3.org/2000/svg" xmlns:xlink="http://www.w3.org/1999/xlink">
    <!-- Generator: Sketch 48.1 (47250) - http://www.bohemiancoding.com/sketch -->
    <title>file code</title>
    <desc>Created with Sketch.</desc>
    <defs></defs>
    <g id="File-Info-card-(File-upload-active-view)" stroke="none" stroke-width="1" fill="none" fill-rule="evenodd" transform="translate(-780.000000, -432.000000)">
        <g id="IDE" transform="translate(-8.000000, -165.000000)" fill="#FFFFFF" fill-rule="nonzero">
            <g id="Projects" transform="translate(8.000000, 203.000000)">
                <g id="Drop-Files" transform="translate(0.000000, 23.000000)">
                    <g id="hover-active-card" transform="translate(378.000000, 217.000000)">
                        <g id="file-code" transform="translate(402.000000, 154.000000)">
                            <polygon id="XMLID_807_" points="24.5555556 14.241997 37.7307667 14.241997 24.5555556 1.25148182"></polygon>
                            <path d="M2.16666667,0 C0.970088889,0 0,0.956521212 0,2.13636364 L0,44.8636364 C0,46.0434788 0.970088889,47 2.16666667,47 L36.8333333,47 C38.0299111,47 39,46.0434788 39,44.8636364 L39,18.5147242 L22.3888889,18.5147242 C21.1923111,18.5147242 20.2222222,17.558203 20.2222222,16.3783606 L20.2222222,0 L2.16666667,0 Z M22.2658222,26.3704182 C23.1118333,25.536097 24.4837667,25.536097 25.3299222,26.3702758 L29.6985,30.6774697 C30.5448,31.5116485 30.5448,32.8643939 29.6987889,33.6987152 L25.337,37.9997848 C24.9139222,38.4169455 24.3594,38.625597 23.8048778,38.625597 C23.2505,38.625597 22.6959778,38.4170879 22.2730444,37.9999273 C21.4268889,37.1657485 21.4267444,35.813003 22.2729,34.9786818 L25.1027111,32.1883061 L22.2662556,29.3916636 C21.4198111,28.5574848 21.4198111,27.2047394 22.2658222,26.3704182 Z M16.6740889,34.9255576 C17.5202444,35.7597364 17.5203889,37.1124818 16.6742333,37.946803 C16.2511556,38.3639636 15.6966333,38.5726152 15.1422556,38.5726152 C14.5875889,38.5726152 14.0332111,38.3641061 13.6102778,37.9469455 L9.30164444,33.6988576 C8.89488889,33.2980758 8.66666667,32.7547273 8.66666667,32.1881636 C8.66666667,31.6216 8.89488889,31.0781091 9.30121111,30.6774697 L13.6099889,26.4286697 C14.456,25.5943485 15.8279333,25.5943485 16.6740889,26.4285273 C17.5202444,27.2627061 17.5203889,28.6154515 16.6742333,29.4497727 L13.8974333,32.1878788 L16.6740889,34.9255576 Z" id="XMLID_808_"></path>
                        </g>
                    </g>
                </g>
            </g>
        </g>
    </g>
</svg>