<?xml version="1.0" encoding="UTF-8"?>
<svg width="6px" height="7px" viewBox="0 0 6 7" version="1.1" xmlns="http://www.w3.org/2000/svg" xmlns:xlink="http://www.w3.org/1999/xlink">
    <!-- Generator: Sketch 48.1 (47250) - http://www.bohemiancoding.com/sketch -->
    <title>Edit</title>
    <desc>Created with Sketch.</desc>
    <defs></defs>
    <g id="Preview-header-+-Kitsune-credit-screen" stroke="none" stroke-width="1" fill="none" fill-rule="evenodd" transform="translate(-1256.000000, -81.000000)">
        <g id="Preview-header" transform="translate(0.000000, 62.000000)" fill="#73757A" fill-rule="nonzero">
            <g id="Edit" transform="translate(1256.000000, 19.000000)">
                <path d="M0.183050847,6.87702703 C0.233898305,6.91486486 0.294915254,6.93378378 0.366101695,6.93378378 C0.406779661,6.93378378 0.457627119,6.92432432 0.498305085,6.90540541 L1.85084746,6.30945946 C1.89152542,6.29054054 1.93220339,6.26216216 1.96271186,6.22432432 L5.03389831,2.33648649 C5.03389831,2.33648649 5.03389831,2.33648649 5.03389831,2.33648649 C5.03389831,2.33648649 5.03389831,2.33648649 5.03389831,2.33648649 L5.81694915,1.34324324 C5.97966102,1.13513514 5.93898305,0.832432432 5.70508475,0.681081081 L4.88135593,0.122972973 C4.78983051,0.0662162162 4.68813559,0.0283783784 4.57627119,0.0283783784 C4.41355932,0.0283783784 4.26101695,0.104054054 4.16949153,0.217567568 L0.325423729,5.09864865 C0.294915254,5.13648649 0.274576271,5.18378378 0.26440678,5.23108108 L0.0508474576,6.61216216 C0.0508474576,6.71621622 0.0915254237,6.82027027 0.183050847,6.87702703 Z" id="Shape"></path>
                <rect id="Rectangle-path" transform="translate(4.674072, 1.200137) rotate(-53.642354) translate(-4.674072, -1.200137) " x="4.21646341" y="0.821773527" width="1" height="1"></rect>
                <polygon id="Shape" points="0.86440678 5.38243243 3.71186441 1.77837838 4.37288136 2.23243243 1.52542373 5.82702703 0.742372881 6.16756757"></polygon>
            </g>
        </g>
    </g>
</svg>