<svg xmlns="http://www.w3.org/2000/svg" viewBox="0 0 33 33">
	<title>Enlarge Icon</title>
	<g id="Layer_2" data-name="Layer 2">
		<g id="Слой_1" data-name="Слой 1">
			<path  fill="#FFFFFF"
				d="M31.48,21A1.46,1.46,0,0,0,30,22.51v4.83l-8.13-8.13a1.79,1.79,0,0,0-2.47,0,1.75,1.75,0,0,0,0,2.47L27.71,30H22.5a1.5,1.5,0,0,0,0,3h9A1.5,1.5,0,0,0,33,31.5v-9A1.49,1.49,0,0,0,31.48,21Z"/>
			<path  fill="#FFFFFF"
				d="M11.35,19.18,3,27.53v-5A1.48,1.48,0,0,0,1.5,21,1.48,1.48,0,0,0,0,22.5v9H0A1.5,1.5,0,0,0,1.5,33h9A1.49,1.49,0,0,0,12,31.48,1.46,1.46,0,0,0,10.48,30h-5l8.35-8.35a1.75,1.75,0,0,0,0-2.47A1.79,1.79,0,0,0,11.35,19.18Z"/>
			<path  fill="#FFFFFF"
				d="M20.68,14.16a1.74,1.74,0,0,0,1.24-.51L30,5.57v5a1.48,1.48,0,0,0,1.5,1.5h0a1.48,1.48,0,0,0,1.5-1.5l0-9A1.5,1.5,0,0,0,31.5,0h-9A1.49,1.49,0,0,0,21,1.52,1.45,1.45,0,0,0,22.51,3h5.1l-8.17,8.17a1.75,1.75,0,0,0,1.24,3Z"/>
			<path  fill="#FFFFFF"
				d="M5.74,3h4.78A1.48,1.48,0,0,0,12,1.5,1.49,1.49,0,0,0,10.52,0h-9A1.48,1.48,0,0,0,0,1.5l0,9A1.49,1.49,0,0,0,1.52,12,1.46,1.46,0,0,0,3,10.51V5.22l8.38,8.38a1.75,1.75,0,1,0,2.47-2.47Z"/>
		</g>
	</g>
</svg>
