<?xml version="1.0" encoding="UTF-8"?>
<svg width="40px" height="49px" viewBox="0 0 40 49" version="1.1" xmlns="http://www.w3.org/2000/svg" xmlns:xlink="http://www.w3.org/1999/xlink">
    <!-- Generator: Sketch 48.1 (47250) - http://www.bohemiancoding.com/sketch -->
    <title>jpeg file</title>
    <desc>Created with Sketch.</desc>
    <defs></defs>
    <g id="File-Info-card-(File-upload-active-view)" stroke="none" stroke-width="1" fill="none" fill-rule="evenodd" transform="translate(-831.000000, -453.000000)">
        <g id="IDE" transform="translate(-8.000000, -165.000000)" fill="#FFFFFF" fill-rule="nonzero">
            <g id="Projects" transform="translate(8.000000, 203.000000)">
                <g id="Drop-Files" transform="translate(0.000000, 23.000000)">
                    <g id="hover-active-card" transform="translate(378.000000, 217.000000)">
                        <g id="jpeg-file" transform="translate(475.500000, 199.500000) rotate(20.000000) translate(-475.500000, -199.500000) translate(459.000000, 179.000000)">
                            <polygon id="XMLID_818_" points="20.7777778 12.4238697 31.9260333 12.4238697 20.7777778 1.09171818"></polygon>
                            <path d="M1.83333333,0 C0.820844444,0 0,0.834412121 0,1.86363636 L0,39.1363636 C0,40.1655879 0.820844444,41 1.83333333,41 L31.1666667,41 C32.1791556,41 33,40.1655879 33,39.1363636 L33,16.1511424 L18.9444444,16.1511424 C17.9319556,16.1511424 17.1111111,15.3167303 17.1111111,14.2875061 L17.1111111,0 L1.83333333,0 Z M23.0260556,28.2399303 L24.0314556,29.507203 C24.2943556,29.8385576 24.4377222,30.2514152 24.4377222,30.6771939 L24.4377222,31.6818182 C24.4377222,32.7110424 23.6168778,33.5454545 22.6043889,33.5454545 L9.16666667,33.5454545 C8.15417778,33.5454545 7.33333333,32.7110424 7.33333333,31.6818182 L7.33333333,30.6770697 C7.33333333,30.2061909 7.50872222,29.7527061 7.8243,29.4078091 L11.0794444,25.8502515 C11.7198889,25.1502697 12.7772333,25.0564667 13.5274333,25.6328273 L18.2745444,29.2808333 L20.6479778,27.8166364 C21.4332556,27.3323394 22.4499,27.5134848 23.0260556,28.2399303 Z M17.7258889,19.9322121 C18.2085444,19.9322121 18.6803222,20.1322424 19.0225444,20.4788788 C19.3635444,20.8255152 19.5592222,21.3063333 19.5592222,21.7958485 C19.5592222,22.2866061 19.3635444,22.7674242 19.0225444,23.1140606 C18.6803222,23.460697 18.2085444,23.6594848 17.7258889,23.6594848 C17.2431111,23.6594848 16.7701111,23.460697 16.4291111,23.1140606 C16.0881111,22.7674242 15.8925556,22.2866061 15.8925556,21.7958485 C15.8925556,21.3063333 16.0881111,20.8255152 16.4291111,20.4788788 C16.7701111,20.1322424 17.2431111,19.9322121 17.7258889,19.9322121 Z" id="XMLID_819_"></path>
                        </g>
                    </g>
                </g>
            </g>
        </g>
    </g>
</svg>