<?xml version="1.0" encoding="utf-8"?>
<!-- Generator: Adobe Illustrator 22.0.0, SVG Export Plug-In . SVG Version: 6.00 Build 0)  -->
<svg version="1.1" id="Layer_1" xmlns="http://www.w3.org/2000/svg" xmlns:xlink="http://www.w3.org/1999/xlink" x="0px" y="0px"
	 viewBox="0 0 48 48" style="enable-background:new 0 0 48 48;" xml:space="preserve">
<style type="text/css">
	.st0{fill:#F06428;}
	.st1{fill:#FFFFFF;}
</style>
<title>Kit-error</title>
<g id="Layer_2_1_">
	<g id="Capa_1">
		<path class="st0" d="M40.2,7.7c-9-9-23.5-9-32.5,0s-9,23.5,0,32.5c9,9,23.5,9,32.5,0C49.2,31.3,49.2,16.7,40.2,7.7
			C40.3,7.7,40.3,7.7,40.2,7.7z"/>
		<path class="st1" d="M32.2,21.5c-0.1-0.2-0.3-0.2-0.5-0.2l-5.3,1.2L28,11.1c0-0.2-0.1-0.5-0.4-0.5c-0.2,0-0.3,0-0.4,0.2L15.8,26.4
			c-0.1,0.2-0.1,0.5,0.1,0.6c0.1,0.1,0.2,0.1,0.3,0.1L22,26l-1.7,10.8c0,0.2,0.1,0.4,0.3,0.5c0.1,0,0.1,0,0.2,0
			c0.1,0,0.3-0.1,0.4-0.2L32.2,22C32.3,21.9,32.3,21.7,32.2,21.5z"/>
	</g>
</g>
</svg>
