<svg xmlns="http://www.w3.org/2000/svg" viewBox="0 0 279.01 162.88"><defs><style>.cls-1{fill:#fff;stroke:#c9c9c9;stroke-miterlimit:10;stroke-width:0.5px;}.cls-2{fill:#f06428;}.cls-3{fill:#f05a26;}</style></defs><title>Asset 7</title><g id="Layer_2" data-name="Layer 2"><g id="Layer_1-2" data-name="Layer 1"><path class="cls-1" d="M35.88,100.57V104a2.63,2.63,0,1,1-5.25,0v-3.39c0-9.1-6.15-13.14-12.56-13.14S5.5,91.48,5.5,100.57V104a2.6,2.6,0,0,1-2.62,2.63A2.6,2.6,0,0,1,.25,104V57.45a2.6,2.6,0,0,1,2.63-2.63A2.6,2.6,0,0,1,5.5,57.45V83.78a1.59,1.59,0,0,0,1.6,1.61,2,2,0,0,0,.83-.32,22.58,22.58,0,0,1,5.38-2.31,2.65,2.65,0,0,0,1.54-1L21.59,72a2.54,2.54,0,0,1,2.18-1.09A2.57,2.57,0,0,1,25.88,75l-3.65,5.38a1.9,1.9,0,0,0-.32,1,1.36,1.36,0,0,0,1.15,1.47c6.92,1.93,12.82,7.62,12.82,17.75"/><path class="cls-1" d="M47.5,61a2.53,2.53,0,1,1-2.63,2.56A2.46,2.46,0,0,1,47.5,61M44.87,74.81a2.63,2.63,0,0,1,5.25,0V92a13.56,13.56,0,0,0,6.15,11,2.65,2.65,0,0,1-1.34,4.87c-2.37,0-5.57-3.72-7.05-6a18.1,18.1,0,0,1-3-9.55Z"/><path class="cls-1" d="M73.68,89.42c0,9.1,6.15,13.2,12.56,13.2a2.63,2.63,0,1,1,0,5.26c-8.71,0-17.81-6-17.81-18.46V79a2.23,2.23,0,0,0-2.24-2.24H64a2.27,2.27,0,0,1-2.24-2.24A2.23,2.23,0,0,1,64,72.25h2.18A2.27,2.27,0,0,0,68.43,70V57.45a2.63,2.63,0,0,1,5.25,0V70a2.27,2.27,0,0,0,2.24,2.24h7.88A2.23,2.23,0,0,1,86,74.49a2.27,2.27,0,0,1-2.24,2.24H75.92A2.23,2.23,0,0,0,73.68,79Z"/><path class="cls-1" d="M194,89.42c0,12.49-9,18.46-17.81,18.46s-17.82-6-17.82-18.46V74.81a2.63,2.63,0,0,1,5.25,0V89.42c0,9.1,6.28,13.2,12.56,13.2s12.62-4.1,12.62-13.2V74.81a2.55,2.55,0,0,1,2.56-2.63A2.6,2.6,0,0,1,194,74.81Z"/><path class="cls-1" d="M237.41,104a2.6,2.6,0,0,1-2.63,2.63,2.55,2.55,0,0,1-2.56-2.63V89.42c0-9.1-6.28-13.2-12.62-13.2S207,80.32,207,89.42V104a2.63,2.63,0,1,1-5.26,0V89.42c0-12.5,9.1-18.45,17.82-18.45s17.81,6,17.81,18.45Z"/><path class="cls-1" d="M248.84,77.57A17.73,17.73,0,0,1,263.13,71c9,0,15.64,5.64,15.64,12.62s-6.35,12.62-16.27,12.62a16.14,16.14,0,0,1-12-4.94c.83,7.76,6.6,11.28,12.5,11.28a13.54,13.54,0,0,0,5.51-1.15,2.47,2.47,0,0,1,1.15-.26,2.6,2.6,0,0,1,2.63,2.63,2.67,2.67,0,0,1-1.61,2.44,18.19,18.19,0,0,1-7.69,1.61c-8.72,0-17.82-6-17.82-18.46a19,19,0,0,1,3.71-11.86M252,83.65c0,3.59,5.12,7.37,11.09,7.37,7,0,10.44-4,10.44-7.37,0-2.75-2.95-7.37-10.44-7.37-5.32,0-11.09,3.27-11.09,7.37"/><path class="cls-2" d="M115.8,58.63c-9.43-9.67-9.53-19.74-8-26.71,2.4-10.57,14.94-16.46,21.74-21.54A67.43,67.43,0,0,0,140.12,0s-3.28,20.64-13.46,24.27c0,0-25.95,5-10.86,34.36"/><path class="cls-2" d="M134.28,22.51c-.67.43-3.45,2.11-3.45,2.11A17.81,17.81,0,0,1,138.71,26c12.1-5.6,11.1-19,11.1-19s-2.62,7.11-15.53,15.51"/><path class="cls-2" d="M160.7,60.31a6.73,6.73,0,0,1-.73.37,16.39,16.39,0,0,1-2.19.81c-.48.14-1,.29-1.63.41s-1.26.22-2,.3a22.68,22.68,0,0,1-2.28.14,23.58,23.58,0,0,1-2.54-.14,30.68,30.68,0,0,1-5-1.19c-.55-.19-1.1-.4-1.64-.62a25,25,0,0,1-3.14-1.6q-.69-.42-1.38-.88c-.45-.31-.9-.63-1.33-1l-.62-.46-.29-.19-.31-.2A12.15,12.15,0,0,0,133,54.84a9.24,9.24,0,0,0-2.81-.51,7.78,7.78,0,0,0-2.69.41c-.83.28-2.94,1.16-3.2,3.4-.29,2.51,1.42,4.36,3.07,5.89a21.68,21.68,0,0,0,2.48,1.92c.57.38,6.62,4.36,7.87,5.46A31.75,31.75,0,0,1,143,77.22a33.27,33.27,0,0,0-10.66-8.36c-.69-.35-1.33-.78-2-1.18s-1.32-.81-1.95-1.24c-3.16-2.12-6.59-4.5-6.58-8.33A7.29,7.29,0,0,1,123,54.28a8,8,0,0,1,3.36-2.43,9.76,9.76,0,0,1,4-.56,12.28,12.28,0,0,1,3.78.83,15,15,0,0,1,3.2,1.74l.36.26.36.28c.23.18.4.33.63.52.38.33.77.64,1.16,1a27,27,0,0,0,2.4,1.68,24.83,24.83,0,0,0,2.48,1.36,23,23,0,0,0,4.94,1.71A22.63,22.63,0,0,0,152,61c.75.08,1.47.14,2.15.15s1.32,0,1.9,0,1.13-.09,1.62-.16a21.26,21.26,0,0,0,2.25-.44c.52-.14.79-.22.79-.22"/><path class="cls-3" d="M155.51,54.57s.06,1,.13,1.47c1.22,6.81,8.3,1.81,8.3,1.81a30.5,30.5,0,0,1-8.44-3.28"/><path class="cls-2" d="M102.32,33.89S77.4,59.45,112,76.92c0,0-27.26-15.57-9.73-43"/><path class="cls-2" d="M148.69,40.68C145.12,26.17,131.64,24,122.13,28.93c-7.93,4.13-12.47,13.27-3,29.7,0,0-4.34-10.63-.57-15A14.6,14.6,0,0,0,121,54.15s-3.08-7.76,4.79-9.89c6.56-1.78,13.69,4,21.49,9.53,2.82,2,5.77,2.32,9.76,1.89C157,55.67,151.59,52.44,148.69,40.68Zm-8.58-2.8L146,42.63C143.05,45.93,140.11,37.88,140.11,37.88Z"/><path class="cls-2" d="M107.26,26A136.72,136.72,0,0,0,97,39c-1,1.49-1.88,3-2.71,4.58a35.44,35.44,0,0,0-1.95,4.8,25.58,25.58,0,0,0-.45,15.1,27.91,27.91,0,0,0,1.88,4.89,32,32,0,0,0,2.78,4.58,38.39,38.39,0,0,0,3.55,4.22C105.84,83,113.24,87,121.21,89.65A46.31,46.31,0,0,1,97.71,79a37.53,37.53,0,0,1-4-4.2,32.25,32.25,0,0,1-3.17-4.68,27.6,27.6,0,0,1-2.18-5.07,26.47,26.47,0,0,1,.07-16.23,31.7,31.7,0,0,1,2.1-5.12,37.44,37.44,0,0,1,2-3.25c.72-1.06,2.44-3.14,3.27-4.13,3.53-4.19,6.64-6.46,10.7-9.8.5-.39.78-.57.78-.57"/><path class="cls-2" d="M126.33,68.78s20.21,7.61,25.28,24.72c5.93,20.07-14.73,39.31-67.11,38.64,0,0,44.81-4.19,51.64-27.54s-9.8-35.83-9.8-35.83"/><path class="cls-2" d="M115.16,132.6c-11.93.62-36.71,6.05-43.06-2.33C63.42,118.79,91,109.43,91,109.43S70.87,113.6,65.84,123c-4.93,9.2-1.79,28.13,38.92,29,3.88.09,24.15-.25,32,1.78,6.15,1.6,11.7,4.37,13.17,9.07C149.88,162.88,157.28,130.44,115.16,132.6Zm-2.83,16,5-3.57-5.4-3.35,5.6-2.45-5.6-3.57c14.26-1,23.9,1.84,28.92,7.94a24.78,24.78,0,0,1,5.13,9.74C136.06,145.59,112.33,148.64,112.33,148.64Z"/></g></g></svg>