<?xml version="1.0" encoding="UTF-8"?>
<svg width="74px" height="74px" viewBox="0 0 74 74" version="1.1" xmlns="http://www.w3.org/2000/svg" xmlns:xlink="http://www.w3.org/1999/xlink">
  <!-- Generator: Sketch 41.1 (35376) - http://www.bohemiancoding.com/sketch -->
  <title>Kitsune Branding</title>
  <desc>Created with Sketch.</desc>
  <defs></defs>
  <g id="Project-Kitsune-" stroke="none" stroke-width="1" fill="none" fill-rule="evenodd">
    <g id="Web-Action-pop-up" transform="translate(-19.000000, -62.000000)">
      <g id="Header" transform="translate(18.000000, 62.000000)">
        <g id="Kitsune-Branding">
          <g id="Asset-3" transform="translate(0.165138, 0.000000)">
            <g id="Layer_2">
              <g id="Layer_1-2">
                <path d="M37.7782152,73.3626205 C58.1216013,73.3626205 74.6118766,56.9391901 74.6118766,36.6813102 C74.6118766,16.4234304 58.1202335,0 37.7782152,0 C17.4361968,0 0.944553795,16.4234304 0.944553795,36.6813102 C0.944553795,56.9391901 17.434829,73.3626205 37.7782152,73.3626205" id="Shape" fill="#FFFFFF"></path>
                <g id="Group" transform="translate(8.613845, 2.724298)">
                  <path d="M20.8426355,42.392801 C14.003603,35.4090631 13.9242702,28.1324632 15.0732277,23.0925119 C16.8158132,15.4535803 25.9144621,11.2009512 30.8440367,7.52859748 C34.9187323,4.49509168 38.4887073,0.0367780228 38.4887073,0.0367780228 C38.4887073,0.0367780228 36.1100917,14.9468609 28.7239366,17.571722 C28.7239366,17.571722 9.90155129,21.2181949 20.8440033,42.3982496" id="Shape" fill="#F06428"></path>
                  <path d="M34.2512427,16.2926641 C33.7670392,16.6073205 31.7454212,17.8196331 31.7454212,17.8196331 C33.5864887,17.7065748 35.8570475,18.0484742 37.4628524,18.7840346 C46.2318599,14.7357278 45.5164971,5.08626434 45.5164971,5.08626434 C45.5164971,5.08626434 43.6207173,10.2256525 34.2512427,16.2926641" id="Shape" fill="#F06428"></path>
                  <path d="M53.4142118,43.6078379 C53.2423858,43.708987 53.0647184,43.7999549 52.8821351,43.8802677 C52.3662088,44.108341 51.8351622,44.300857 51.292744,44.4564567 C50.9398499,44.5586179 50.5472894,44.6648655 50.1068557,44.7547673 C49.666422,44.8446691 49.1945288,44.9182252 48.6802335,44.9727112 C48.1301478,45.0336454 47.5772804,45.0663802 47.0238198,45.0707859 C46.4078794,45.0717309 45.7923516,45.03899 45.1800167,44.9727112 C43.9695079,44.8569285 42.7289074,44.4455595 41.5238699,44.1145573 C41.1231026,43.9783424 40.7278065,43.8257817 40.335246,43.6650481 C39.5501679,43.3339429 38.7895929,42.9479454 38.059216,42.5099458 C37.7227356,42.3065315 37.3899027,42.0958525 37.0607173,41.8779086 C36.7324437,41.6517919 36.412377,41.4202266 36.0923103,41.1777641 L35.6423019,40.8467619 L35.4343953,40.710547 L35.2128107,40.5675213 C34.619087,40.1888116 33.9816401,39.8828403 33.3142952,39.6562436 C32.6586277,39.4291758 31.9715898,39.3046511 31.2776314,39.2871013 C30.6140458,39.2719916 29.9529451,39.3729595 29.3244037,39.5854119 C28.721201,39.7910964 27.1919933,40.42722 26.9991326,42.0372801 C26.7871226,43.8530247 28.0290909,45.1879307 29.2245538,46.2885471 C29.7908834,46.7943107 30.3938979,47.2577904 31.0286906,47.6752148 C31.4390325,47.9476446 35.8296914,50.8299518 36.7365471,51.6172739 C38.17364,52.8586093 39.4508579,54.2723788 40.5390492,55.8263143 C40.5390492,55.8263143 37.9525271,52.4209418 32.806839,49.7865457 C32.3089575,49.533186 31.8397998,49.2267025 31.3638032,48.9352026 C30.8878065,48.6437027 30.4063386,48.3508407 29.950859,48.0443571 C27.6543119,46.5105774 25.1635363,44.7901832 25.1772143,42.0209343 C25.1772143,41.5441821 25.3714429,40.079872 26.0430359,39.2557718 C26.6845121,38.4661773 27.524567,37.8598916 28.4777314,37.4985996 C29.4113703,37.160902 30.4056851,37.0216983 31.3966305,37.0899549 C32.3375974,37.1441248 33.2640712,37.3459383 34.1418182,37.6879383 C34.9656702,38.0117895 35.7465777,38.4349376 36.4670892,38.9479262 C36.5546289,39.010585 36.6394329,39.0705196 36.7269725,39.138627 L36.9868557,39.3415872 C37.1523603,39.4778021 37.2768307,39.5799633 37.4437031,39.7216268 C37.7172644,39.9572786 37.9990325,40.1861196 38.2849041,40.4027013 C38.8415328,40.8400666 39.421904,41.2466015 40.0233862,41.6204625 C40.6041466,41.9808687 41.2046337,42.3087474 41.8220517,42.6025719 C42.4081698,42.8862249 43.0116568,43.1328086 43.6289241,43.3408567 C44.7513506,43.7275453 45.9133113,43.9893099 47.093578,44.121368 C47.6407006,44.1840269 48.1577314,44.2194428 48.648774,44.2317021 C49.1398165,44.2439614 49.6062385,44.2317021 50.0302585,44.1990105 C50.4542786,44.1663189 50.8509425,44.1309031 51.2106756,44.0859522 C51.7604618,44.0104689 52.3056699,43.9049704 52.8438365,43.7699336 C53.2213511,43.6718589 53.4196831,43.6064757 53.4196831,43.6064757" id="Shape" fill="#F06428"></path>
                  <path d="M49.6513761,39.4628185 C49.6513761,39.4628185 49.6910425,40.2038275 49.7498582,40.528019 C50.6320934,45.446739 55.7682068,41.8343199 55.7682068,41.8343199 C53.6223466,41.3506211 51.5607889,40.5513531 49.6513761,39.4628185" id="Shape" fill="#F06428"></path>
                  <path d="M11.062819,24.5186819 C11.062819,24.5186819 -7.01684737,42.9853358 18.117965,55.6029219 C18.117965,55.6029219 -1.6618849,44.3529334 11.062819,24.5132333" id="Shape" fill="#F06428"></path>
                  <path d="M44.7026522,29.4224182 C42.1120267,18.9406817 32.3322102,17.3646754 25.4329942,20.9348679 C19.6813678,23.9179742 16.3876897,30.5216725 23.2445038,42.3941631 C23.2445038,42.3941631 20.0985488,34.7130049 22.8341618,31.5364735 C22.8341618,31.5364735 22.0134779,35.6746821 24.5945288,39.1645078 C24.5945288,39.1645078 22.3581651,33.5579026 28.0714929,32.0159499 C32.8287239,30.727357 38.0017681,34.9255002 43.6644871,38.8988888 C45.7093578,40.3400424 47.8472394,40.5770564 50.7469892,40.2610378 C50.7456214,40.2555892 46.8049708,37.9235901 44.7026522,29.4224182 Z" id="Shape" fill="#F06428"></path>
                  <path d="M38.4750292,27.3982648 C38.4750292,27.3982648 40.6142786,33.2119167 42.7631026,30.8336046 L38.4750292,27.3982648 Z" id="Shape" fill="#FFFFFF"></path>
                  <path d="M14.6478399,18.7840346 C11.9731909,21.7636467 9.48284038,24.9023746 7.1905588,28.1828627 C6.48203503,29.2603225 5.82275229,30.3623011 5.22365304,31.4928847 C4.66945865,32.6141132 4.19813829,33.7741103 3.81344454,34.9636404 C2.6918432,38.4820712 2.40733945,42.1530627 3.48653878,45.8717295 C3.83027586,47.0896191 4.28822631,48.2726291 4.85434529,49.405144 C5.43194138,50.56258 6.10589119,51.6697926 6.86912427,52.715166 C7.65392013,53.791296 8.51510596,54.8100657 9.44607173,55.7636555 C13.6165138,60.0326304 18.9851543,62.899954 24.7655046,64.8056005 C18.3655379,63.8520962 12.3772811,61.1754734 7.7157965,57.1271666 C6.66873773,56.1918663 5.69647448,55.1767153 4.80783987,54.0909365 C3.94396127,53.0326676 3.17503812,51.9009181 2.50992494,50.7087206 C1.86091356,49.5422213 1.33119351,48.3137541 0.928740617,47.0418155 C-0.354261885,43.0997563 -0.19559633,39.101849 0.983452877,35.3205234 C1.38341146,34.0450739 1.89416566,32.8067412 2.50992494,31.6195646 C2.95035863,30.8104481 3.43045872,30.0299367 3.94885738,29.2684954 C4.46725605,28.5070541 5.71743119,26.997793 6.32063386,26.2826648 C8.88527106,23.2573319 11.1380484,21.6173045 14.0843036,19.1994901 C14.4481401,18.9270603 14.6478399,18.7908454 14.6478399,18.7908454" id="Shape" fill="#F06428"></path>
                </g>
                <g id="Group" transform="translate(36.330275, 52.442736)" fill="#F06428">
                  <path d="M18.7304991,16.7451802 C18.8639084,17.113627 14.029149,19.0636114 8.96077299,20.2140434 C10.0987072,7.06303973 0.757197665,0.0108971919 0.757197665,0.0108971919 C0.764036697,-1.89084859e-16 14.5388669,5.16882423 18.7304991,16.7451802 Z" id="Shape"></path>
                </g>
              </g>
            </g>
          </g>
        </g>
      </g>
    </g>
  </g>
</svg>
