<?xml version="1.0" encoding="utf-8"?>
<!-- Generator: Adobe Illustrator 22.0.0, SVG Export Plug-In . SVG Version: 6.00 Build 0)  -->
<svg version="1.1" id="Layer_1" xmlns="http://www.w3.org/2000/svg" xmlns:xlink="http://www.w3.org/1999/xlink" x="0px" y="0px"
	 viewBox="0 0 48 48" style="enable-background:new 0 0 48 48;" xml:space="preserve">
<style type="text/css">
	.st0{fill:#33B6FF;}
	.st1{fill:#FFFFFF;}
</style>
<title>Message</title>
<g id="Layer_2_1_">
	<g id="Capa_1">
		<path class="st0" d="M40.2,7.7c-9-9-23.5-9-32.5,0s-9,23.5,0,32.5c9,9,23.5,9,32.5,0C49.2,31.3,49.2,16.7,40.2,7.7
			C40.3,7.7,40.3,7.7,40.2,7.7z"/>
		<path class="st1" d="M27,34c0,1.7-1.3,3-3,3s-3-1.3-3-3V22c0-1.7,1.3-3,3-3s3,1.3,3,3V34z"/>
		<path class="st1" d="M23.9,16.9c-1.5,0.1-2.7-1-2.8-2.5c0-0.1,0-0.1,0-0.2c-0.1-1.5,1.1-2.7,2.6-2.8c0.1,0,0.2,0,0.3,0
			c1.5-0.1,2.8,1.1,2.9,2.6c0.1,1.5-1.1,2.8-2.6,2.9C24.2,16.9,24.1,16.9,23.9,16.9L23.9,16.9z"/>
	</g>
</g>
</svg>
