<?xml version="1.0" encoding="UTF-8"?>
<svg width="17px" height="9px" viewBox="0 0 17 9" version="1.1" xmlns="http://www.w3.org/2000/svg" xmlns:xlink="http://www.w3.org/1999/xlink">
    <!-- Generator: Sketch 46 (44423) - http://www.bohemiancoding.com/sketch -->
    <title>Hide console</title>
    <desc>Created with Sketch.</desc>
    <defs></defs>
    <g id="IDE" stroke="none" stroke-width="1" fill="none" fill-rule="evenodd">
        <g id="IDE-Schema-Creator---Schema-code-(+action-bar)" transform="translate(-1566.000000, -1094.000000)" fill="#ffffff" fill-opacity="0.8">
            <g id="IDE" transform="translate(-8.000000, -140.000000)">
                <g id="Footer" transform="translate(8.000000, 1220.000000)">
                    <g id="Events-Log">
                        <g id="Label">
                            <g id="Hide-console" transform="translate(1574.500000, 18.500000) rotate(-180.000000) translate(-1574.500000, -18.500000) translate(1566.000000, 14.000000)">
                                <path d="M0,8 C0,8.55228475 0.443079549,9 0.998923677,9 L15.5662937,9 C16.117984,9 16.5652174,8.55613518 16.5652174,8 L16.5652174,8 C16.5652174,7.44771525 16.1221378,7 15.5662937,7 L0.998923677,7 C0.447233364,7 0,7.44386482 0,8 L0,8 Z" id="Fill-1"></path>
                                <path d="M9.04896835,0.308470346 C8.68345628,-0.106099111 8.08505649,-0.0995346897 7.72533205,0.308470346 L5.19908728,3.17377632 C4.83357521,3.58834578 4.98452205,3.92442073 5.54387856,3.92442073 L11.2304218,3.92442073 C11.7863569,3.92442073 11.9349376,3.58178136 11.5752131,3.17377632 L9.04896835,0.308470346 Z" id="Fill-3"></path>
                            </g>
                        </g>
                    </g>
                </g>
            </g>
        </g>
    </g>
</svg>
