<?xml version="1.0" encoding="UTF-8"?>
<svg width="17px" height="14px" viewBox="0 0 17 14" version="1.1" xmlns="http://www.w3.org/2000/svg" xmlns:xlink="http://www.w3.org/1999/xlink">
    <!-- Generator: Sketch 46 (44423) - http://www.bohemiancoding.com/sketch -->
    <title>Combined Shape</title>
    <desc>Created with Sketch.</desc>
    <defs></defs>
    <g id="IDE" stroke="none" stroke-width="1" fill="none" fill-rule="evenodd">
        <g id="Project-webform-builder-IDE---All" transform="translate(-16.000000, -131.000000)" fill="#FFFFFF" fill-opacity="0.60">
            <g id="IDE" transform="translate(-8.000000, -165.000000)">
                <g id="Language--/-Schema" transform="translate(8.000000, 203.000000)">
                    <g id="All-Languages" transform="translate(0.000000, 1.000000)">
                        <g id="Left-bar">
                            <g id="Projects" transform="translate(9.000000, 83.000000)">
                                <path d="M13.875,9.75 L15.5,11.3125 L22,11.3125 C22.89375,11.3125 23.625,12.015625 23.625,12.875 L23.625,20.6875 C23.625,21.546875 22.89375,22.25 22,22.25 L9,22.25 C8.10625,22.25 7.375,21.546875 7.375,20.6875 L7.375,11.3125 C7.375,10.453125 8.10625,9.75 9,9.75 L13.875,9.75 Z M18.0677293,16.05 C17.9080141,16.05 17.4780116,16.0743243 17.4780116,16.0743243 C17.4780116,16.0743243 17.9080141,15.9283784 18.0431578,15.8797297 C17.8834425,14.9554054 17.0725806,14.25 16.1020035,14.25 C15.1682838,14.25 14.3819934,14.9067568 14.1854209,15.7702703 C14.1608493,15.9162162 14.1485635,16.0135135 14.1485635,16.0135135 C14.1485635,16.0135135 14.062563,15.7702703 13.9888483,15.7702703 C13.31313,15.7702703 12.7848412,16.2324324 12.6619834,16.8040541 C12.6374118,16.9743243 12.5882686,17.1932432 12.5882686,17.1932432 C12.5882686,17.1932432 12.4899824,16.8040541 12.4654108,16.8040541 C11.9616935,16.8405405 11.5685484,17.2662162 11.5685484,17.777027 C11.5685484,18.3121622 12.0108367,18.75 12.5514113,18.75 L18.0677293,18.75 C18.8171623,18.75 19.4314516,18.1418919 19.4314516,17.4 C19.4314516,16.6581081 18.8294481,16.05 18.0677293,16.05 Z" id="Combined-Shape"></path>
                            </g>
                        </g>
                    </g>
                </g>
            </g>
        </g>
    </g>
</svg>
