<?xml version="1.0" encoding="UTF-8"?>
<svg width="12px" height="6px" viewBox="0 0 12 6" version="1.1" xmlns="http://www.w3.org/2000/svg" xmlns:xlink="http://www.w3.org/1999/xlink">
    <!-- Generator: Sketch 46 (44423) - http://www.bohemiancoding.com/sketch -->
    <title>001-link</title>
    <desc>Created with Sketch.</desc>
    <defs></defs>
    <g id="IDE" stroke="none" stroke-width="1" fill="none" fill-rule="evenodd">
        <g id="Schema-tree-(+action-bar)" transform="translate(-451.000000, -300.000000)" fill-rule="nonzero" fill="#FFFFFF">
            <g id="IDE" transform="translate(-8.000000, -140.000000)">
                <g id="Schema" transform="translate(8.000000, 0.000000)">
                    <g id="Schema-tree-(+action-bar)" transform="translate(301.000000, 301.000000)">
                        <g id="Schema-tree" transform="translate(58.000000, 76.000000)">
                            <g id="Brown-Name" transform="translate(84.208177, 58.235593)">
                                <g id="001-link" transform="translate(14.063198, 7.594430) rotate(45.000000) translate(-14.063198, -7.594430) translate(9.063198, 3.094430)">
                                    <path d="M6.13159018,4.34713484 C6.02248707,4.25803843 5.90151319,4.17906063 5.77091681,4.11164697 C5.42500995,3.93183342 5.02287884,3.83628328 4.61213244,3.83628328 C4.04203002,3.83542181 3.49509358,4.0193091 3.0926747,4.34713484 L1.14040172,5.93324665 C0.738666305,6.2600065 0.512869993,6.70272894 0.512510273,7.16438912 C0.51175486,8.12777511 1.47314282,8.90924498 2.65985946,8.90985823 C3.22908056,8.91146436 3.77551339,8.72845314 4.17778839,8.40150347 L5.78933448,7.09323756 C5.81861569,7.06967125 5.83496497,7.03751945 5.83473116,7.00405354 C5.83424553,6.93523817 5.76512531,6.87978288 5.68035727,6.88017711 L5.61897103,6.88017711 C5.28227301,6.88114079 4.94857865,6.82864954 4.63670132,6.725682 C4.57923603,6.70648145 4.51319142,6.71731553 4.46941348,6.75308842 L3.31062911,7.69503988 C2.95080109,7.98715113 2.36740701,7.98715113 2.00757899,7.69503988 C1.64775096,7.40292863 1.64775096,6.92932469 2.00757899,6.63721344 L3.96753199,5.04736373 C4.32707224,4.75585113 4.90951305,4.75585113 5.2690533,5.04736373 C5.51136076,5.23249212 5.88931868,5.23249212 6.13160816,5.04736373 C6.23585505,4.96266227 6.29905787,4.85032078 6.30965163,4.73088311 C6.32085691,4.58815655 6.25601736,4.44837944 6.13159018,4.34713484 Z" id="Shape"></path>
                                    <path d="M8.58104587,0.72321694 C7.74231134,0.0419790485 6.38245297,0.0419790485 5.54371845,0.72321694 L3.93454252,2.02896792 C3.89035602,2.06503234 3.87761061,2.11927498 3.90232844,2.16602731 C3.92675865,2.21291106 3.98385235,2.24300368 4.0465188,2.24202541 L4.10327095,2.24202541 C4.43939754,2.24152898 4.77237822,2.29442832 5.08349934,2.39777406 C5.1409346,2.41697434 5.2069447,2.40614042 5.25069976,2.37036802 L6.40580458,1.43340857 C6.76544457,1.14130138 7.34853378,1.14130138 7.70817376,1.43340857 C8.06781375,1.72551577 8.06781375,2.19911313 7.70817376,2.49122032 L6.26927226,3.65867083 L6.25699423,3.66988438 L5.753847,4.07606902 C5.39449464,4.36757757 4.81235819,4.36757757 4.45300583,4.07606902 C4.21082499,3.89094321 3.83306458,3.89094321 3.59090171,4.07606902 C3.48604417,4.16141175 3.42282044,4.27472995 3.41295129,4.39502742 C3.40173388,4.53775199 3.46653955,4.67752716 3.59090171,4.77878496 C3.76845665,4.92361207 3.97619432,5.04171939 4.20449722,5.12764615 C4.2367113,5.14010079 4.26892538,5.15007326 4.30113946,5.16128681 C4.33335353,5.17250036 4.36709562,5.18121715 4.3993097,5.19118962 C4.43152378,5.20116208 4.46526587,5.20987887 4.49747995,5.21735457 L4.58799216,5.23728491 C4.64934632,5.24973954 4.71071846,5.25971201 4.77360063,5.2684288 C4.84935405,5.27756901 4.92564676,5.2833948 5.00217318,5.28587697 L5.10954745,5.28587697 L5.11875147,5.28587697 L5.21079169,5.27716018 C5.24453378,5.2759191 5.27982186,5.26968448 5.31971195,5.26968448 L5.37186209,5.26968448 L5.47770835,5.25722985 L5.52680246,5.24975414 L5.61576868,5.23480274 L5.63264872,5.23480274 C6.00945636,5.15792859 6.35352861,4.99946416 6.62821116,4.77628819 L8.58099194,3.19019841 C9.41978039,2.50896051 9.41978039,1.40445483 8.58104587,0.72321694 Z" id="Shape"></path>
                                </g>
                            </g>
                        </g>
                    </g>
                </g>
            </g>
        </g>
    </g>
</svg>