<?xml version="1.0" encoding="UTF-8"?>
<svg width="31px" height="32px" viewBox="0 0 31 32" version="1.1" xmlns="http://www.w3.org/2000/svg" xmlns:xlink="http://www.w3.org/1999/xlink">
    <!-- Generator: Sketch 41.1 (35376) - http://www.bohemiancoding.com/sketch -->
    <title>diagram schema structure</title>
    <desc>Created with Sketch.</desc>
    <defs></defs>
    <g id="Project-Kitsune-" stroke="none" stroke-width="1" fill="none" fill-rule="evenodd">
        <g id="Web-Action-pop-up" transform="translate(-40.000000, -323.000000)" fill="#b3b7bf">
            <g id="Schema-Dashboard">
                <g id="Side-menu">
                    <g id="Schemas" transform="translate(26.000000, 323.000000)">
                        <g id="diagram-schema-structure" transform="translate(14.000000, 0.666667)">
                            <g id="Capa_1">
                                <path d="M30.20175,19.7749727 L27.5727441,17.2064531 C27.0582773,16.6920469 26.3736133,16.4082031 25.6463242,16.4082031 L25.4902344,16.4082031 L25.4902344,13.6835937 C25.4902344,12.1811836 24.2680352,10.9589844 22.765625,10.9589844 L21.8574219,10.9589844 L21.8574219,5.29312891 C21.8574219,4.56583984 21.5735781,3.88117578 21.0591719,3.36676953 L18.4906523,0.79825 C17.9762461,0.28384375 17.291582,0 16.564293,0 L10.0507812,0 C9.54878711,0 9.14257812,0.406208984 9.14257812,0.908203125 L9.14257812,10.9589844 L8.234375,10.9589844 C6.73196484,10.9589844 5.50976562,12.1811836 5.50976562,13.6835937 L5.50976562,16.4082031 L0.908203125,16.4082031 C0.406208984,16.4082031 0,16.8144121 0,17.3164062 L0,30.0917969 C0,30.593791 0.406208984,31 0.908203125,31 L11.8671875,31 C12.3691816,31 12.7753906,30.593791 12.7753906,30.0917969 L12.7753906,21.701332 C12.7753906,20.974043 12.4915469,20.2893789 11.9771406,19.7749727 L9.40862109,17.2064531 C8.89421484,16.6920469 8.20955078,16.4082031 7.48226172,16.4082031 L7.32617187,16.4082031 L7.32617187,13.6835937 C7.32617187,13.1825078 7.73328906,12.7753906 8.234375,12.7753906 L9.14257812,12.7753906 L9.14257812,13.6835937 C9.14257812,14.1855879 9.54878711,14.5917969 10.0507812,14.5917969 L20.9492187,14.5917969 C21.4512129,14.5917969 21.8574219,14.1855879 21.8574219,13.6835937 L21.8574219,12.7753906 L22.765625,12.7753906 C23.2667109,12.7753906 23.6738281,13.1825078 23.6738281,13.6835937 L23.6738281,16.4082031 L19.1328125,16.4082031 C18.6308184,16.4082031 18.2246094,16.8144121 18.2246094,17.3164062 L18.2246094,30.0917969 C18.2246094,30.593791 18.6308184,31 19.1328125,31 L30.0917969,31 C30.593791,31 31,30.593791 31,30.0917969 L31,21.701332 C31,20.974043 30.7161562,20.2893789 30.20175,19.7749727 Z M7.48226172,18.2246094 C7.72081641,18.2246094 7.95501172,18.3213027 8.12436133,18.4907129 L10.6928809,21.0592324 C10.862291,21.2286426 10.9589844,21.4627773 10.9589844,21.701332 L10.9589844,21.8574219 L7.32617188,21.8574219 L7.32617188,18.2246094 L7.48226172,18.2246094 Z M20.0410156,5.44921875 L16.4082031,5.44921875 L16.4082031,1.81640625 L16.564293,1.81640625 C16.8028477,1.81640625 17.037043,1.91309961 17.2063926,2.08250977 L19.7749121,4.6510293 C19.9443223,4.82043945 20.0410156,5.05457422 20.0410156,5.29312891 L20.0410156,5.44921875 Z M29.1835937,21.8574219 L25.4902344,21.8574219 L25.4902344,18.2246094 L25.6463242,18.2246094 C25.8848789,18.2246094 26.1190742,18.3213027 26.2884238,18.4907129 L28.9174902,21.0592324 C29.0869004,21.2286426 29.1835937,21.4627773 29.1835937,21.701332 L29.1835937,21.8574219 Z" id="Shape"></path>
                            </g>
                        </g>
                    </g>
                </g>
            </g>
        </g>
    </g>
</svg>
