<?xml version="1.0" encoding="utf-8"?>
<!-- Generator: Adobe Illustrator 22.0.0, SVG Export Plug-In . SVG Version: 6.00 Build 0)  -->
<svg version="1.1" id="Layer_1" xmlns="http://www.w3.org/2000/svg" xmlns:xlink="http://www.w3.org/1999/xlink" x="0px" y="0px"
	 viewBox="0 0 57.4 49.1" style="enable-background:new 0 0 57.4 49.1;" xml:space="preserve">
<style type="text/css">
	.st0{fill:#FFB900;}
	.st1{fill:#FFFFFF;}
</style>
<title>Warning-yellow</title>
<g id="Layer_2_1_">
	<g id="Capa_1">
		<path class="st0" d="M55.9,42.9L31.6,2.6c-1-1.6-3-2.1-4.7-1.2c-0.5,0.3-0.9,0.7-1.2,1.2L1.5,42.9c-1,1.6-0.5,3.7,1.2,4.7
			c0.5,0.3,1.1,0.5,1.7,0.5H53c1.9,0,3.4-1.5,3.4-3.4C56.4,44.1,56.2,43.4,55.9,42.9L55.9,42.9z"/>
		<path class="st1" d="M28.7,13.6c1.6,0,2.9,0.9,2.9,2.5c0,4.9-0.6,11.8-0.6,16.7c0,1.3-1.4,1.8-2.4,1.8c-1.3,0-2.4-0.5-2.4-1.8
			c0-4.9-0.6-11.8-0.6-16.7C25.7,14.5,27,13.6,28.7,13.6z"/>
		<path class="st1" d="M28.7,43.6c-1.7,0-3.2-1.4-3.2-3.1c0-1.7,1.4-3.2,3.1-3.2s3.2,1.4,3.2,3.1c0,0,0,0,0,0
			C31.8,42.2,30.4,43.6,28.7,43.6z"/>
	</g>
</g>
</svg>
