<?xml version="1.0" encoding="UTF-8"?>
<svg width="18px" height="16px" viewBox="0 0 18 16" version="1.1" xmlns="http://www.w3.org/2000/svg" xmlns:xlink="http://www.w3.org/1999/xlink">
    <!-- Generator: Sketch 48.1 (47250) - http://www.bohemiancoding.com/sketch -->
    <title>016-test-box</title>
    <desc>Created with Sketch.</desc>
    <defs></defs>
    <g id="Publishing-Site-(Webform-Zeroth-/-welcome)" stroke="none" stroke-width="1" fill="none" fill-rule="evenodd" transform="translate(-1340.000000, -290.000000)">
        <g id="IDE" transform="translate(-8.000000, -165.000000)" fill="#a0aac1" fill-rule="nonzero">
            <g id="Webforms" transform="translate(7.000000, 0.000000)">
                <g id="Webform-Checkbox-field" transform="translate(1.000000, 204.000000)">
                    <g id="Web-forms-drag-build-(+action-bar)" transform="translate(302.000000, 98.000000)">
                        <g id="Elements-group" transform="translate(999.000000, 85.000000)">
                            <g id="Elements">
                                <g id="016-test-box" transform="translate(39.000000, 68.000000)">
                                    <path d="M17.2294138,9.15555556 L16.2704483,9.15555556 C16.0594759,9.15555556 15.8868621,9.32603831 15.8868621,9.53440613 L15.8868621,9.81854406 C15.8868621,10.0269119 15.7142483,10.1973946 15.5032759,10.1973946 L15.2155862,10.1973946 C15.0046138,10.1973946 14.832,10.3678774 14.832,10.5762452 L14.832,11.5233716 C14.832,11.7317395 15.0046138,11.9022222 15.2155862,11.9022222 C16.5389586,11.9022222 17.613,10.8414406 17.613,9.53440613 C17.613,9.32414406 17.4423041,9.15555556 17.2294138,9.15555556 Z" id="Shape"></path>
                                    <path d="M4.48626493,11.9022222 L5.71073507,11.9022222 C6.141375,11.9022222 6.489,11.4932741 6.489,10.9866667 C6.489,10.4800593 6.141375,10.0711111 5.71073507,10.0711111 L4.48626493,10.0711111 C4.055625,10.0711111 3.708,10.4800593 3.708,10.9866667 C3.708,11.4912599 4.05735448,11.9022222 4.48626493,11.9022222 Z" id="Shape"></path>
                                    <path d="M12.2045451,11.9022222 C12.6325235,11.9022222 12.978,11.4932741 12.978,10.9866667 C12.978,10.4800593 12.6325235,10.0711111 12.2045451,10.0711111 L10.9704549,10.0711111 C10.5424765,10.0711111 10.197,10.4800593 10.197,10.9866667 C10.197,11.4932741 10.5424765,11.9022222 10.9704549,11.9022222 L12.2045451,11.9022222 Z" id="Shape"></path>
                                    <path d="M2.39741379,11.9022222 C2.60838621,11.9022222 2.781,11.7317395 2.781,11.5233716 L2.781,10.5762452 C2.781,10.3678774 2.60838621,10.1973946 2.39741379,10.1973946 L2.10972414,10.1973946 C1.89875172,10.1973946 1.72613793,10.0269119 1.72613793,9.81854406 L1.72613793,9.53440613 C1.72613793,9.32603831 1.55352414,9.15555556 1.34255172,9.15555556 L0.383586207,9.15555556 C0.172613793,9.15555556 0,9.32603831 0,9.53440613 C0,10.8414406 1.07212345,11.9022222 2.39741379,11.9022222 Z" id="Shape"></path>
                                    <path d="M0.383586207,7.32444444 L1.34255172,7.32444444 C1.55352414,7.32444444 1.72613793,7.15396169 1.72613793,6.94559387 L1.72613793,6.66145594 C1.72613793,6.45308812 1.89875172,6.28260536 2.10972414,6.28260536 L2.39741379,6.28260536 C2.60838621,6.28260536 2.781,6.11212261 2.781,5.90375479 L2.781,4.95662835 C2.781,4.74826054 2.60838621,4.57777778 2.39741379,4.57777778 C1.07404138,4.57777778 0,5.63855939 0,6.94559387 C0,7.15587488 0.170695862,7.32444444 0.383586207,7.32444444 Z" id="Shape"></path>
                                    <path d="M3.708,5.49333333 C3.708,5.99994074 4.055625,6.40888889 4.48626493,6.40888889 L5.71073507,6.40888889 C6.141375,6.40888889 6.489,5.99994074 6.489,5.49333333 C6.489,4.98672593 6.141375,4.57777778 5.71073507,4.57777778 L4.48626493,4.57777778 C4.05735448,4.57777778 3.708,4.98876049 3.708,5.49333333 Z" id="Shape"></path>
                                    <path d="M12.2045451,4.57777778 L10.9704549,4.57777778 C10.5424765,4.57777778 10.197,4.98672593 10.197,5.49333333 C10.197,5.99994074 10.5424765,6.40888889 10.9704549,6.40888889 L12.2045451,6.40888889 C12.6325235,6.40888889 12.978,5.99994074 12.978,5.49333333 C12.978,4.98876049 12.6307875,4.57777778 12.2045451,4.57777778 Z" id="Shape"></path>
                                    <path d="M15.2155862,4.57777778 C15.0046138,4.57777778 14.832,4.74826054 14.832,4.95662835 L14.832,5.90375479 C14.832,6.11212261 15.0046138,6.28260536 15.2155862,6.28260536 L15.5032759,6.28260536 C15.7142483,6.28260536 15.8868621,6.45308812 15.8868621,6.66145594 L15.8868621,6.94559387 C15.8868621,7.15396169 16.0594759,7.32444444 16.2704483,7.32444444 L17.2294138,7.32444444 C17.4403862,7.32444444 17.613,7.15396169 17.613,6.94559387 C17.613,5.63855939 16.5408766,4.57777778 15.2155862,4.57777778 Z" id="Shape"></path>
                                    <path d="M10.3041004,1.64238564 C10.7452547,1.63692316 11.116753,1.28550362 11.1238972,0.835759434 C11.1310235,0.376911117 10.7666873,1.29377515e-16 10.3183709,1.29377515e-16 C9.63074182,1.29377515e-16 8.96811739,0.258557385 8.45552113,0.728330661 L8.343,0.832117781 L8.23047887,0.728330661 C7.71788261,0.258557385 7.05525818,0 6.36762906,0 C5.91931273,0 5.55497645,0.376911117 5.56210279,0.835759434 C5.56924699,1.28550362 5.94074532,1.63692316 6.38189959,1.64238564 C6.95700759,1.64966895 7.439241,2.07210073 7.53032954,2.65294443 L7.53032954,12.9114818 C7.439241,13.4923255 6.95700759,13.9147573 6.38189959,13.9220406 C5.94074532,13.9275213 5.56924699,14.2789226 5.56210279,14.728685 C5.55497645,15.1875151 5.91931273,15.5644444 6.36762906,15.5644444 C7.05525818,15.5644444 7.71788261,15.3058689 8.23047887,14.8361138 L8.343,14.7323085 L8.45552113,14.8361138 C8.96811739,15.3058689 9.63074182,15.5644444 10.3183709,15.5644444 C10.7666873,15.5644444 11.1310235,15.1875151 11.1238972,14.728685 C11.116753,14.2789226 10.7452547,13.9275213 10.3041004,13.9220406 C9.72899241,13.9147573 9.246759,13.4923255 9.15567046,12.9114818 L9.15567046,2.65294443 C9.24674114,2.07210073 9.72897455,1.64968716 10.3041004,1.64238564 Z" id="Shape"></path>
                                </g>
                            </g>
                        </g>
                    </g>
                </g>
            </g>
        </g>
    </g>
</svg>
