<?xml version="1.0" encoding="UTF-8"?>
<svg width="17px" height="17px" viewBox="0 0 17 17" version="1.1" xmlns="http://www.w3.org/2000/svg" xmlns:xlink="http://www.w3.org/1999/xlink">
    <!-- Generator: Sketch 48.1 (47250) - http://www.bohemiancoding.com/sketch -->
    <title>010-calendar</title>
    <desc>Created with Sketch.</desc>
    <defs></defs>
    <g id="Publishing-Site-(Webform-Zeroth-/-welcome)" stroke="none" stroke-width="1" fill="none" fill-rule="evenodd" transform="translate(-1340.000000, -444.000000)">
        <g id="IDE" transform="translate(-8.000000, -165.000000)" fill="#a0aac1" fill-rule="nonzero">
            <g id="Webforms" transform="translate(7.000000, 0.000000)">
                <g id="Webform-Checkbox-field" transform="translate(1.000000, 204.000000)">
                    <g id="Web-forms-drag-build-(+action-bar)" transform="translate(302.000000, 98.000000)">
                        <g id="Elements-group" transform="translate(999.000000, 85.000000)">
                            <g id="Elements">
                                <g id="010-calendar" transform="translate(39.000000, 222.600000)">
                                    <path d="M12.3349959,3.37620267 C12.9691917,3.37620267 13.4829131,2.88290133 13.4829131,2.26874667 L13.4829131,1.10965333 C13.4829131,0.494949333 12.96976,0 12.3349959,0 C11.7002317,0 11.1876469,0.4944 11.1876469,1.10965333 L11.1876469,2.269296 C11.1882152,2.88290133 11.7008,3.37620267 12.3349959,3.37620267 Z" id="Shape"></path>
                                    <path d="M16.4129434,1.91937067 L14.1023338,1.91937067 L14.1023338,2.483536 C14.1023338,3.414656 13.3198179,4.17328533 12.3548855,4.17328533 C11.3888166,4.17328533 10.6080055,3.414656 10.6080055,2.483536 L10.6080055,1.91937067 L5.94530207,1.91937067 L5.94530207,2.483536 C5.94530207,3.414656 5.16164966,4.17328533 4.19728552,4.17328533 C3.23292138,4.17328533 2.44983724,3.41520533 2.44983724,2.483536 L2.44983724,1.91937067 L0.118201379,1.89135467 L0.118201379,15.997136 L1.28430345,15.997136 L15.2661628,15.997136 L16.43056,15.99384 L16.4129434,1.91937067 Z M15.2650262,14.8737493 L1.28430345,14.8737493 L1.28430345,5.86248533 L15.2661628,5.86248533 L15.2661628,14.8737493 L15.2650262,14.8737493 Z" id="Shape"></path>
                                    <path d="M4.17910069,3.37620267 C4.81329655,3.37620267 5.32758621,2.88290133 5.32758621,2.26874667 L5.32758621,1.10965333 C5.32758621,0.4944 4.81329655,0 4.17910069,0 C3.54490483,0 3.03232,0.4944 3.03232,1.10965333 L3.03232,2.269296 C3.03232,2.88290133 3.54433655,3.37620267 4.17910069,3.37620267 Z" id="Shape"></path>
                                    <rect id="Rectangle-path" x="5.94871172" y="7.071568" width="1.83609931" height="1.56669867"></rect>
                                    <rect id="Rectangle-path" x="8.91738483" y="7.071568" width="1.83780414" height="1.56669867"></rect>
                                    <rect id="Rectangle-path" x="11.6706814" y="7.071568" width="1.83609931" height="1.56669867"></rect>
                                    <rect id="Rectangle-path" x="5.94871172" y="9.67321067" width="1.83609931" height="1.5656"></rect>
                                    <rect id="Rectangle-path" x="8.91738483" y="9.67321067" width="1.83780414" height="1.5656"></rect>
                                    <rect id="Rectangle-path" x="11.6706814" y="9.67321067" width="1.83609931" height="1.5656"></rect>
                                    <rect id="Rectangle-path" x="5.94871172" y="12.3264907" width="1.83609931" height="1.5656"></rect>
                                    <rect id="Rectangle-path" x="3.03232" y="9.67321067" width="1.83496276" height="1.5656"></rect>
                                    <rect id="Rectangle-path" x="3.03232" y="12.3264907" width="1.83496276" height="1.5656"></rect>
                                    <rect id="Rectangle-path" x="8.91738483" y="12.3264907" width="1.83780414" height="1.5656"></rect>
                                    <rect id="Rectangle-path" x="11.6706814" y="12.3264907" width="1.83609931" height="1.5656"></rect>
                                </g>
                            </g>
                        </g>
                    </g>
                </g>
            </g>
        </g>
    </g>
</svg>
