<?xml version="1.0" encoding="UTF-8"?>
<svg width="13px" height="15px" viewBox="0 0 13 15" version="1.1" xmlns="http://www.w3.org/2000/svg" xmlns:xlink="http://www.w3.org/1999/xlink">
    <!-- Generator: Sketch 48.1 (47250) - http://www.bohemiancoding.com/sketch -->
    <title>icon</title>
    <desc>Created with Sketch.</desc>
    <defs></defs>
    <g id="Publishing-Site-(Webform-Zeroth-/-welcome)" stroke="none" stroke-width="1" fill="none" fill-rule="evenodd" transform="translate(-1342.000000, -548.000000)">
        <g id="IDE" transform="translate(-8.000000, -165.000000)" fill="#a0aac1" fill-rule="nonzero">
            <g id="Webforms" transform="translate(7.000000, 0.000000)">
                <g id="Webform-Checkbox-field" transform="translate(1.000000, 204.000000)">
                    <g id="Web-forms-drag-build-(+action-bar)" transform="translate(302.000000, 98.000000)">
                        <g id="Elements-group" transform="translate(999.000000, 85.000000)">
                            <g id="Elements">
                                <g id="icon" transform="translate(41.000000, 326.000000)">
                                    <path d="M10.3161825,4 L12.25,4 L12.25,6.125 L10.0594208,6.125 L9.72833284,8.875 L12.25,8.875 L12.25,11 L9.47160007,11 L9.07874292,14.25 L7.00282124,14.25 L7.3964641,11 L4.75731435,11 L4.36445721,14.25 L2.28938894,14.25 L2.68224609,11 L0.75,11 L0.75,8.875 L2.93906103,8.875 L3.27081377,6.125 L0.75,6.125 L0.75,4 L3.52761422,4 L3.92047136,0.75 L5.99553963,0.75 L5.60268248,4 L8.24111422,4 L8.63397136,0.75 L10.7090396,0.75 L10.3161825,4 Z M7.98438144,6.125 L5.34586755,6.125 L5.0141148,8.875 L7.65329353,8.875 L7.98438144,6.125 Z" id="Shape"></path>
                                </g>
                            </g>
                        </g>
                    </g>
                </g>
            </g>
        </g>
    </g>
</svg>
