<?xml version="1.0" encoding="UTF-8"?>
<svg width="9px" height="17px" viewBox="0 0 9 17" version="1.1" xmlns="http://www.w3.org/2000/svg" xmlns:xlink="http://www.w3.org/1999/xlink">
    <!-- Generator: Sketch 48.1 (47250) - http://www.bohemiancoding.com/sketch -->
    <title>drop-down</title>
    <desc>Created with Sketch.</desc>
    <defs></defs>
    <g id="Publishing-Site-(Webform-Zeroth-/-welcome)" stroke="none" stroke-width="1" fill="none" fill-rule="evenodd" transform="translate(-1344.000000, -496.000000)">
        <g id="IDE" transform="translate(-8.000000, -165.000000)" fill="#a0aac1" fill-rule="nonzero">
            <g id="Webforms" transform="translate(7.000000, 0.000000)">
                <g id="Webform-Checkbox-field" transform="translate(1.000000, 204.000000)">
                    <g id="Web-forms-drag-build-(+action-bar)" transform="translate(302.000000, 98.000000)">
                        <g id="Elements-group" transform="translate(999.000000, 85.000000)">
                            <g id="Elements">
                                <g id="drop-down" transform="translate(43.000000, 274.000000)">
                                    <path d="M0.818775801,7.54531579 L8.18948754,7.54531579 C8.48780071,7.54531579 8.76141993,7.36774494 8.90061566,7.08456073 C9.03961922,6.8007915 9.02133096,6.45848583 8.85276512,6.19343725 L5.12199288,0.336283401 C4.98843416,0.126639676 4.76730961,0.00113562753 4.53077936,-8.58450951e-17 C4.29450534,-0.000619433198 4.07267616,0.123336032 3.93802847,0.332360324 L0.158060498,6.18961741 C-0.0122989324,6.45349595 -0.0321245552,6.79748785 0.106590747,7.08232389 C0.24530605,7.36667814 0.519661922,7.54531579 0.818775801,7.54531579 Z" id="XMLID_623_"></path>
                                    <path d="M8.18948754,9.42908097 L0.818775801,9.42908097 C0.519661922,9.42908097 0.24530605,9.60778745 0.106590747,9.89210729 C-0.0321245552,10.1769433 -0.0122669039,10.5209352 0.158060498,10.7847449 L3.93802847,16.642002 C4.07267616,16.8510263 4.29450534,16.9749818 4.53077936,16.9744312 C4.76730961,16.9733644 4.98843416,16.8477227 5.12199288,16.6381478 L8.85276512,10.7808907 C9.02133096,10.5159453 9.03961922,10.1735709 8.90061566,9.88976721 C8.76141993,9.60665182 8.48780071,9.42908097 8.18948754,9.42908097 Z" id="XMLID_622_"></path>
                                </g>
                            </g>
                        </g>
                    </g>
                </g>
            </g>
        </g>
    </g>
</svg>
