<svg xmlns="http://www.w3.org/2000/svg" viewBox="0 0 2141.389 1725.808">
  <defs>
    <style>
      .cls-1 {
        fill: #f3f3f3;
      }

      .cls-2 {
        fill: #c6c6c6;
      }

      .cls-3 {
        fill: #abaaaa;
      }

      .cls-4 {
        fill: #f2f2f2;
      }
    </style>
  </defs>
  <g id="Group_281" data-name="Group 281" transform="translate(499 11259.948)">
    <path id="Path_832" data-name="Path 832" class="cls-1" d="M2052.451,707.431H1857.666a49.49,49.49,0,0,1-36.953-16.911h0c-15.031-17.537-24.426-41.964-24.426-68.9v-.94c.313-45.1,37.579-81.422,82.674-81.422h87.685c48.853,0,88.311-41.964,88.311-93.948s-39.458-93.948-88.311-93.948h-176c-22.861,0-43.529-10.647-58.561-27.558s-24.427-40.4-24.427-66.39v-.939c.313-42.59,35.7-76.411,78.29-76.411h108.04c48.853,0,88.311-40.4,88.311-89.877S1942.845,0,1893.992,0H247.083c-48.853,0-88.624,40.4-88.624,89.877s39.458,89.877,88.311,89.877H354.81c42.59,0,77.977,34.135,78.29,76.411v.939c0,25.992-9.395,49.479-24.427,66.39s-35.7,27.558-58.561,27.558h-176c-48.853,0-88.311,41.964-88.311,93.948s39.458,93.948,88.311,93.948H350.739c45.1,0,82.361,36.327,82.674,81.422v.94c0,26.932-9.395,51.358-24.426,68.9h0a48.99,48.99,0,0,1-36.953,16.911H88.311C39.458,707.431,0,747.828,0,797.934s39.458,90.19,88.311,90.19h261.8c45.721,0,82.987,40.4,82.987,90.19a93.944,93.944,0,0,1-24.427,63.885,60.187,60.187,0,0,1-44.156,19.416H247.083c-48.853,0-88.311,41.337-88.311,92.069s39.458,92.069,88.311,92.069H350.739c58.561,0,92.069,63.572,80.482,115.87-12.526,57.309-69.208,53.551-117.748,53.551-49.793,0-89.877,41.024-88.311,90.817,1.253,48.227,41.963,85.806,90.19,85.806h1511c48.227,0,88.937-37.893,90.19-85.806a88.385,88.385,0,0,0-88.311-90.817c-48.54,0-105.222,3.758-117.748-53.551-11.587-52.3,21.921-115.87,80.482-115.87h103.656c48.853,0,88.311-41.337,88.311-92.069s-39.458-92.069-88.311-92.069H1776.87a60.044,60.044,0,0,1-44.156-19.416,93.944,93.944,0,0,1-24.427-63.885c0-49.793,37.266-90.19,82.988-90.19h261.8c48.853,0,88.311-40.4,88.311-90.19S2101.3,707.431,2052.451,707.431Z" transform="translate(-499 -11125.938)"/>
    <path id="Path_833" data-name="Path 833" class="cls-2" d="M864.758,1631.243H150.535A101.9,101.9,0,0,1,48.8,1529.507V133.035A101.634,101.634,0,0,1,150.535,31.3H864.758A101.9,101.9,0,0,1,966.493,133.035V1529.507a101.9,101.9,0,0,1-101.735,101.735" transform="translate(64 -11291.248)"/>
    <path id="Path_834" data-name="Path 834" class="cls-3" d="M209.109,390.695a49,49,0,1,1-49,49c-.415-26.575,21.593-49,49-49m0-16.195a65.609,65.609,0,1,0,65.609,65.609c-.415-36.126-29.483-65.609-65.609-65.609Z" transform="translate(362.537 -10209.324)"/>
    <rect id="Rectangle_287" data-name="Rectangle 287" class="cls-4" width="754.086" height="1163.104" transform="translate(194.604 -11041.531)"/>
    <path id="ic_ring_volume_24px" class="cls-2" d="M402.09,250.784a288.576,288.576,0,0,0-397.172,0,17.2,17.2,0,0,0,0,24.081l42.058,42.058a16.9,16.9,0,0,0,12.041,4.918,17.4,17.4,0,0,0,11.871-4.748A193.644,193.644,0,0,1,116,285.719a16.9,16.9,0,0,0,9.5-15.263V217.884A248,248,0,0,1,203.5,205.5a252.868,252.868,0,0,1,78.01,12.21v52.572a17.086,17.086,0,0,0,9.5,15.263,195.208,195.208,0,0,1,45.11,31.374,16.655,16.655,0,0,0,11.871,4.748,16.9,16.9,0,0,0,12.041-4.918L402.09,274.7a16.991,16.991,0,0,0,0-23.912ZM358.846,74.244,334.934,50.332l-60.373,60.2,23.912,23.912S356.98,74.753,358.846,74.244ZM220.463,2H186.546V86.793h33.917ZM108.536,134.447l23.912-23.912-60.2-60.373L48.163,74.244C50.028,74.753,108.536,134.447,108.536,134.447Z" transform="translate(371.712 -10624.448)"/>
  </g>
</svg>
