<?xml version="1.0" encoding="iso-8859-1"?>
<!-- Generator: Adobe Illustrator 19.0.0, SVG Export Plug-In . SVG Version: 6.00 Build 0)  -->
<svg version="1.1" id="Layer_1" xmlns="http://www.w3.org/2000/svg" xmlns:xlink="http://www.w3.org/1999/xlink" x="0px" y="0px"
	 viewBox="0 0 489.4 489.4" style="enable-background:new 0 0 489.4 489.4;" xml:space="preserve">
<g>
	<g>
		<path style="fill:#2C2F33;" d="M430.55,85.5h-95.6c-5.5,0-9.9,4.4-9.9,9.9s4.4,9.9,9.9,9.9h95.6c10.8,0,19.6,8.8,19.6,19.6v245.8
			c0,10.8-8.8,19.6-19.6,19.6H58.95c-10.8,0-19.6-8.8-19.6-19.6V124.9c0-10.8,8.8-19.6,19.6-19.6h97.1c5.5,0,9.9-4.4,9.9-9.9
			s-4.4-9.9-9.9-9.9h-97.1c-21.7,0-39.4,17.7-39.4,39.4v245.8c0,21.7,17.7,39.4,39.4,39.4h175.9v59.5h-82.2c-5.5,0-9.9,4.4-9.9,9.9
			s4.4,9.9,9.9,9.9h184.1c5.5,0,9.9-4.4,9.9-9.9s-4.4-9.9-9.9-9.9h-82.2v-59.5h175.9c21.7,0,39.4-17.7,39.4-39.4V124.9
			C469.95,103.2,452.25,85.5,430.55,85.5z"/>
		<path style="fill:#3C92CA;" d="M300.55,38.9c0-21.4-17.4-38.9-38.9-38.9h-33.9c-21.4,0-38.9,17.4-38.9,38.9v23.3
			c0,0.6,0.1,1.2,0.2,1.7c-0.1,0.6-0.2,1.1-0.2,1.7v193.2c0,2.2,0.7,4.3,2,6l45.9,60.3c1.9,2.5,4.8,3.9,7.9,3.9c3.1,0,6-1.4,7.9-3.9
			l45.9-60.3c1.3-1.7,2-3.8,2-6V65.3c0-0.5-0.1-1.1-0.2-1.6c0.1-0.5,0.2-1,0.2-1.6V38.9H300.55z M208.75,72.1h26.1v175.4h-26.1V72.1
			z M244.75,302.8l-27.1-35.6h54.2L244.75,302.8z M280.75,247.5h-26.1V72.1h26.1V247.5z M280.75,52.3h-72V38.9
			c0-10.5,8.6-19.1,19.1-19.1h33.9c10.5,0,19.1,8.6,19.1,19.1v13.4C280.85,52.3,280.75,52.3,280.75,52.3z"/>
	</g>
</g>
<g>
</g>
<g>
</g>
<g>
</g>
<g>
</g>
<g>
</g>
<g>
</g>
<g>
</g>
<g>
</g>
<g>
</g>
<g>
</g>
<g>
</g>
<g>
</g>
<g>
</g>
<g>
</g>
<g>
</g>
</svg>
