<svg xmlns="http://www.w3.org/2000/svg" viewBox="0 0 1352.324 1005.25">
  <defs>
    <style>
      .cls-1 {
        fill: #f3f3f3;
      }

      .cls-2 {
        fill: #c6c6c6;
      }
    </style>
  </defs>
  <g id="Group_281" data-name="Group 281" transform="translate(2629 8495.058)">
    <path id="Path_832" data-name="Path 832" class="cls-1" d="M1296.159,446.756h-123.01a31.253,31.253,0,0,1-23.336-10.679h0c-9.493-11.075-15.426-26.5-15.426-43.509v-.593c.2-28.478,23.732-51.419,52.21-51.419h55.375c30.852,0,55.77-26.5,55.77-59.33s-24.919-59.33-55.77-59.33H1130.826c-14.437,0-27.49-6.724-36.982-17.4a63.064,63.064,0,0,1-15.426-41.927v-.593c.2-26.9,22.545-48.255,49.442-48.255h68.229c30.851,0,55.77-25.512,55.77-56.759S1226.94,0,1196.089,0H156.037C125.186,0,100.07,25.512,100.07,56.759s24.919,56.759,55.77,56.759h68.229c26.9,0,49.244,21.557,49.441,48.255v.593a63.064,63.064,0,0,1-15.426,41.927c-9.493,10.679-22.545,17.4-36.982,17.4H109.958c-30.852,0-55.77,26.5-55.77,59.33s24.919,59.33,55.77,59.33H221.5c28.478,0,52.012,22.941,52.21,51.419v.593c0,17.008-5.933,32.434-15.426,43.509h0a30.938,30.938,0,0,1-23.336,10.679H55.77C24.919,446.756,0,472.268,0,503.911s24.919,56.957,55.77,56.957H221.1c28.874,0,52.408,25.512,52.408,56.957a59.328,59.328,0,0,1-15.426,40.344A38.009,38.009,0,0,1,230.2,670.431H156.037c-30.851,0-55.77,26.105-55.77,58.144s24.919,58.144,55.77,58.144H221.5c36.982,0,58.143,40.147,50.826,73.174-7.911,36.191-43.706,33.818-74.36,33.818a55.692,55.692,0,0,0-55.77,57.352c.791,30.456,26.5,54.188,56.957,54.188h954.221c30.456,0,56.166-23.93,56.957-54.188a55.817,55.817,0,0,0-55.77-57.352c-30.654,0-66.449,2.373-74.36-33.818-7.317-33.027,13.844-73.174,50.826-73.174h65.46c30.852,0,55.77-26.105,55.77-58.144s-24.919-58.144-55.77-58.144h-74.36a37.919,37.919,0,0,1-27.885-12.262,59.329,59.329,0,0,1-15.426-40.344c0-31.445,23.534-56.957,52.408-56.957h165.332c30.851,0,55.77-25.512,55.77-56.957S1327.01,446.756,1296.159,446.756Z" transform="translate(-2629 -8495.058)"/>
    <path id="ic_view_list_24px" class="cls-2" d="M4,172.419H78.408V98.01H4Zm0,93.01H78.408V191.021H4ZM4,79.408H78.408V5H4Zm93.01,93.01H320.235V98.01H97.01Zm0,93.01H320.235V191.021H97.01ZM97.01,5V79.408H320.235V5Z" transform="translate(-2117.498 -8173.042)"/>
    <path id="ic_laptop_mac_24px" class="cls-2" d="M828.872,624.655c45.588,0,82.473-37.3,82.473-82.887l.414-455.881A83.131,83.131,0,0,0,828.872,3h-663.1A83.131,83.131,0,0,0,82.887,85.887V541.768a83.131,83.131,0,0,0,82.887,82.887H0a83.131,83.131,0,0,0,82.887,82.887H911.759a83.131,83.131,0,0,0,82.887-82.887ZM165.774,85.887h663.1V541.768h-663.1ZM497.323,666.1a41.444,41.444,0,1,1,41.444-41.444A41.565,41.565,0,0,1,497.323,666.1Z" transform="translate(-2451.572 -8345.684)"/>
  </g>
</svg>
