<svg xmlns="http://www.w3.org/2000/svg" viewBox="0 0 96.735 96.735"><defs><style>.a{fill:#dde1e7;}</style></defs><path class="a" d="M-415.4,72.735a5.713,5.713,0,0,1-6.051-6.045V12.277A5.713,5.713,0,0,1-415.4,6.231h12.09a5.712,5.712,0,0,1,6.046,6.045V66.689a5.712,5.712,0,0,1-6.046,6.045Zm-36.277,0a5.709,5.709,0,0,1-6.045-6.045V-17.955A5.712,5.712,0,0,1-451.678-24h12.09a5.712,5.712,0,0,1,6.045,6.045V66.689a5.709,5.709,0,0,1-6.045,6.045Zm-36.277,0A5.712,5.712,0,0,1-494,66.689V42.508a5.716,5.716,0,0,1,6.045-6.051h12.09a5.718,5.718,0,0,1,6.051,6.051V66.689a5.713,5.713,0,0,1-6.051,6.045Z" transform="translate(494 24)"/></svg>