<svg xmlns="http://www.w3.org/2000/svg" viewBox="0 0 83.709 95.669"><defs><style>.a{fill:#dde1e7;}</style></defs><path class="a" d="M-211.639-931.331c-7,0-12.73-3.59-16.551-8.97a18.055,18.055,0,0,1,0-17.936l21.009-35.877a6.79,6.79,0,0,1,5.729-2.992h25.46a6.789,6.789,0,0,1,5.729,2.992l21.008,35.877c3.185,5.979,3.185,12.554,0,17.936-3.821,5.381-9.55,8.97-16.551,8.97Zm10.186-77.733a5.965,5.965,0,0,1-4.457-1.792l-6.365-5.979c-3.821-3.59-1.908-10.165,4.457-10.165h38.19c6.371,0,7.643,6.576,4.457,10.165l-6.365,5.979a5.957,5.957,0,0,1-4.457,1.792Z" transform="translate(230.575 1027)"/></svg>