<svg xmlns="http://www.w3.org/2000/svg" viewBox="0 0 84.639 96.735"><defs><style>.a{fill:#dde1e7;}</style></defs><path class="a" d="M-4-229.265a36.381,36.381,0,0,1,36.272-36.277H44.362a36.383,36.383,0,0,1,36.277,36.277Zm15.714-12.1H65.524a24.382,24.382,0,0,0-21.161-12.091H32.876A24.4,24.4,0,0,0,11.715-241.361Zm2.421-54.413v-6.045A24.254,24.254,0,0,1,38.317-326,24.255,24.255,0,0,1,62.5-301.819v6.045a24.256,24.256,0,0,1-24.186,24.186A24.255,24.255,0,0,1,14.136-295.774Zm12.091-6.045v6.045a12.128,12.128,0,0,0,12.091,12.1,12.129,12.129,0,0,0,12.1-12.1v-6.045a12.128,12.128,0,0,0-12.1-12.091A12.127,12.127,0,0,0,26.227-301.819Z" transform="translate(4 326)"/></svg>